<svg version="1.1" id="Layer_1" xmlns="http://www.w3.org/2000/svg" x="0" y="0" viewBox="0 0 260.8 368.2" xml:space="preserve"><style>.st0{fill:#fff}.st1,.st2{opacity:.3;fill:#231f20}.st2{opacity:.5}.st3{fill:#e1251b}.st4{fill:#0071ce}.st5{fill:#231f20}</style><path class="st0" d="M148.3 275.4c2.9-.6 6.1-1.2 8.8-2.5 2.5-1.2 5.1-1.6 7.6-2.6.3-.1.6-.3.9-.5.2-.3.4-.6.5-.9 1.1-3.4 1-7.2 2.4-10.5-1.7 0-3.3 0-5-.1.2-2.1 1.3-4.3 1.8-6.4.6-2.4 1.1-4.8 1.5-7.2.5-3.1.9-6.3 1.1-9.4.2-2.9.4-5.8 1.1-8.7.1-.3.2-.6.4-.8.1-.1.3-.2.4-.3.4-.2.8-.3 1.2-.4h.2c.1 0 .1.1.1.2.3 1 1.5 2.2 2.1 3 .8 1 1.8 2 2.7 3 1.8 1.9 3.8 3.9 6 5.5 1.6 1.1 3.2 2.1 4.9 3 1.8.9 3.6 1.7 5.4 2.4.1 0 .2.1.3 0 .1 0 .1-.1.2-.1.8-.9 1.4-1.9 1.9-2.9.2-.5.4-1 .7-1.4l1.3-1.3-3.6-5.1c2.2 1 4.4 2 6.7 3.1.2.1.3.1.5.1s.3-.2.4-.3c1.1-1.6 2.2-3.2 3.2-4.9.1-.2.3-.5.2-.7 0-.2-.2-.4-.3-.5-1.1-1.2-2.4-2.4-3.9-3.3 2 .1 4 .3 6 .4.6-1.5 1.1-3 1.4-4.5 0-.2.1-.4 0-.7-.1-.2-.3-.4-.4-.5-1-.9-2.2-1.8-3.4-2.4-.4-.2-.8-.3-1.2-.5-.6-.4-1.1-.8-1.7-1.2-2.3-1.5-4.7-2.7-7.3-3.7l-.4-.2c.4 0 .7-.4.9-.6.4-.4.8-.9 1.3-1.2 1-.8 2-1.6 2.8-2.7.9-1.3 1.4-2.8 1.1-4.4-.1-.5-.3-.9-.4-1.3-.2-.4-.4-.8-.7-1.2-.8-1-1.9-1.6-3.2-1.9-.5-.1-4.7-.3-4.7 0-.2 2.3-2.5 5.7-5.2 5.4-2.5-.3-3.9-2.8-6.4-2.4-1.5.3-3.7 1.1-5.2.4-2.8-1.4-5.8-3.8-6.1-7-.1-1.4-.3-2.8-.4-4.2-.3-2.7-.6-5.4-1-8.1-.3-2.4-.7-4.8-1.2-7.2-.2-1.2-.4-2.4-.7-3.6-.2-1.2-.5-2.3-.7-3.5 1.9-.7 3.5-2 5.1-3 .9-.6 1.8-1.2 2.2-2.1.3-.7.3-1.4.3-2.2 0-4.4-.3-8.6-1.1-12.9-.5-2.7-.4-5.2-1.2-7.9-.4-1.1-1.1-1.9-2.2-2.3-1.5-.5-1.4 1.1-1.8 2.1-.4 1-1.3 1.7-2.2 2.2-1.5.9-3.2 1.6-4.9 2 0-1 0-2-.5-2.8-.3-.5-.7-.8-1-1.3-.3-.5-.5-1.2-.6-1.8-1.4-6.6-2.4-13.4-5.9-19.3l-8.1.6c-1.5.1-4.2 1.1-5.3-.1-1.3-1.4-2.2-3.8-3.1-5.5-.7-1.3-1.4-4.6-3.1-4.8-1.6-.2-4.2 1.4-5.6 1.9-.2.1-.4.1-.5.1-.2-.1-.3-.3-.3-.5-3-9.4-8.3-18.7-13.2-27.3-1-1.8-2.1-3.6-3.2-5.4-.5-.9-8.8-14.3-9.4-15.2-3.5-5.9-7.2-11.7-11.2-17.3-2.3 1.5-4.8 2.8-7 4.3.6 1.1 1.1 2.2 1.7 3.3 1.2 2.2 2.3 3.8 3.3 5.7 1.7 3.2 11.4 18.7 13.1 21.8 6.1 10.6 10.9 21.8 15.3 33.2.1.2-3 2.2-3.2 2.4-1.4 1-2.7 2.1-4 3.2.1 1 .5 1.9.8 2.8.3 1 .5 2.1.8 3.1.1.6 1.5 4.9 1.3 5.1-3 2.7-6.2 5-9.1 7.8-.1.1-.2.2-.2.4 0 .1 0 .3.1.4 2 5.3 3.2 11 4.7 16.5-.3-1.1-9.4-2.5-10.5-1.8-.7.4-1.1 1-1.6 1.6l-3.9 5.1c3.1.1 6.1 0 9.2.3 3 .3 5.8.8 8.7 1.6.9.2 2.2 8.1 2.3 9.3.2 1.6.6 2.8-.6 3.9-1.1 1-2.6 1.5-3 3.1-.2.8-.1 1.7.1 2.5.4 2 1.8 4.5.2 6.3-.6.7-1.5 1.1-2.4 1.4-3.6 1.6-7 3.8-9.9 6.4-1.1 1-2.2 2.1-3.1 3.4-.5.6-1 1.5-1.5 2.1-1.6 2.1-2.6 3.3-4 5.2-1.2 1.6-2.2 4.1-1.9 6.7.2 1.8 1.5 4.4 2.3 6.1.7 1.4 1.4 2.9 2.2 4.2.1.1.2.3.1.4 0 .1-.1.2-.1.3-.5 1-1 2-1.4 3v.2c0 .1.1.1.1.2l.7.7c1.5-1.6 2.7-3.3 4.2-4.9 1.4-1.5 3-2.6 4.5-4 .4-.3.7-.7.8-1.1-.7-.8-1.1-1.7-1.5-2.6-.4-1-1.3-2.8-.6-3.8.6-.9 2.1-1.6 3-2 1.7-.7 3.6-1.2 5.4-1.4 1.7-.2 2.9-.7 4.5-1.3.2 2.4.2 4.8.1 7.1-.1 2.2-.6 4.5-.6 6.7.1 3.7 4.8 2.8 5.4 6 .3 1.4-.4 3.7-.5 5.2-.4 4.2-.9 8.3-1.6 12.5-.2 1.2-.5 2.5-.5 3.6-.5 2.8-1.3 5.5-1.9 8.3-1.6.2-3.2.1-4.8.1-.2 0-.4 0-.5.1-.1.1-.1.2-.2.4-1.4 4.7-3.4 9.2-4.5 13.9 1 0 2 .6 2.9 1 1.3.6 14.8 4.9 14.9 4.2-.7 2.3-1.4 4.9-2.3 7.5-.4 1.2-.8 2.3-1.2 3.4-.3.7-.7 2.3-1.4 2.5-.4.1-1 0-1.5-.1h-2.2c-1.2 0-2.4.1-3.6.2-.2 0-.5.1-.7 0-.5-.1-1-.4-1.5-.5-.5-.1-1.1-.2-1.7-.2-.9 0-1.8.3-2.3 1-.2.3-.4.7-.7.8-.3.2-.7.1-1.1 0-1.2-.3-2.4-.4-3.6-.3-1.2.2-2.4.7-3.2 1.5-.3.3-.6.7-.9.9-.9.6-2.2.2-3.3.3-.8.1-1.7.4-2.3 1-.6.6-1 1.4-1.3 2.2-.3.8-.9 1.1-1.6 1.6-1.1 1-2.1 2-3 3.2-1.9 2.8-3.8 8.8-1.5 11.9.9 1.1 2.3 1.7 3.7 1.9 1.4.3 2.9.3 4.4.2 4.1-.1 8.1-.6 12.1-1.1 3.6-.5 7.2-1.1 10.6-2.4 1.6-.6 3.2-1.5 4.7-2.3 3.1-1.6 6.1-3.3 9.2-4.9 1.1-.6 2.3-1.2 3.1-2.2 1.2-1.5 1-3.6.7-5.4-.2-1.3-.6-2.7-1.5-3.9-.7-.9-1.7-1.6-2.8-1.9 1.8-4.5 3.5-9.6 4.4-13.8 2.2.2 4.3.4 6.5.5 3.7.1 7.4 0 11.1-.3-.5 3.3-2.1 7.9-3.6 11-3 .5-5.6 2-7.5 4.2-2.1 2.3-3.4 5.3-3.5 8.3 0 .7-.2 1.8.3 2.4.5.6 1.5.7 2.2.8 12.4 1 24.8 2 37.1 3 5.5.4 10.9.9 16.3 2 .9.2 1.9.4 2.8.2 1.4-.3 1.6-1.1 2.1-2.2.8-2 1.4-4.1 1.4-6.2 0-3.3-.7-6.8-2.9-9.5-1.8-2.2-4.5-3.6-7.3-4.1-1.3-.2-2.7-.2-3.8-.9-1.6-1.1-2.2-1.1-4.1-.7-1.2.2-2-.1-3.2-.4-2.4-.7-4.4 1.6-6.7.9-1-.3-1.7-.6-2.9-.3-2 .4-3.8 1.7-5.8 2-1.8.3-3.7.5-5.5.8.8-4.4 2.3-8.4 3.1-12.7z"/><path class="st1" d="M139.9 266.7c-2.4-.9-3.6.7-6 1.3-4.9 1.3-10.9 1.6-15.8.4-.2-.1-.5-.2-.5-.4 1.4-4 2.2-8.2 3.2-12.3 1.2-5.2 2.1-10.4 2.9-15.7 2.2-15 2.8-29 1.3-43.8-1.6-15.3-5.5-31.4-9.3-46.3-4.6.2-9.3-2.2-11.7-6.2 1.2 3.2 2 7 3 10.3 1.2 3.7 2.1 7.5 2.8 11.3.5 2.9 1.5 5.6 2.1 8.5.8 3.6.4 7.2 1.1 10.7.3 1.6.6 3.2.8 4.8.2 2.1.1 3.9.6 5.9.6 2.2.8 4.2.8 6.5 0 10.4-.6 20.9-1.1 31.3-.3 6-2.4 11.8-3.6 17.7-.4 2.2-.6 4.7-1.4 6.8-1 2.4-2.4 1.7-4.8 1.5-.4 0-.8-.1-1.1.2-.2.2-.3.5-.4.8-.9 3.1-1.8 6.1-2.6 9.2-.4 1.3 10.2 4 11.3 4.2 3.8.6 7.5 1.2 11.4 1.3 7.8.1 15.8-1.5 22.5-5.8-1.8-.9-3.6-1.5-5.5-2.2z"/><path class="st2" d="M111.4 102.2c-.6-1.5-1.3-3-1.9-4.5-2.4-5.5-5.1-10.9-8.1-16.1-3.1-5.3-6.5-10.5-9.7-15.8-1.4-2.3-2.8-4.6-4.1-7-.3-.5-3.7-6.4-3.6-6.5.9-.8 2-1.3 3-1.9 1.2 1.6 2.1 3.4 3.1 5 1.9 3 3.7 6 5.5 9 3.6 5.9 7.1 11.9 10.6 17.8 6.3 10.7 12.4 21.2 15.5 33.3-1.7 1.1-4.4 1.3-5.3-.8-.5-1.3-1.1-2.7-1.6-4-1.1-2.8-2.2-5.7-3.4-8.5z"/><path class="st3" d="M98 303c-.2-.3-.5-.6-.7-.9-1.9-2.2-4.5-3.7-7.3-4.2-3.6-.7-6.4.6-8.8 3.3-1.9 2.2-2.1 4.1-2.6 6.8-.1.7.3 1.4.9 1.8 2.6 1.8 7 1.5 9.9 1.2 1.5-.1 3.1-.4 4.6-.7 9.6-1.8 20.5-7.6 28.7-11.8 2.2-1.1-.6-4-1.9-5.8-.4-.6-1.4-1.2-2.1-1.4s-2 1.7-2.4 2.3c-.2.3-.3.6-.4.9-.6 1.3-2.2 2-3.5 1.4-.8-.4-1.3-1.4-1.4-2.3-.1-.7-.1-3.1.8-3.4-2.2.8-4.7.1-7 .5.8.3 1.5.7 2.2 1.2 1.5 1.1 3.2 3.9 2.6 5.8-.3 1-1.5 1.8-2.5 1.4-.3 1-1.2 1.7-2.2 1.8-1 .1-2-.2-2.9-.7.1 1.2-.1 2.5-.9 3.3-1.4 1.5-2.3.5-3.1-.5zm57-5.7c-.1-.1-.3-.1-.5-.1-.3 0-.5.2-.8.3-.7.4-1.5.7-2.2.7-.8 0-1.6-.3-2.1-.9-.4-.6-.5-1.3-.5-2 0-1.1.3-2.2.7-3.2-1.3.1-2.7.4-4 .4-.9 0-1.9-.3-2.6.6-.4.5-.6 1.1-1.1 1.5-.9.7-2.3.3-3.2-.4-1-.8-1.8-2.1-1.5-3.3-.1.3-2.1 1.2-2.5 1.5-.8.6-1.6 1.4-2.2 2.1-1.4 1.7-1.4 3-1.5 5.3 17.5 1.2 35.2 3.6 53.3 5 .3 0 .7 0 1-.1 2.4-1 .6-7.2.1-8.7-.7-2.1-2.1-4.1-4-5.3-.9-.6-2-.9-3.1-1.3-1.4-.4-2.9-.8-4.4-.7-2.4.2-4.4 2.2-5.7 4.1-.7 1-1.1 2.2-1.7 3.2-.6 1.1-1.5 2-2.7 2.4-1.2.4-2.7-.2-3-1.3-.6.6-1.3 1.3-2.2 1.6-.8.3-1.9.3-2.6-.3-.2-.2-.5-.8-1-1.1z"/><path class="st2" d="M112.6 121.4c.5.1 1.1.1 1.7.1 1.4-.1 2.8-.4 4.2-.7 2.7-.7 5.3-1.8 7.6-3.3 1.6-1.1 3-2.7 4.1-4.3.9 2.2 1.8 4.3 2.7 6.4.5 1.2 1.1 2.6 1.8 3.7.8 1.3 2.1 2 2.4-.2.2-1.1 0-2.3-.4-3.3 1.9 1.7 2.7 4.5 2 6.9-.8 2.6-2.6 3.5-4.8 4.7-2.1 1.2-4.1 2.3-6.3 3.3-3.6 1.6-7.6 2.4-11.5 2.1-2.4-.2-3-4.7-3.5-6.5-.4-1.1-.5-2.3-.9-3.4-.4-1.2-.8-2.3-1.2-3.5-.3-.8-.6-1.7-.7-2.6-.1-.9.1-1.8.7-2.5.2-.2.4-.4.7-.3-.3.6-.3 1.4 0 2.1.2.8.7 1.1 1.4 1.3z"/><path class="st0" d="M169.8 203.3c.7.6 1.4 1.1 2.2 1.6-.8.6-1.4 1.3-2 2.1 0-1.2-.1-2.4-.2-3.7z"/><path class="st4" d="M201.5 229.4c-.8 1.1-1.7 2.3-2.5 3.4l-.3.3c-.1 0-.2 0-.3-.1-.8-.3-8-4.3-7.5-5.1.4-.6 2-3.2 2.7-3.5 1.1-.4 2.9 1.1 3.7 1.7 1.5 1 3.1 1.8 4.2 3.3zm-28.2-16.3c-.4 0-.8 2.3-.9 2.5-.2.8-.5 1.5-.5 2.4 0 .7.2 1.4.1 2.1 0 .7-.4 1.4-1 1.6-.3.1-.5.1-.8 0-.2 0-.4-.1-.6-.2-.1-.1-.1-.2-.2-.4-.3-1.1-.3-2.3-.2-3.4.2-2.3.5-4.6 1.6-6.7.3-.6.7-1.1 1.1-1.7 1.5-1.8 3.7-3.1 5.9-4 .2-.1.3-.1.5-.1s.4.2.6.4c.5.4.9.9 1.4 1.3-.2-.2-1.9.9-2.2 1.1-.7.4-1.4.9-2 1.5-1.1.9-2.1 2.2-2.8 3.6z"/><path class="st4" d="M204.4 222.4c-.3.6-.6 1.3-.9 2-.2-.5-.9-.4-1.4-.6-1.3-.7-2.9-.8-4.4-1.2-.3-.1-2.9-1-3.1-.6.3-.5.5-.9.7-1.4.3-.8-.1-2.1-1-1.1-.2.3-.3.6-.5.9-.7 1.8-1.7 3.4-2.9 4.9-.6.7-1.3 1.4-2.1 2.1-.6.5-1.3.9-1.8 1.5-.2.2-.6.2-.4.6.2.2 1.4.2 1.8.4.7.3 1.3 1.1 1.8 1.6 1.1 1.1 2.1 2.2 3.1 3.4.3.4.6.8.6 1.3 0 .3-.2.6-.4.9-.6.8-1.1 1.5-1.7 2.3l-.3.3c-.3.2-.7.1-1 0-.3-.2-.5-.4-.8-.7-1.7-1.6-4-2-5.4-3.9-1.4-1.9-2.9-3.3-4.5-5-1.6-1.6-3.2-3.4-4.4-5.2-1.2-1.8-1.9-3.7-1.8-5.6.1-1.7.7-3.4 1.7-5 1.2-2.1 2.8-3.9 4.9-4.7 1.4-.6 3.2-.8 5.1-1.1 2.2-.4 4.8-1.2 6.6-2.7.9-.7 1.1-1.6 1.6-2.7 1.1-.1 2.2.2 2.9 1.1 1.7 1.9-1.2 4.9-2.6 6.2-1.9 1.8-4.4 2.9-7.1 2.9-.4 0-1-.2-1.2.1-.2.3 0 .8 0 1.1 0 .3.1.6 0 .9 0 1-.3 1.9-.8 2.8-.5.9-1.2 1.6-2.1 2.2-.7.5 1.1.8 1.4.8.9 0 1.8-.3 2.5-.8 1.1-.8 1.8-2 2.3-3.2.1-.3.2-.6.4-.8.2-.2.4-.3.6-.4 1.5-.7 3.2-1.4 4.8-1 1.2.3 2.1.7 3.2 1.2 2.7 1.3 4.9 3 7.2 4.7 0 .5-.3 1-.6 1.5z"/><path class="st0" d="M154.8 184.8c-.2.4-.4.9-.5 1.3-.1.3-.3.6-.5.8-.2.2-.5.3-.8.4-4.8 1.7-9.7 2.9-14.7 3.8-.2 0-.5.1-.7 0-.4-.1-.7-.6-1-.8-.4-.4-.8-.7-1.2-1-.4-.4-.9-.7-1.3-1-.3-.2-.9-.8-1.2-.9 1.2.2 2.4.3 3.5.3 6.9.2 13.8-1.5 19.7-4.9-.3.5-.7 1-1 1.5-.1.1-.2.3-.3.5z"/><path class="st5" d="M109 197.6zm14.8-67.5c.2.6.3 1.4.8 1.8.4.4.9.2 1-.3v-.5c0-.5-.2-1.1-.2-1.6-.2-1.3-.7-2.5-1.1-3.7-.3-1-.6-2.1-1.5-2.6l-.3-.1-.4.3v.6c.5 2 1.2 4 1.7 6.1zM97.2 289.9zm22.6-157.3c.1.3.1.5.3.7.2.2.5.3.7.2.8-.3.2-2 .1-2.6-.2-1.1-.5-2.1-.8-3.1-.3-1.1-.7-2.2-1.3-3.1l-.3-.3h-.5c-.2.1-.2.4-.1.6.6 2.5 1.2 5 1.9 7.6zm-4.5-1.8c.2.7.4 1.5.7 2.2v.1c.2.5 1 1 1.4.4.2-.4-.1-1.3-.1-1.7-.1-1.5-.6-2.9-1.1-4.2-.4-1.3-.9-2.5-1.7-3.7-.1-.2-.4-.5-.7-.4l-.2.5c0 1.1.4 2.2.7 3.2.4 1.2.7 2.4 1 3.6zm12.2-3.8c.1.3.4.6.6.5l.1-.5c-.1-.7-.2-1.4-.3-2-.2-1.1-.5-2.1-1.2-3l-.5-.3c-.9-.1-.2 1.6-.1 2 .4 1.1 1 2.2 1.4 3.3zm81.4 94.3c.2-.4.3-.8.5-1.2 0-.1.1-.3 0-.4 0-.1-.1-.2-.2-.2-4.3-2.9-8.9-5.8-13.8-7.7l-.4-.2c1.1-.9 2.1-2 2.9-3.3 1.1-1.8 2-3.7 1.4-5.8-.2-.8-.8-1.4-1.5-1.9-1.8-1.2-4.2-1.3-6.3-1.5h-.2c-.1 0-.1.1-.1.2-.6 1.7-.9 2.7-2.2 4-1 1-2.4 1.4-4.1 1.7-.5.1-1 .3-1.4 0-.4-.2-.7-.6-1-.9-.8-.7-1.6-1.3-2.4-1.9-.2-.1-.3-.2-.5-.3-.2-.1-.5 0-.7 0-1 .2-1.9.4-2.8.8-.7.3-1.4.9-2.2.4-.8-.4-1.6-.9-2.3-1.5-.3-.3-.6-.6-.9-1-.2-.3-.6-.6-.7-.9-.4-.9-.4-1.8-.4-2.8-.4-4.9-.9-9.7-1.6-14.5-.3-2.4-.7-4.8-1.2-7.2-.2-1.2-.4-2.4-.7-3.6-.2-1.2-.5-2.3-.7-3.5 1.9-.7 3.5-2 5.1-3 .9-.6 1.8-1.2 2.2-2.1.3-.7.3-1.4.3-2.2 0-4.4-.3-8.6-1.1-12.9-.5-2.7-.4-5.2-1.2-7.9-.3-1.5-1.7-2-3-2.6-1.5-.7-3.1-1.3-4.7-1.9-1.2-.4-2.4-.8-3.6-1.1-.3-.1-2.8-.5-2.9-.8-.4-1.3-.7-2.5-1.1-3.8-.1 0-1.8-5.1-1.9-5.6-.8-2.2-2-4.5-2.8-6.7-2.4.2-4.2.4-6.6.5-1.2.1-2.5.3-3.7.3-.7 0-1.8.2-2.6.2-.6-1.8-2-3.7-3-5.4-.3-.4-3.1-5.8-3.4-5.7-.5.2-5.2 1.4-6.5 1.6l-.1-.2c-3.7-8.8-7.9-17.5-12.7-25.8-1-1.8-2.1-3.6-3.2-5.4-.5-.9-8.8-14.3-9.4-15.2-3.5-5.9-7.2-11.7-11.2-17.3-2.3 1.5-4.8 2.8-7 4.3.6 1.1 1.1 2.2 1.7 3.3 1.2 2.2 2.3 3.8 3.3 5.7 1.7 3.2 11.4 18.7 13.1 21.8 6.1 10.6 10.9 21.8 15.3 33.2.1.2-3 2.2-3.2 2.4-1.4 1-2.7 2.1-4 3.2.1 1 .5 1.9.8 2.8.3 1 .5 2.1.8 3.1.1.6 1.5 4.9 1.3 5.1-3 2.7-5.8 5.7-8.9 8.3.8 2.8 1.6 5.7 2.2 8.6.3 1.3.5 2.5.9 3.7.1.5.6 3.5 1 3.7-.8-.3-9.1-1.8-10.3-1.1-.7.4-1.1 1-1.6 1.6l-3.9 5.1c3.1 0 6.1 0 9.2.3 3 .3 5.8.8 8.7 1.6 1.1 3.8 2.1 7.6 2.9 11.4 1.6 8.1 2.3 16.4 3 24.7.9 11.3.7 22.9-.7 34.2-1.1 8.2-2.2 16.7-4.3 24.7-.2.9-5.3.9-6.1.9-.4 1.1-1 3.3-1.3 4.2-.8 2.5-1.5 4.4-2.5 8 .1-.3 4 1.6 4.2 1.7 1.7.7 3.5 1.3 5.3 1.8.6.2 8.4 1.9 8.4 1.8-.7 2.3-1.4 4.9-2.3 7.5-.7 2.3-1.5 4.5-2.4 6.3v-.1c-.6-.1-1.1-.1-1.7-.1-2.7-.1-5.4.2-8 .5-.2 0-.5-.3-.8-.4-.3-.1-.7-.2-1-.3-.7-.1-1.3.1-1.9.4-.7.3-.6 1-1.3 1.2-.6.2-1.3.2-1.9.3-1.7-.5-3.5-.7-4.8.8l-.3.6c-.2.2-.7.2-.9.3-.6.2-1.3.4-1.9.7h-.1c-1.4-.1-3.1.1-4.1 1.2-.3.3-.3.6-.5 1-.1.3 0 .3-.4.6-.6.4-1.2.9-1.8 1.4-1.1 1-2.1 2-3 3.2-1.4 2-2 4.2-2.3 6.5-.1.7-.3 1.9-.4 3.1 0 .6 0 1.3.2 2s.6 1.3 1.2 1.8c.9.7 1.9.9 2.7 1.1 2.1.5 4.3.7 6.5.8 5.9.2 11.9-.9 17.4-2.8 7.6-2.6 14.5-6.5 21.2-10.5l.5-.3.1-.6c0-.4.1-.9.1-1.3 0-1.3 0-2.7-.3-4-.2-1.3-.6-2.7-1.5-3.9-.7-.9-1.7-1.6-2.8-1.9 1.8-4.5 3.5-9.6 4.4-13.8 2.2.2 4.3.4 6.5.5 3.7.1 7.4 0 11.1-.3-.5 3.3-2.1 7.9-3.6 11-3 .5-5.6 2-7.5 4.2-2.1 2.3-3.4 5.3-3.5 8.3 0 .8 0 1.5.2 2.3l.2.9.9.1c9.7 1.1 19.3 2.1 29 3.1 6.1.6 12.1 1.3 18.2 2 3 .3 6 .6 9 .8 1.7.1 1.9-.2 2.4-1.7.5-1.6.9-3.2.9-4.9.2-5.4-2-10.6-6.8-13.6-1.7-1.1-4-1.7-6.5-2.2-.8-.2-1.8-.2-2.6-.3 0-.3-.1-.6-.1-.8 0-.1-.1-.2-.2-.3-.1-.1-.3-.1-.4-.2-.6-.1-1.2.2-1.7.5-.5.4-.9.3-1.6.3-.7 0-1.4 0-2.1-.1.1-.3-.1-.7-.4-.8-.3-.2-.7-.2-1-.1-.9.2-1.4.6-2 1.2-.2.2-1.2.1-1.5.2-.5.1-1.1.1-1.6.2.3-.3-.4-.9-.8-1-.2-.1-.4-.1-.7 0-.7.1-1.4.3-2 .7-.3.2-1 1.1-1.4 1.2-2.9.6-5.7 1.2-8.5 1.6 1.6-4.4 3.2-9.6 4-13.8 0-.2 3.4-.8 3.8-.9 1.4-.4 2.8-.7 4.2-1.1 2.7-.8 5.4-1.7 8-2.7.2-.1.4-.2.6-.4.1-.2.2-.4.2-.6.9-4.1 1.9-8.6 2.3-12.7-1.1 0-2.7.4-3.7.2.5-2.2 1.3-4.4 1.8-6.7s1-4.6 1.3-6.9c.7-4.5 1.1-9 1.3-13.6.1-2.7.1-4.6.1-7.3.6-.1 1.2-.3 1.8-.4.4 1 .9 2 1.4 3 1.3 2.1 3 4 4.7 5.7 1.8 1.9 3.8 3.9 6 5.5 2.4 1.7 6 4.1 8.7 5.4.2.1.4.2.6.1.1 0 .2-.1.3-.2 1.7-1.8 3.1-3.3 4.7-5.1.1-.1.1-.1.1-.2s-.1-.2-.1-.2c-.8-.8-2.4-2.8-3.1-3.7 1.4 1 3 1.7 4.6 2.5.4.2.8.6 1.3.6 1.7-2.3 3.5-4.8 5.2-7.1-.1.1-3.5-2.9-3.8-3.3 1.5.3 3.1.5 4.4.9.4-1.6 1.1-3.3 1.8-5zm-46-80.1l.6-.2c1-.6 2-1.3 2.9-2.1.3.2.7.3 1 .5-2.6 1.7-5.3 3.6-8.2 4.8-.3-1.4-.7-2.9-1.1-4.3m-56.7-60.7c-1.4-2.4-10.6-17.2-12-19.6-1.2-2.1-2.4-4-3.6-6.3-.2-.4-.4-.7-.6-1.1l-.7-1.5v-.2l.1-.1 3-1.8c.5.6.8 1.3 1.3 1.9 3.5 5.2 14.6 23 17.8 28.4 1.1 1.8 2.1 3.6 3.1 5.4 4.7 8.3 8.9 16.8 12.5 25.6.3.7.5 1.4.4 2.1 0 .4-.1.7-.2 1-.4 1-1.5 1.7-2.8 2.1-.4.1-.8.2-1.1.2-.4 0-.6-.1-.7-.2-.1-.1-.2-.4-.4-.8-4.6-12-9.7-23.8-16.1-35.1zm8.8 40.9c.2-.1 1-.8 1.9-1.5 1.5-1.3 3.3-2.8 3.4-2.7.1.3.3.6.6.9.7.7 1.6.9 2.3.9.7 0 1.4-.1 2-.3 1.7-.5 3.5-1.6 4.3-3.5.2-.6.4-1.2.4-1.8v-.5c1.7-.3 3.3-1 5.1-1.3 1 1.5 2 3.1 3 4.6.7 1 1.1 2.4 1.7 3.6.7 1.4 1.4 2.7 2 4.1.3.7.7 1.4 1 2.1l.1.1-.1.1c-1.4 2.5-3.3 4.7-5.6 6.3-2 1.4-4.4 2.5-6.9 3.3-2.6.9-5.4 1.7-8 1.6-.8 0-1.6-.1-2.3-.3-.4-.1-.7-.2-.7-.3 0 0-.2-.3-.3-.6l-1.4-4.4c-1-3.5-1.5-7-2.5-10.4zm-4 28.4c-.4-1.4-.8-2.9-1.2-4.3-.2-.9-.4-1.6-.7-2.6-.2-.8-.4-1.6-.6-2.3 1-.9 2.7-2.4 3.1-2.7 1.4-1.2 2.7-2.6 4.1-3.8l.9 2.8c.1.4.3.9.8 1.5.6.7 1.4.9 1.9 1 .9.2 1.9.4 2.9.4 3.1.1 6.1-.7 8.9-1.7 2.6-.9 5.2-2 7.5-3.6 2.6-1.9 4.7-4.3 6.3-7.1.1-.2.3-.6.4-1.2 0-.6-.2-1-.3-1.2-.3-.7-.7-1.4-1-2.1-.1-.2-.2-.5-.4-.7.1.2 3.8-.4 4.2-.4 1.7-.1 3.4-.2 5.1-.2.1 0 .3 0 .4.1l.3.3c2 3.1 3.2 6.4 4.2 9.9 1.4 4.9 2.8 9.7 4.2 14.6-5.5 3.2-11.3 5.9-17.3 8.2-5.2 2-10.4 3.6-15.8 5-1.3.4-2.6.8-3.7.9h-.7c-.9 0-1.9-.4-3.2-.8l-8.1-2.4c-.8-2.6-1.5-5.1-2.2-7.6zm14.4 145.1c.6.7.9 1.8 1.1 2.9.2 1.2.3 2.3.2 3.5v.6c-6.5 3.9-13.1 7.6-20.2 10-5.3 1.8-11 2.9-16.5 2.7-2-.1-4-.3-6-.8-.7-.2-1.4-.4-1.7-.6-.1-.1-.2-.3-.3-.6-.1-.3-.1-.8-.1-1.3 0-.9.2-2 .3-2.9.2-2 .8-3.8 1.9-5.4.9-1.3 1.9-2.4 3.2-3.3.6-.5 1.3-1 2-1.4l.8-.4c.1-.1.1-.2.1-.3-.1-.1-.2-.1-.3-.1h-1.4c-.1 0-.2 0-.2-.1-.1-.1 0-.3.1-.4.4-.4 1.3-.4 1.9-.5.8-.1 1.5 0 2.2.2 1.2.3 2.3.3 3.5.8 1.5.6 2.9 1.5 4.2 2.5.6.5 1.3 1.1 1.8 1.7.5.5.9 1.4 1.7 1.5.4.1.9-.1 1.2-.3.1-.1.2-.2.2-.3.5-1.3-2.3-3.4-3.1-4.1-1.5-1.3-3.2-2.3-5.1-3-.1 0-.2-.1-.3-.1 1.1-.3 2.1-.6 3.2-.8 2 .7 3.8 1.7 5.3 3.1.8.7 1.5 1.4 2.1 2.2.5.6 1.3 1.4 2.2.8.2-.1.4-.3.4-.5s0-.4-.1-.6c-.4-1.2-1.5-2.3-2.4-3.1-1.1-1-2.3-1.9-3.6-2.7.9-.2 1.7-.3 2.6-.5.5.3 1 .6 1.4 1 1 .9 2 1.8 2.9 2.9.3.3.4.7.7 1.1.2.3.6.6 1 .7.4.1.9 0 1.1-.4.3-.5 0-1-.3-1.5-1-1.5-2.2-3.1-3.6-4.3 1.7-.2 3.5-.3 5.2-.2h.6c-.3.6-.5 1.2-.5 1.9 0 1.2.4 2.4 1.5 3.3.7.6 1.6.8 2.4.9 1.2 0 2.2-.4 3.1-1.2 1-1 1.4-2.4 1.9-3.6.6 0 1.3.4 1.7 1zm-22.7 6.5l.6.3-.6-.3zm17.5-5.7c-.3.4-.9.6-1.5.6-.4 0-.7-.1-1-.3-.4-.4-.6-.8-.6-1.4 0-.4.1-.7.3-1.1 1.5-2.3 2.7-5.5 3.7-8.6.9-2.8 1.7-5.5 2.4-7.8 1 .2 2 .4 3 .5-1.2 5.5-3.9 13-6.3 18.1zm37.2-3.9c-.5.7-.9 1.8-1.1 2.1-.3.7-.5 1.4-.7 2.2 0 .1-.1.3 0 .4 0 .1.1.2.2.3.3.4.9.5 1.3.4 1.1-.3 1.3-2 1.7-2.8.3-.6.6-1.2 1-1.7.2-.3.8-1.4 1.1-1.5 1.4-.3 2.7-.5 4.1-.7-.1.2-.3.4-.4.6-.8 1.2-1.5 2.5-2 3.9-.2.5-.4 1-.3 1.5.1.5.5 1 1 1 .2 0 .4-.1.5-.1.2-.1.3-.2.5-.4s.3-.4.4-.7c.6-1.4 1.2-2.8 2-4 .5-.8 1.1-1.6 1.8-2.2 1.1-.1 2.2-.1 3.3-.1-.3 0-1.2 1.4-1.3 1.6l-1.2 1.8c-.6 1.1-1.6 2.6-1.5 3.9 0 .2.1.5.3.7.4.4 1 .3 1.4 0 .4-.3.6-.8.9-1.2.6-1.3 1.1-2.4 2-3.6.4-.6.8-1.1 1.3-1.6.5-.6 1.1-1.2 1.7-1.7.5-.4 1.2-1.1 1.9-1h.1s.1.1.1.2c0 .2-.1.3-.2.5-.1.1-.3.3-.3.4-.2.6 1.9.7 2.4.8 2.3.4 4.5 1.1 5.6 1.8 1.7 1.1 3.1 2.4 4.1 4.2 1.2 2.3 1.7 4.8 1.6 7.4-.1 1.8 0 4-2.1 4.1-1.5.1-3.2-.3-4.7-.4-2.4-.2-4.8-.5-7.2-.8-4.6-.5-9.3-1.1-13.9-1.5-9.3-.9-18.7-1.9-28-3 0-.3-.1-.6-.1-.9.1-2.4 1.2-4.9 2.9-6.9 1.2-1.4 2.8-2.4 4.5-3-.2.4-.3.9-.4 1.3-.1.3-.2.7-.2 1.1 0 .4 0 .9.3 1.3.4.8 1.1 1.2 1.7 1.5.5.2 1.1.3 1.7.4.8 0 1.6-.1 2.4-.5 1.5-.8 2.3-2.2 2.9-3.7h.2c1.9-.4 4.3-.9 6.7-1.4zm-5.5-12.3c-.2.8-.4 1.6-.6 2.3l-1.5 4.8c-.5 1.5-1 3-1.6 4.5-.2.7-.5 1.5-.8 2.1-.3.6-.7 1.2-1.4 1.5-.3.2-.8.3-1.2.3-.9 0-1.5-.4-1.2-1.3.2-.8.5-1.6.9-2.4 1.9-3.5 4-9.3 4.5-13.5 1.2-.1 2.3-.3 3.4-.5 0 0-.4 2-.5 2.2zm18.9-14.5c-.3 1.5-.6 2.9-1 4.3-.1.2-.1.5-.3.7-.2.2-.4.3-.6.3-10.5 4.2-22 6.1-33.3 5.7-8.3-.3-16.1-2-23.9-4.4-1.8-.6-3.5-1-5.4-1.7.8-2.1 1.3-3.9 2.1-6.1.3-.8.6-1.7.9-2.5.3 0 2.9.1 2.9-.1 0 .4-.2 1.2-.4 1.6-.3.8-.5 1.6-.8 2.3 0 .1-.1.2 0 .2l.1.1c1.3 1 2.4 2 3.8 2.7 1.4.8 2.9 1.4 4.5 2 3.1 1.1 6.3 1.7 9.6 1.8 3.9.1 7.8-.4 11.5-1.7 1.6-.6 2.6-1.1 3-1.3 1.1.1 3 .8 4.5 1.1 2.3.5 4.8 1 7.1 1.1 1.9.1 3.6-.3 5.5-.6s3.8-1 5.6-1.9c.2-.1.4-.2.6-.4.2-.2.3-.5.4-.7.7-1.9 1.4-3.8 2-5.7.4-1.2 1.4-.9 2.4-1-.2 1.4-.5 2.8-.8 4.2zM145.2 228c.2-4.4.3-8.4.2-13.3 0-1.5-.2-4.3-1-6.1-.9 18.1-2.8 35.9-7 53.6-.4 1.7-.5 2.8-1.4 3.7-.7.6-2 1.1-3.2 1.5-2.7.7-5.6 1-8.4.9-5.3-.2-10.6-1.8-14.9-4.6l-.3-.2-.1-.1c0-.1 0-.3.1-.6.8-2.7 1.5-5.4 2.1-8.2.8-3.4 1.4-6.8 2-10.2.6-3.3.9-6.7 1.7-9.9 4.8.6 9.7 1.2 14.5.3 1.2-.2 2.5-.6 3.4-1.4 1.2-1 1.7-2.8 1.3-4.3.1.6-1.3 1.9-1.7 2.2-.7.6-1.6 1-2.6 1.2-3.2.5-6.6.2-9.5-1.4-7.2-4.1-4.6-12.8-4.6-19.6 0-8.8-.6-17.7-1.7-26.4-.9-7.5-2.1-15-4.2-22.2.1.3 3.2 1.2 3.6 1.3 1.4.6 2.2.8 2.7 2.2 1.2 3.3 2.3 6.6 3.5 9.9.4 1.1.9 2.4 1.9 3 1.2.8 2.7.6 4.1.4 3.7-.6 7.4-1.4 11-2.3 1.8-.5 3.6-1 5.4-1.6 1.2-.4 2.7-.9 3.2-2.1.4-.8.4-1.8.3-2.7-.1-2.1-.1-4.2-.2-6.3l-.1-3.3c0-.5-.3-1.9 0-2.3l.2-.1c.7-.4 1.5-.8 2.3-1.1 0 0 2.2 5.4 2.4 5.9 1 2 1.9 3.9 3.1 5.8.3.5.7 1 1.2 1.3 1 .6 2.4.3 3.5 0 1.6-.4 3.1-1.1 4.6-1.7 2.7 13.3 4.3 26.8 4.7 40.4.1 3.9.2 7.7.2 11.6 0 1.9 0 3.9-.1 5.8 0 1.6-.1 3.1-1.6 4-.8.5-1.6.7-2.5.9l-2.7.6c-2.4.6-5 1.1-7.4.8.9 1 2.3 1.2 3.7 1.3 2.3.1 4.7.2 7-.1 1.1-.1 1.9-.3 3.3-.4-.1 2.6-.6 5.3-.9 7.9-.3 2.6-.8 5.2-1.4 7.7-.6 2.6-1.4 5.2-2.2 7.7l-1.2 3.9c-.1.4-1 3.4-1.2 3.4-.1.3-.2.6-.5.8-.2.1-.3.2-.5.3-1 .4-2.1.8-3.1 1.1-1.9.6-4 .8-6 .7-2.1-.1-4.4-.5-6.5-.9-1.3-.3-2.6-.6-4.2-1 1.4-6.5 2.8-12.9 3.7-19.5 1.2-6.7 1.7-11.5 2-18.2zm24.6-24.7c.7.6 1.4 1.1 2.2 1.6-.8.6-1.4 1.3-2 2.1-.1-1.2-.2-2.4-.2-3.7zm3.4 8.9c-1 1.8-1.9 3.9-2 6.2 0 .6.1 1.1.1 1.7-.3.1-.6.2-1 .3h-.1c-.1 0-.1-.1-.1-.1-.1-1.1 0-2.2 0-3.3v-4.9c0-.7.3-1.3.6-2 .3-.6.7-1.2 1.1-1.7 1.6-1.9 4-3.3 6.2-4.3.1 0 .2-.1.4-.1.1 0 .2.1.3.1.8.5 1.5.9 2.1 1.6-.4.2-1.3.6-1.7.6-2.7 1.2-4.6 3.6-5.9 5.9zm29.3 18c-.6.9-1.3 1.9-2.1 2.7 0 .1-.1.1-.1.1h-.2c-1.7-.7-3.4-1.6-5-2.5-.9-.5-1.7-1-2.6-1.5-.6-.3-1-.7-1.5-1.1.6-.9 1.4-1.7 2.1-2.5.3-.4.7-.8 1-1.3.5.2 1.1.3 1.6.5 1.4.5 2.9 1 4.1 1.8 1.2.8 2.3 1.6 3.6 2.7-.5.3-.7.7-.9 1.1zm3.1-7.7c-.2.5-.3 1-.5 1.5-1.9-.4-3.8-.7-5.7-1.2-1.4-.3-2.8-.7-4.1-1.2.1-.3.4-.5.5-.9.1-.4.1-.8 0-1.2-.1-.5-.3-1.1-.8-1.2-.3-.1-.7.1-.9.4-.2.3-.3.6-.5.9-.7 1.8-1.7 3.5-2.9 5.1-.6.8-1.3 1.5-2 2.2-.7.6-1.4 1.2-2.2 1.8-.3.2-.5.5-.5.8 0 .2.2.4.4.5.2.1.5.1.7.1.5 0 .9-.2 1.3-.4.4-.3.6-.2 1 .1.9.7 1.8 1.2 2.6 2 1.2 1.4 2.3 2.8 3.5 4.2-.9 1.2-1.9 2.3-2.9 3.3-2.4-1.5-4.8-2.9-7.1-4.5-2-1.4-3.9-3.3-5.7-5.2-1.6-1.7-3.2-3.5-4.4-5.3-1.2-1.9-1.9-3.8-1.8-5.8.1-1.7.7-3.5 1.7-5.1 1.2-2.1 2.8-4 4.8-4.9 1.4-.6 3.2-.8 5.1-1.2 1.8-.3 3.8-.8 5.4-2.4 1-1 1.9-2 2.2-3.5 0-.1 2.5.4 2.8.5 1.9.9 1.4 2.3.8 3.9-.5 1.2-1.3 2.4-2.3 3.3-2 1.9-4.7 3.1-7.5 3.2-.4 0-1-.2-1.2.2-.2.3 0 .8 0 1.1 0 .3.1.6 0 1 0 1-.3 2-.8 2.9-.5 1-1.2 1.6-2.1 2.2l-.2.3.2.2c.5.2 1 0 1.5-.1 1.1-.4 2-1 2.7-1.9.4-.5.7-1.2.8-1.8.1-.5.4-1.4.2-1.9 1-.2 2-.5 3-.8l.9-.3c.8-.1 1.7.2 2.5.5 2.2.9 4.3 1.9 6.3 3.2 1.7 1.1 3.1 1.8 5.4 3.1.1 0 .2 0 .3.1.1.1.1.3 0 .5-.1.5-.3 1.1-.5 1.7zM140 126z"/><path class="st0" d="M129.3 173.3c.6-4.7 2.5-9.1 3-13.8 0 .2-1.5.3-1.7.5-.5.4-.3.3-.5.9-.4 1.2-.3 2.8-.4 4.1-.2 2.7-.3 5.5-.4 8.3zm28.7-2.5c3.6-1.1 7.1-2.7 10.4-4.6 1.1-.7 2.4-1.2 3.4-2.1 1-1 1-2.6.9-3.9-.3-6.8-1.3-13.5-2.2-20.2 1 3.3 1.7 6.1 2.2 9.2.4 2.4.8 4.8 1.1 7.2.4 2.3.9 5.1-.2 7.2-1 1.9-3.5 2.9-5.2 4-2.4 1.5-4.9 2.8-7.4 3.9-.5.2-1 .4-1.5.4s-1.1-.1-1.5-.3m4.6-30.7c-.2.1-.3.2-.5.3-1.4.9-2.8 1.7-4.2 2.6-1.3.8-2.8 1.8-4.2 2.3-1.4.4-2.7 1.2-3.9 2.1-2 1.5-5 2.8-7.5 3.4 4.4-1 8.8-3 12.8-4.9 2.2-1 4.3-2.1 6.3-3.3 2.1-1.2 3.9-2.7 5.9-4-.4-.3-.8-.5-1.2-.8-.1-.1-1.8 1.2-2 1.3-.4.3-.9.7-1.5 1zm-57 20.6c2.8.6 5.5 1.6 8.2 2.5.5.2 1 .3 1.4.6 1.1.8 1.6 2.2 1.9 3.5-.7-.4-1.1-.6-1.8-1-2.4-1.3-4.2-2.2-6.3-3.2-2.7-1.3-5.2-2.4-8.1-3.1m11.5-3.5c2.2.6 4.7 1.6 7 1.9-.3-1.2-1.7-1.7-2.9-2-6-1.7-11.7-3.1-17.8-3.9 1.1.3 2.2.6 3.2.9 1.3.3 2.6.7 3.9 1.1 2.5.6 3.3 1.1 6.6 2zm21.7 10.5c.7-3.2 1.5-6.5 2.5-9.6-.8.6-1 .5-1.3 1.3-.3.8-.3 2-.5 2.9-.3 1.7-.3 3.6-.7 5.4zm26.8-10.1c1.3-2.3 1.3-5 2-7.4.4-1.4 1.1-2.7 1.1-4.2-.8.6-1.4.8-1.7 1.6-.4 1-.3 2.4-.5 3.4-.2 1.1-.3 2.3-.5 3.4 0 .9 0 2.4-.4 3.2zm4.4-6.2c.9-2.3 1.8-4.8 2.1-7.2-2.7.7-1.4 5.3-2.1 7.2z"/><path class="st1" d="M133.5 139.8c-1.6 2.1-3 3.4-4 4.1-2.1 1.4-4 2.2-5.9 2.8-4.2 1.3-9.4 1.2-13.3-1.3-2.1-1.4-4.1-2.7-4.9-5.1-.1-.2-.1-.4-.1-.7 0-.3.2-.5.4-.7 1.8-2.1 3.9-3.9 6.1-5.5.8.9 1.9 2.9 2.9 3.4 2 1.1 6.5.1 8.5-.6 1.6-.5 3.1-1.3 4.5-2.1 1.9-1 3.6-2.1 5.4-3.4 1.5-1.1 3-2.3 4.4-3.6 1.5-1.3 1.6-3.6.4-5.1 2.8-.5 5.6-.7 8.4-.6.2 0 .5 0 .7.1.2.1.4.3.5.5 1.8 2.4 3.2 6.2 2.2 8.9-.9 2.4-3.1 3.9-5.4 4.9-.9.4-2.8.8-5 .9.1 2.3.5 4.7.8 6.9.3 2 .6 4.8 1 7.1-.4-.7-7.2-11.3-7.6-10.9zm6 122.4c-.1.7-.3 1.4-.5 2-.6 2.7 5.4 2.9 7 3.8 2.8-9.7 4.1-20.3 4.1-30.4 0-9.3-1.8-19.2-5.4-27.6-.6 17.6-1.5 35.1-5.2 52.2zm-28.5 32v.3c.2 1.1 1.5 1.8 2.7 1.7 1.2-.1 2.2-.9 2.9-1.8 2.3-2.1 2.2-5.8 3.7-8.4.5-.9.8-1.9 1.1-2.9.8-2.5 1.6-4.9 2.3-7.4-1.3-.2-3-1.2-4.3-1.6-.1 0-.3-.1-.4 0-.3.1-.4.4-.4.6-1 3.7-2.3 7.3-3.8 10.8-1.1 2.5-4 6-3.8 8.7zm26.7-2v.3c.2 1.1 1.5 1.8 2.7 1.7 1.2-.1 2.2-.9 2.9-1.8 2.3-2.1 2.2-5.8 3.7-8.4 1.6-2.9 1.8-6.1 2-9.3-2 .3-4 .3-5.9 0 .2 3-.4 6.1-1.7 8.8-.9 2.5-3.9 6-3.7 8.7z"/><path class="st5" d="M160.8 175c-1.2 7.1-4.8 23.4-16.3 24-9.8.5-16.8-10.8-18.8-12.9 3.1.2 6.3-.1 9.3-.6 1.9-.3 3.8-.4 5.6-.9 4-1 8.4-2.4 12.1-4.2 1.5-.8 3-1.7 4.5-2.6 1.2-.8 2.3-2.2 3.6-2.8 0-.1 0-.1 0 0z"/><path class="st0" d="M152.5 187.8c.3-.1.6-.3.9-.4.1 0 .2-.1.3-.2.1-.1.2-.3.3-.4.6-1.3 1-2.7 1.2-4.1-2.5 1.5-5 2.5-7.7 3.6-4.4 1.7-9.1 2.8-13.8 2.5 1.4 1.7 3.6 2.3 5.7 2.2 4.3.2 9.1-1.5 13.1-3.2z"/><path class="st5" d="M111.6 174.3c-.1 0 .8 5.2 1.2 5.8 1.4 1.6 5.6 2.9 7.6 3.3-.7.8-1.7.8-2.8.8-2.9 0-6 .2-8.7-1.2-1-.5-2.8-2-3.3-3.1-.9-2.4 4.3-4.8 6-5.6z"/><path class="st3" d="M107.2 221.5c-.2 2.1-.5 4.3-.8 6.4 7 4.1 16 6.3 24.2 6.3 2.1 0 3.9-1.6 4.2-3.7.4-3.4.7-6.9 1-10.3.2-2.3.3-4.5.4-6.8 0-.5.5-5.9.1-6.1-3.9-1.7-6.9-5-9.7-8.2-3.8-4.4-5.6-10-6.1-15.7-4.5.1-11-1.3-14.8-3.7.1.6.8 3.7.9 4.2.4 2.1.7 4.6.9 6.8.4 4.2.5 8 .6 12.2.1 6.2-.2 12.4-.9 18.6z"/><path class="st5" d="M115.6 188.5c1.1 1.2 1.7 3 2 4.5 1.2 4.5.9 9-1.3 13.2-.6 1.1-1.3 2.1-2.5 2.5-1.3.3-2.6-.4-3.4-1.4-.8-1-1.1-2.4-1.4-3.6-.7-3.6-1.1-7.3-1-11 0-1.7-.1-4.1 1.5-5 .5-.3 1-.4 1.5-.5.8-.1 1.7-.2 2.4 0 .9.1 1.6.6 2.2 1.3z"/><path class="st0" d="M87.3 209.3c1.5-4.5 4.6-8.6 7.8-11.7 3.6-3.5 8-5.6 12.6-6.9 1.5-.5 4.2-1.8 5.8-.7 1.4 1 1.6 2.8 1.1 4.2-.3.9-1.4 1.8-1.8 2.7-.4 1-.6 2.1-.9 3.1-.8 2.5-2.6 4.7-4.9 5.9-3.5 2-7.9 1.7-11.8 2.8-2 .5-3.1 1.8-2.4 3.9.4 1.1 1 2 1.6 3 2.1-1.5 4.6-2.3 7.1-2.6h.3c.2.1.2.3.2.5.2 1.6 1 2.7 1.7 4.1.7 1.3 1.2 2.8 2.3 3.8.8.7 1.8 1.1 2.6 1.7 2.3 1.5 3.7 4.1 4.8 6.6 1.3 2.8 2.6 5.8 2.4 8.9 0 .7-.2 1.3-.5 1.9-.6 1.1-1.6 1.8-2.4 2.7-1 1.2-1.5 2.8-2.7 3.9-.6.6-1.4.9-2.2 1.2-5 1.9-10.9 1.5-15.9-.3-.7-.3-1.3-.6-2-1.1-.4-.3-.8-.8-1.3-1.2-.2-.1 1.2-4 2.7-5.6.4-.4 1.2-.4 1.8-.3-.9-1.4-2-4.8-2.3-6.5-.6-2.6-1-2.4-2.7-4.4-.6-.7-1.2-1.4-1.2-2.3 0-.9.6-1.7 1-2.5.9-1.7 0-2.9-.7-4.4-.8-1.7-1.3-3.6-1.3-5.5.4-1.6.7-3.3 1.2-4.9z"/><path class="st4" d="M106.8 223c1.6 1.1 3.1 2.4 4.6 3.7.9.8 1.7 1.6 2.3 2.6.3.5.5.9.7 1.4 1.3 3.4 1.4 7-.7 10.1-.2.1-.3.2-.5.2v-.4c-.1-1.2-.5-4.9-2.2-5-1.8-.1-.4 3.1-.3 4.1.4 2.9 0 5.9-2.7 7.3.3-1 .5-1.9.5-2.9v-.1c0-1.2-.3-3.1-.9-4.2-.7-1.2-2.5-1-2.5.6 0 1.2.8 2.3.8 3.6v.1c0 1.1-.3 2.2-.8 3.1-.5.9-1.2 1.5-2 1.7-.4.1-.9.2-1.4.2h-.6c-1.6-.1-3.3-.3-4.8-.8s-2.8-1.5-4.2-2.1c.5-.7.6-1.9 1.3-2.5.3-.3.7-.2 1.1-.2 1.7.2 2.2.4 3.4 1.6.5.5 1.7 2 2.5 1.2.2-.2.2-.6.1-.9-.1-.3-.3-.6-.5-.8-2.3-2.7-3.8-6.1-5.3-9.3-.4-.8-.7-1.6-.9-2.3-.5-1.7 1.2-3.5 2.7-4.2 1.3 2.1 2.6 4.1 3.9 6.2.1.2.3.5.6.5.4.1.7-.3.8-.6.1-.4-.1-.7-.2-1.1-1-2.1-2.6-4-3.3-6.2-.1-.3-.2-.6-.1-.9.1-.3.3-.5.6-.5s.4.2.6.4c1.4 1.7 2.8 3.5 4.2 5.2.1.2.3.3.5.4.3.1.6-.2.7-.6s-.1-.7-.2-1c-.8-1.8-2-3.4-3.4-4.8-.3-.3-.6-.6-.6-1 .1-.4.6-.7 1-.6s.8.4 1.1.7c.8.8 1.6 1.5 2.4 2.3.5.5 1.1 1 1.8 1-.3-1.6-1.6-2.9-2.8-4-.3-.2-.5-.5-.6-.8-.2-.7.6-1.5 1.3-1.5.6.1 1.3.6 2 1.1z"/><path class="st5" d="M168.7 186.6c-.3 1.3-.6 2.6-1 3.6-1.5 4.1-4.6 7.5-7.7 10.4-2.3 2.2-4.8 3.8-7.5 5.4 5-3 8.7-10.4 10.6-15.7 1.1-3.1 1.8-6.4 2-9.7.1-1.1-.2-3 .6-3.9 1.1-1.2 2.3-.3 2.9 1.2.9 2.5.7 5.8.1 8.7zm-80.8 36.1c-.4.4-2.1 2.8-2.6 4.2.4.5.7 1 1.1 1.5.4.5 1 1.1 1.4 1.6 1 1.1 2.1 2.2 3.1 3.2.1.1.2.2.3.2.4.2.9-.2 1.1-.6.3 1.2.4 2.1.9 3.2.6 1.4 1.2 2.8 2 4.2.2.3.3.5.5.8-.2-.3-2.4-.1-2.7-.1h-.3c-.1 0-.2.1-.2.2-1.4 1.6-1.8 3.3-2.4 5.3 0 .1-.1.2 0 .3 0 .1.1.2.2.2 3.1 2.6 7.3 4.8 11.3 4.5h.6c1.5 0 3.2-.3 4.3-1.5.1-.1.2-.3.4-.3.1-.1.3-.1.5-.1h.3c.8-.1 1.5-.2 2.2-.7.4-.2.7-.5 1-.8.7-.7 1.4-1.7 1.9-2.6.1-.2.2-.3.3-.5.1-.2.3-.3.5-.4.6-.5 1.1-.9 1.6-1.5 1.1-1.4 2-3.1 2.3-5 .1-.7.2-1.3.2-2 0-4.4-2.4-8.2-5.3-11.3-1.4-1.6-3-3-4.5-4.6-1.4-1.5-2.1-3.5-3.4-5.1-.6-.8-1.5-1.6-2.2-2.2-1.3.2-2.5.6-3.7 1.2-.8.4-1.3.6-2.1 1.2-.4-.7-1.2-1.5-1.6-2.2-.8-1.4-.7-2.8 1-3.3 1.2-.4 2.5-.3 3.8-.4 6.8-.2 13.2-4.5 16.1-10.6 1.6-3.5 2.5-8.9-1.3-11.4-1.9-1.3-4.7 0-6.7.8-5.4 2-10.3 4.4-14.6 8.3-2.1 1.9-3.8 4.1-5.5 6.4-2 2.7-5.1 5.6-4.8 9.3-.1 2 4.4 9.8 5 10.6zm18.6.7c2.4 2 4.6 3.9 6.3 6.3 1.3 1.9 2.2 4.2 2.2 6.4 0 .5 0 1-.1 1.5-.2 1-.6 2-1.2 3-.2.1-.3.2-.5.2v-.4c-.1-1.2-.5-4.9-2.1-5-1.7-.2-.4 3.1-.2 4.1.4 2.9 0 5.9-2.5 7.3.2-1 .5-1.9.5-2.9v-.1c0-1.2-.3-3.1-.9-4.2-.7-1.2-2.4-1-2.3.6 0 1.2.7 2.3.7 3.6v.1c0 1.1-.3 2.2-.7 3.1-.5.9-1.1 1.5-1.9 1.7-.4.1-.8.2-1.4.2h-.6c-1.5-.1-3.1-.3-4.6-.9-1.4-.6-2.6-1.5-4-2.2.5-.7.6-1.9 1.2-2.5.3-.3.7-.2 1.1-.2 1.7.2 2.1.4 3.2 1.6.5.5 1.6 2 2.4 1.3.2-.2.2-.6.1-.9-.1-.3-.3-.6-.5-.8-2.2-2.7-3.6-6.1-5.1-9.3-.4-.8-.7-1.6-.9-2.3-.5-1.7 1.3-3.4 2.4-4.4 1.3-1.2 2.5-2.7 4-3.7 1.7-1.4 3.4-2.8 5.4-1.2zm-9.7-5.5c1.2-.7 2.4-1.3 3.6-1.7.2-.1.4 0 .6 0 .2 0 .3.1.5.2 1.1.8 2 1.9 2.7 3.2-.1-.1-3.6 2-4 2.2-.3.2-.5.3-.7.4-1.5 1.1-2.9 2.4-4.1 3.8-1.2 1.3-2.2 2.8-3.2 4.3-.1.1-.2.2-.3.4-1.1-1.4-2.3-2.7-3.4-4.1-.4-.4 4.6-5.9 5.1-6.4 1-.8 2-1.6 3.2-2.3zm-11.7-8.1c.4-1.3 1.5-2.4 2.4-3.4 2.6-2.9 4.9-6.1 7.7-8.8 3.6-3.5 7.9-4.8 12.5-6.6 1.5-.6 4.3-1.9 5.8-.8 1.4 1 1.8 3 1.1 4.4-.4.9-1.8 2-2.3 2.8-.6.9-1 1.9-1.5 2.8-.4.9-.9 1.8-1.5 2.6-2.3 3.1-6.4 4.4-10.2 4.5-2.3 0-4 .3-5.8 1.8-1.5 1.3-1.6 2.8-.7 4.6.5 1 1.2 2 1.8 2.9 0 0-3.5 3-4.5 4.2-.1.2-5.6-7.7-4.8-10.6-.1-.1-.1-.3 0-.4z"/><path class="st4" d="M97.3 218.8c.4-.3.8-.5 1.3-.7.7-.4 1.4-.7 2.2-.8 1.6-.2 2.7 1.1 3.4 2.4-.1-.1-3.6 2-4 2.2-.3.2-.5.3-.7.4-1.5 1.1-2.9 2.4-4.1 3.8-1.2 1.3-2.2 2.8-3.2 4.3-.1.1-.2.2-.3.4.2-.2-2.9-3-2.7-4.1.1-.4.4-.8.7-1.2 2-2.7 4.6-5 7.4-6.7z"/><path class="st3" d="M155.9 234c5.9-.5 9.7-1.2 15.9-2.6.9-17.5-.1-34.7-2.8-52-2.2 10.1-7.7 19.7-16.2 26.2-.4.3-.9.7-1.1 1.2-.2.5-.2 1-.1 1.5.7 7.5.9 15.1.6 22.7-.1 1.9 1.7 3.5 3.7 3z"/><path class="st5" d="M103.4 199.3l.7-.7c-2.2.7-4.3 2.1-5.8 3.9-.5.6-.9 1-.7 1.8.3.3.7.2 1.1 0 .3-.2.5-.6.7-.9 1-1.5 2.8-2.8 4-4.1zm28.2 16.2c-5.3-.7-11.4-1.2-16-2 1.8 2.5 11.2 3.7 16 2zm37.7-3.8c-4.5.6-9.5 1.4-13.3 1.8 2.1 1.2 9.9.9 13.3-1.8zm-38.4 13c-.2 1-.4 2.1-1 3-.9 1.3-2.4 2-3.9 2.1-1.5.1-3-.2-4.5-.5-1.1-.2-2.2-.5-3.3-.7 3.3.6 8.6 1.8 10.7-1.6.8-1.3 1.2-2.6 1.5-4.1.4-2.2.6-3.9.9-5.7 0 .6.2 1.4 0 3.8 0 1.2-.1 2.5-.4 3.7zm25.3-1.2c.1 1.1.3 2.1.8 3 .8 1.4 2.2 2.1 3.7 2.4 1.5.2 3 0 4.5-.2 1.1-.2 2.3-.3 3.4-.5-3.3.3-8.7 1.1-10.6-2.4-.7-1.3-1-2.7-1.2-4.2-.2-2.2-.3-4-.5-5.8 0 .6-.3 1.4-.3 3.8 0 1.3 0 2.6.2 3.9z"/><path class="st5" d="M114.9 213.5c-.5 2.1-.7 3.4-.8 5.1-.1.9-.2 1.7-.2 2.6v1.3c0 .4.2 1 .1 1.4.4-1.5.6-2.8.7-3.9.2-1.9.5-3.9.8-5.8 1.4.7 2.9 1.1 4.4 1.3.6.1 1.2.1 1.8 0 .3-.1.7-.2 1-.3.2-.1.7-.5.8-.4-.6-.1-1.3-.2-1.9-.3l-4.5-.6c-.6-.1-1.1-.3-2.1-.4-.1-.1-.1 0-.1 0z"/></svg>