<svg width="1200" height="401" fill="none" xmlns="http://www.w3.org/2000/svg"><rect y="1.446" width="1200" height="397.345" rx="5" fill="url(#paint0_linear_4_2705)"/><path d="M0 5.565a5 5 0 015-5h1190a5 5 0 015 5v390a5 5 0 01-5 5H5a5 5 0 01-5-5v-390z" fill="url(#paint1_linear_4_2705)"/><mask id="a" style="mask-type:alpha" maskUnits="userSpaceOnUse" x="0" y="0" width="1200" height="401"><rect y=".565" width="1200" height="400" rx="5" fill="#D9D9D9"/></mask><g mask="url(#a)"><circle cx="1041.99" cy="208.192" r="269.76" fill="#fff"/><g filter="url(#filter0_f_4_2705)"><circle cx="982.587" cy="205.066" r="176.228" fill="#CFDDEC"/></g><path d="M982.978 330.792l-35.204 12.646m35.204-12.646V51.827m0 278.965l40.412 5.882m-40.412-5.882l150.002-49.794m0-195.704l-35.61-7.945m35.61 7.945v52.038m0-52.038L858.003 168.76M982.978 51.827l-40 10.479m40-10.48l40.412 9.017M912.57 356.084l-41.296 14.834c-3.192 1.147-6.575-1.15-6.688-4.539l-1.504-45.179m49.488 34.884l-9.592-283.3m9.592 283.3l35.204-12.646M902.978 72.784l-43.892 11.498a5 5 0 00-3.73 5.004l1.257 37.741m46.365-54.243l40-10.479m0 0l4.796 281.133m75.616-282.595v275.831m0-275.831l38.36 8.56m-38.36 267.271l38.36 5.585m0 0V69.403m0 272.856l35.62 5.184m-35.62-5.184l71.23-25.446m-71.23-247.41l35.62 7.946m-35.62-7.946l-205.137 57.624m240.757-49.678v270.094m0 0l29.89 4.351c3.01.44 5.72-1.899 5.72-4.947v-30.034M863.082 321.2l269.898-88.771M863.082 321.2l-1.455-43.671m271.353-45.1v-48.772m0 48.772v48.569m-271.353-3.469l271.353-93.872m-271.353 93.872l-1.781-53.466m273.134-40.406v-46.325m-273.134 86.731l273.134-86.731m-273.134 86.731l-1.843-55.304m0 0l-1.39-41.732m276.367 153.971v35.815" stroke="url(#paint2_linear_4_2705)" stroke-width="2"/></g><defs><linearGradient id="paint0_linear_4_2705" x1="112.5" y1="46.919" x2="639.943" y2="665.619" gradientUnits="userSpaceOnUse"><stop stop-color="#E9F7FF"/><stop offset="1" stop-color="#FFDBD5"/></linearGradient><linearGradient id="paint1_linear_4_2705" x1="124.5" y1="31.775" x2="792.369" y2="802.83" gradientUnits="userSpaceOnUse"><stop stop-color="#5E88BC"/><stop offset=".511" stop-color="#F42028" stop-opacity=".4"/><stop offset="1" stop-color="#FF000F" stop-opacity=".29"/></linearGradient><linearGradient id="paint2_linear_4_2705" x1="1119.38" y1="104.025" x2="1019.73" y2="231.83" gradientUnits="userSpaceOnUse"><stop stop-color="#CFDEEC"/><stop offset="1" stop-color="#B0C2D5" stop-opacity="0"/></linearGradient><filter id="filter0_f_4_2705" x="606.358" y="-171.162" width="752.456" height="752.456" filterUnits="userSpaceOnUse" color-interpolation-filters="sRGB"><feFlood flood-opacity="0" result="BackgroundImageFix"/><feBlend in="SourceGraphic" in2="BackgroundImageFix" result="shape"/><feGaussianBlur stdDeviation="100" result="effect1_foregroundBlur_4_2705"/></filter></defs></svg>