<svg width="1280" height="200" fill="none" xmlns="http://www.w3.org/2000/svg"><rect width="1280" height="198.673" rx="5" transform="matrix(-1 0 0 1 1280 .44)" fill="url(#paint0_linear_166_299)"/><path d="M1280 5a5 5 0 00-5-5H5a5 5 0 00-5 5v190a5 5 0 005 5h1270c2.76 0 5-2.239 5-5V5z" fill="url(#paint1_linear_166_299)"/><mask id="a" style="mask-type:alpha" maskUnits="userSpaceOnUse" x="0" y="0" width="1280" height="200"><rect width="1280" height="200" rx="5" transform="matrix(-1 0 0 1 1280 0)" fill="#D9D9D9"/></mask><g mask="url(#a)"><ellipse cx="231.5" cy="210.5" rx="231.5" ry="210.5" transform="matrix(-1 0 0 1 432 -105)" fill="#fff"/><g filter="url(#filter0_f_166_299)"><ellipse cx="211.2" cy="95.25" rx="211.2" ry="95.25" transform="matrix(-1 0 0 1 466.133 14)" fill="url(#paint2_linear_166_299)"/></g><path d="M221.769 157.53l24.588 6.099m-24.588-6.099V23m0 134.53l-28.224 2.837m28.224-2.837L117 133.517m0-94.377l24.874-3.832M117 39.14v25.095m0-25.095l192.058 40.25M221.769 23l27.938 5.053M221.769 23l-28.224 4.348m77.401 142.379l27.45 6.809c3.057.758 6.046-1.466 6.198-4.613l.917-19.018m-34.565 16.822l6.699-136.62m-6.699 136.62l-24.589-6.098m31.288-130.522l29.039 5.252a5 5 0 014.105 5.161l-.76 15.745m-32.384-26.158l-27.938-5.054m0 0l-3.35 135.576M193.545 27.348v133.019m0-133.02l-26.798 4.13m26.798 128.89l-26.798 2.693m0 0V31.476m0 131.584l-24.873 2.5m24.873-2.5L117 150.789m49.747-119.313l-24.873 3.832m24.873-3.832l143.282 27.79M141.874 35.307V165.56m0 0l-19.374 1.948a5 5 0 01-5.5-4.975v-11.744m188.511 2.116L117 110.095m188.511 42.81l1.016-21.061M117 110.095v-23.52m0 23.52v23.422m189.527-1.673L117 86.574m189.527 45.27l1.244-25.784M117 86.575v-22.34m190.771 41.825L117 64.235m190.771 41.825l1.287-26.67m0 0l.971-20.125M117 133.517v17.272" stroke="url(#paint3_linear_166_299)" stroke-width="2"/></g><defs><linearGradient id="paint0_linear_166_299" x1="120" y1="22.736" x2="304.068" y2="483.354" gradientUnits="userSpaceOnUse"><stop stop-color="#E9F7FF"/><stop offset="1" stop-color="#FFDBD5"/></linearGradient><linearGradient id="paint1_linear_166_299" x1="1147.2" y1="15.605" x2="912.001" y2="594.883" gradientUnits="userSpaceOnUse"><stop offset="1" stop-color="#0074BC"/><stop offset="1" stop-color="#F42028" stop-opacity=".4"/><stop offset="1" stop-color="#FF000F" stop-opacity=".29"/></linearGradient><linearGradient id="paint2_linear_166_299" x1="211.2" y1="0" x2="211.2" y2="190.5" gradientUnits="userSpaceOnUse"><stop stop-color="#CFDDEC"/><stop offset="1" stop-color="#CFDDEC" stop-opacity="0"/></linearGradient><linearGradient id="paint3_linear_166_299" x1="126.501" y1="48.172" x2="167.865" y2="125.008" gradientUnits="userSpaceOnUse"><stop stop-color="#8099C1"/><stop offset="1" stop-color="#B0C2D5" stop-opacity="0"/></linearGradient><filter id="filter0_f_166_299" x="-156.267" y="-186" width="822.4" height="590.5" filterUnits="userSpaceOnUse" color-interpolation-filters="sRGB"><feFlood flood-opacity="0" result="BackgroundImageFix"/><feBlend in="SourceGraphic" in2="BackgroundImageFix" result="shape"/><feGaussianBlur stdDeviation="100" result="effect1_foregroundBlur_166_299"/></filter></defs></svg>