<svg width="540" height="540" fill="none" xmlns="http://www.w3.org/2000/svg"><circle cx="269.76" cy="269.76" r="269.76" transform="matrix(-1 0 0 1 539.52 0)" fill="#fff"/><path d="M328.769 392.359l35.204 12.646m-35.204-12.646V113.394m0 278.965l-40.408 5.882m40.408-5.882l-150-49.793m0-195.704l35.612-7.946m-35.612 7.946V198.9m0-52.038l274.975 83.465M328.769 113.394l40 10.479m-40-10.479l-40.408 9.016m110.816 295.241l41.296 14.835c3.192 1.146 6.575-1.15 6.688-4.539l1.505-45.179m-49.489 34.883l9.592-283.299m-9.592 283.299l-35.204-12.646m44.796-270.653l43.892 11.498a5 5 0 013.73 5.003l-1.257 37.742m-46.365-54.243l-40-10.479m0 0l-4.796 281.132M288.361 122.41v275.831m0-275.831l-38.368 8.561m38.368 267.27l-38.368 5.586m0 0V130.971m0 272.856l-35.612 5.184m35.612-5.184l-71.224-25.447m71.224-247.409l-35.612 7.945m35.612-7.945l205.141 57.624m-240.753-49.679v270.095m0 0l-29.892 4.351a5 5 0 01-5.72-4.948V378.38m269.897 4.388l-269.897-88.771m269.897 88.771l1.454-43.671m-271.351-45.1v-48.773m0 48.773v48.569m271.351-3.469l-271.351-93.873m271.351 93.873l1.781-53.467m-273.132-40.406V198.9m273.132 86.73L178.769 198.9m273.132 86.73l1.843-55.303m0 0l1.39-41.732M178.769 342.566v35.814" stroke="url(#paint0_linear_130_35)" stroke-width="2"/><defs><linearGradient id="paint0_linear_130_35" x1="192.372" y1="165.592" x2="292.022" y2="293.398" gradientUnits="userSpaceOnUse"><stop stop-color="#8099C1"/><stop offset="1" stop-color="#B0C2D5" stop-opacity="0"/></linearGradient></defs></svg>