<svg width="18" height="11" fill="none" xmlns="http://www.w3.org/2000/svg"><path d="M9.389 1.95c2.956 0 5.591 1.42 6.878 3.666-1.287 2.247-3.915 3.667-6.878 3.667-2.964 0-5.592-1.42-6.878-3.667C3.797 3.37 6.433 1.95 9.389 1.95zm0-1.334c-3.9 0-7.23 2.074-8.579 5 1.35 2.927 4.68 5 8.579 5 3.9 0 7.23-2.073 8.578-5-1.349-2.926-4.679-5-8.578-5zm0 3.334c1.076 0 1.95.746 1.95 1.666 0 .92-.874 1.667-1.95 1.667s-1.95-.747-1.95-1.667.874-1.666 1.95-1.666zm0-1.334c-1.934 0-3.51 1.347-3.51 3 0 1.654 1.576 3 3.51 3 1.934 0 3.51-1.346 3.51-3 0-1.653-1.576-3-3.51-3z" fill="#8D8D92"/></svg>