<svg width="1400" height="753" fill="none" xmlns="http://www.w3.org/2000/svg"><rect width="1200" height="397.345" rx="5" transform="matrix(-1 0 0 1 1200 170.881)" fill="url(#paint0_linear_130_34)"/><path d="M1200 175c0-2.761-2.24-5-5-5H5a5 5 0 00-5 5v390a5 5 0 005 5h1190c2.76 0 5-2.239 5-5V175z" fill="url(#paint1_linear_130_34)"/><mask id="a" style="mask-type:alpha" maskUnits="userSpaceOnUse" x="0" y="170" width="1200" height="400"><rect width="1200" height="400" rx="5" transform="matrix(-1 0 0 1 1200 170)" fill="#D9D9D9"/></mask><g mask="url(#a)"><ellipse cx="327" cy="323.5" rx="327" ry="323.5" transform="matrix(-1 0 0 1 548 35)" fill="#fff"/><g filter="url(#filter0_f_130_34)"><ellipse cx="198" cy="190.5" rx="198" ry="190.5" transform="matrix(-1 0 0 1 437 198)" fill="url(#paint2_linear_130_34)"/></g><path d="M263.576 497.702l46.135 13.496m-46.135-13.496V200m0 297.702l-52.955 6.278m52.955-6.278L67 444.564m0-208.848l46.67-8.48M67 235.716v55.533m0-55.533l360.356 89.071M263.576 200l52.42 11.183M263.576 200l-52.955 9.621m145.225 315.072l56.446 16.511c3.119.913 6.266-1.347 6.399-4.594l2.011-49.143m-64.856 37.226l12.571-302.328m-12.571 302.328l-46.135-13.495m58.706-288.833l58.458 12.471a5 5 0 013.953 5.094l-1.65 40.321m-60.761-57.886l-52.421-11.182m0 0l-6.285 300.015m-99.09-301.577V503.98m0-294.359l-50.281 9.136m50.281 285.223l-50.281 5.96m0 0V218.757m0 291.183l-46.67 5.532m46.67-5.532L67 482.784m93.34-264.027l-46.67 8.479m46.67-8.479l268.838 61.494M113.67 227.236v288.236m0 0l-41.081 4.87A5 5 0 0167 515.377v-32.593m353.702 4.683L67 392.733m353.702 94.734l1.906-46.605M67 392.733v-52.049m0 52.049v51.831m355.608-3.702L67 340.684m355.608 100.178l2.334-57.058M67 340.684v-49.435m357.942 92.555L67 291.249m357.942 92.555l2.414-59.017m0 0l1.822-44.536M67 444.564v38.22" stroke="url(#paint3_linear_130_34)" stroke-width="2"/></g><g filter="url(#filter1_f_130_34)"><circle cx="1023.23" cy="376.228" r="176.228" fill="url(#paint4_linear_130_34)"/></g><defs><linearGradient id="paint0_linear_130_34" x1="112.5" y1="45.473" x2="639.943" y2="664.172" gradientUnits="userSpaceOnUse"><stop stop-color="#E9F7FF"/><stop offset="1" stop-color="#FFDBD5"/></linearGradient><linearGradient id="paint1_linear_130_34" x1="1075.5" y1="201.209" x2="407.631" y2="972.265" gradientUnits="userSpaceOnUse"><stop offset="1" stop-color="#83AFE7"/><stop offset="1" stop-color="#F42028" stop-opacity=".4"/><stop offset="1" stop-color="#FF000F" stop-opacity=".29"/></linearGradient><linearGradient id="paint2_linear_130_34" x1="198" y1="0" x2="198" y2="381" gradientUnits="userSpaceOnUse"><stop stop-color="#CFDDEC"/><stop offset="1" stop-color="#CFDDEC" stop-opacity="0"/></linearGradient><linearGradient id="paint3_linear_130_34" x1="84.827" y1="255.704" x2="184.064" y2="412.002" gradientUnits="userSpaceOnUse"><stop stop-color="#8099C1"/><stop offset="1" stop-color="#B0C2D5" stop-opacity="0"/></linearGradient><linearGradient id="paint4_linear_130_34" x1="1023.23" y1="200" x2="1023.23" y2="552.456" gradientUnits="userSpaceOnUse"><stop stop-color="#CFDDEC"/><stop offset="1" stop-color="#CFDDEC" stop-opacity="0"/></linearGradient><filter id="filter0_f_130_34" x="-159" y="-2" width="796" height="781" filterUnits="userSpaceOnUse" color-interpolation-filters="sRGB"><feFlood flood-opacity="0" result="BackgroundImageFix"/><feBlend in="SourceGraphic" in2="BackgroundImageFix" result="shape"/><feGaussianBlur stdDeviation="100" result="effect1_foregroundBlur_130_34"/></filter><filter id="filter1_f_130_34" x="647" y="0" width="752.456" height="752.456" filterUnits="userSpaceOnUse" color-interpolation-filters="sRGB"><feFlood flood-opacity="0" result="BackgroundImageFix"/><feBlend in="SourceGraphic" in2="BackgroundImageFix" result="shape"/><feGaussianBlur stdDeviation="100" result="effect1_foregroundBlur_130_34"/></filter></defs></svg>