<svg width="1400" height="753" fill="none" xmlns="http://www.w3.org/2000/svg"><rect width="1200" height="397.345" rx="5" transform="matrix(-1 0 0 1 1200 170.881)" fill="url(#paint0_linear_130_34)"/><path d="M1200 175c0-2.761-2.24-5-5-5H5a5 5 0 00-5 5v390a5 5 0 005 5h1190c2.76 0 5-2.239 5-5V175z" fill="url(#paint1_linear_130_34)"/><mask id="a" style="mask-type:alpha" maskUnits="userSpaceOnUse" x="0" y="170" width="1200" height="400"><rect width="1200" height="400" rx="5" transform="matrix(-1 0 0 1 1200 170)" fill="#D9D9D9"/></mask><g mask="url(#a)"><circle cx="269.76" cy="269.76" r="269.76" transform="matrix(-1 0 0 1 427.772 107.867)" fill="#fff"/><g filter="url(#filter0_f_130_34)"><circle cx="176.228" cy="176.228" r="176.228" transform="matrix(-1 0 0 1 393.642 198.272)" fill="url(#paint2_linear_130_34)"/></g><path d="M217.022 500.226l35.204 12.646m-35.204-12.646V221.261m0 278.965l-40.408 5.882m40.408-5.882l-150-49.793m0-195.704l35.612-7.946m-35.612 7.946v52.038m0-52.038l274.975 83.465M217.022 221.261l40 10.479m-40-10.479l-40.408 9.016M287.43 525.518l41.296 14.835c3.192 1.146 6.575-1.15 6.688-4.54l1.504-45.178m-49.488 34.883l9.592-283.299m-9.592 283.299l-35.204-12.646m44.796-270.653l43.892 11.498a5 5 0 013.73 5.003l-1.257 37.741m-46.365-54.242l-40-10.479m0 0l-4.796 281.132m-75.612-282.595v275.831m0-275.831l-38.368 8.561m38.368 267.27l-38.368 5.586m0 0V238.838m0 272.856l-35.612 5.184m35.612-5.184l-71.224-25.447m71.224-247.409l-35.612 7.945m35.612-7.945l205.141 57.623m-240.753-49.678v270.095m0 0l-29.892 4.351a5 5 0 01-5.72-4.948v-30.034m269.896 4.388L67.022 401.864m269.896 88.771l1.455-43.671m-271.351-45.1v-48.773m0 48.773v48.569m271.351-3.469L67.022 353.091m271.351 93.873l1.781-53.467M67.022 353.091v-46.324m273.132 86.73l-273.132-86.73m273.132 86.73l1.843-55.303m0 0l1.39-41.733M67.022 450.433v35.814" stroke="url(#paint3_linear_130_34)" stroke-width="2"/></g><g filter="url(#filter1_f_130_34)"><circle cx="1023.23" cy="376.228" r="176.228" fill="url(#paint4_linear_130_34)"/></g><defs><linearGradient id="paint0_linear_130_34" x1="112.5" y1="45.473" x2="639.943" y2="664.172" gradientUnits="userSpaceOnUse"><stop stop-color="#E9F7FF"/><stop offset="1" stop-color="#FFDBD5"/></linearGradient><linearGradient id="paint1_linear_130_34" x1="1075.5" y1="201.209" x2="407.631" y2="972.265" gradientUnits="userSpaceOnUse"><stop offset="1" stop-color="#83AFE7"/><stop offset="1" stop-color="#F42028" stop-opacity=".4"/><stop offset="1" stop-color="#FF000F" stop-opacity=".29"/></linearGradient><linearGradient id="paint2_linear_130_34" x1="176.228" y1="0" x2="176.228" y2="352.456" gradientUnits="userSpaceOnUse"><stop stop-color="#CFDDEC"/><stop offset="1" stop-color="#CFDDEC" stop-opacity="0"/></linearGradient><linearGradient id="paint3_linear_130_34" x1="80.625" y1="273.459" x2="180.275" y2="401.264" gradientUnits="userSpaceOnUse"><stop stop-color="#8099C1"/><stop offset="1" stop-color="#B0C2D5" stop-opacity="0"/></linearGradient><linearGradient id="paint4_linear_130_34" x1="1023.23" y1="200" x2="1023.23" y2="552.456" gradientUnits="userSpaceOnUse"><stop stop-color="#CFDDEC"/><stop offset="1" stop-color="#CFDDEC" stop-opacity="0"/></linearGradient><filter id="filter0_f_130_34" x="-158.814" y="-1.728" width="752.456" height="752.456" filterUnits="userSpaceOnUse" color-interpolation-filters="sRGB"><feFlood flood-opacity="0" result="BackgroundImageFix"/><feBlend in="SourceGraphic" in2="BackgroundImageFix" result="shape"/><feGaussianBlur stdDeviation="100" result="effect1_foregroundBlur_130_34"/></filter><filter id="filter1_f_130_34" x="647" y="0" width="752.456" height="752.456" filterUnits="userSpaceOnUse" color-interpolation-filters="sRGB"><feFlood flood-opacity="0" result="BackgroundImageFix"/><feBlend in="SourceGraphic" in2="BackgroundImageFix" result="shape"/><feGaussianBlur stdDeviation="100" result="effect1_foregroundBlur_130_34"/></filter></defs></svg>