<svg width="137" height="271" viewBox="0 0 137 271" fill="none" xmlns="http://www.w3.org/2000/svg">
<path d="M61.1445 230.3C58.2445 229.7 55.0445 229.1 52.3445 227.8C49.8445 226.6 47.2445 226.2 44.7445 225.2C44.4445 225.1 44.1445 224.9 43.8445 224.7C43.6445 224.4 43.4445 224.1 43.3445 223.8C42.2445 220.4 42.3445 216.6 40.9445 213.3C42.6445 213.3 44.2445 213.3 45.9445 213.2C45.7445 211.1 44.6445 208.9 44.1445 206.8C43.5445 204.4 43.0445 202 42.6445 199.6C42.1445 196.5 41.7445 193.3 41.5445 190.2C41.3445 187.3 41.1445 184.4 40.4445 181.5C40.3445 181.2 40.2445 180.9 40.0445 180.7C39.9445 180.6 39.7445 180.5 39.6445 180.4C39.2445 180.2 38.8445 180.1 38.4445 180C38.3445 180 38.2445 180 38.2445 180C38.1445 180 38.1445 180.1 38.1445 180.2C37.8445 181.2 36.6445 182.4 36.0445 183.2C35.2445 184.2 34.2445 185.2 33.3445 186.2C31.5445 188.1 29.5445 190.1 27.3445 191.7C25.7445 192.8 24.1445 193.8 22.4445 194.7C20.6445 195.6 18.8445 196.4 17.0445 197.1C16.9445 197.1 16.8445 197.2 16.7445 197.1C16.6445 197.1 16.6445 197 16.5445 197C15.7445 196.1 15.1445 195.1 14.6445 194.1C14.4445 193.6 14.2445 193.1 13.9445 192.7C13.8445 192.6 12.6445 191.4 12.6445 191.4C13.8445 189.7 15.0445 188 16.2445 186.3C14.0445 187.3 11.8445 188.3 9.54454 189.4C9.34454 189.5 9.24454 189.5 9.04454 189.5C8.84454 189.5 8.74453 189.3 8.64453 189.2C7.54453 187.6 6.44453 186 5.44453 184.3C5.34453 184.1 5.14454 183.8 5.24454 183.6C5.24454 183.4 5.44454 183.2 5.54454 183.1C6.64454 181.9 7.94453 180.7 9.44453 179.8C7.44453 179.9 5.44453 180.1 3.44453 180.2C2.84453 178.7 2.34454 177.2 2.04454 175.7C2.04454 175.5 1.94454 175.3 2.04454 175C2.14454 174.8 2.34453 174.6 2.44453 174.5C3.44453 173.6 4.64453 172.7 5.84453 172.1C6.24453 171.9 6.64454 171.8 7.04454 171.6C7.64454 171.2 8.14454 170.8 8.74454 170.4C11.0445 168.9 13.4445 167.7 16.0445 166.7L16.4445 166.5C16.0445 166.5 15.7445 166.1 15.5445 165.9C15.1445 165.5 14.7445 165 14.2445 164.7C13.2445 163.9 12.2445 163.1 11.4445 162C10.5445 160.7 10.0445 159.2 10.3445 157.6C10.4445 157.1 10.6445 156.7 10.7445 156.3C10.9445 155.9 11.1445 155.5 11.4445 155.1C12.2445 154.1 13.3445 153.5 14.6445 153.2C15.1445 153.1 19.3445 152.9 19.3445 153.2C19.5445 155.5 21.8445 158.9 24.5445 158.6C27.0445 158.3 28.4445 155.8 30.9445 156.2C32.4445 156.5 34.6445 157.3 36.1445 156.6C38.9445 155.2 41.9445 152.8 42.2445 149.6C42.3445 148.2 42.5445 146.8 42.6445 145.4C42.9445 142.7 43.2445 140 43.6445 137.3C43.9445 134.9 44.3445 132.5 44.8445 130.1C45.0445 128.9 45.2445 127.7 45.5445 126.5C45.7445 125.3 46.0445 124.2 46.2445 123C44.3445 122.3 42.7445 121 41.1445 120C40.2445 119.4 39.3445 118.8 38.9445 117.9C38.6445 117.2 38.6445 116.5 38.6445 115.7C38.6445 111.3 38.9445 107.1 39.7445 102.8C40.2445 100.1 40.1445 97.6002 40.9445 94.9002C41.3445 93.8002 42.0445 93.0002 43.1445 92.6002C44.6445 92.1002 44.5445 93.7002 44.9445 94.7002C45.3445 95.7002 46.2445 96.4002 47.1445 96.9002C48.6445 97.8002 50.3445 98.5002 52.0445 98.9002C52.0445 97.9002 52.0445 96.9002 52.5445 96.1002C52.8445 95.6002 53.2445 95.3002 53.5445 94.8002C53.8445 94.3002 54.0445 93.6002 54.1445 93.0002C55.5445 86.4002 56.5445 79.6002 60.0445 73.7002C62.7445 73.9002 65.4445 74.1002 68.1445 74.3002C69.6445 74.4002 72.3445 75.4002 73.4445 74.2002C74.7445 72.8002 75.6445 70.4002 76.5445 68.7002C77.2445 67.4002 77.9445 64.1002 79.6445 63.9002C81.2445 63.7002 83.8445 65.3002 85.2445 65.8002C85.4445 65.9002 85.6445 65.9002 85.7445 65.9002C85.9445 65.8002 86.0445 65.6002 86.0445 65.4002C89.0445 56.0002 94.3445 46.7002 99.2445 38.1002C100.245 36.3002 101.345 34.5002 102.445 32.7002C102.945 31.8002 111.245 18.4002 111.845 17.5002C115.345 11.6002 119.045 5.8002 123.045 0.200195C125.345 1.7002 127.845 3.00019 130.045 4.50019C129.445 5.60019 128.945 6.7002 128.345 7.8002C127.145 10.0002 126.045 11.6002 125.045 13.5002C123.345 16.7002 113.645 32.2002 111.945 35.3002C105.845 45.9002 101.045 57.1002 96.6445 68.5002C96.5445 68.7002 99.6445 70.7002 99.8445 70.9002C101.245 71.9002 102.545 73.0002 103.845 74.1002C103.745 75.1002 103.345 76.0002 103.045 76.9002C102.745 77.9002 102.545 79.0002 102.245 80.0002C102.145 80.6002 100.745 84.9002 100.945 85.1002C103.945 87.8002 107.145 90.1002 110.045 92.9002C110.145 93.0002 110.245 93.1002 110.245 93.3002C110.245 93.4002 110.245 93.6002 110.145 93.7002C108.145 99.0002 106.945 104.7 105.445 110.2C105.745 109.1 114.845 107.7 115.945 108.4C116.645 108.8 117.045 109.4 117.545 110C118.845 111.7 120.145 113.4 121.445 115.1C118.345 115.2 115.345 115.1 112.245 115.4C109.245 115.7 106.445 116.2 103.545 117C102.645 117.2 101.345 125.1 101.245 126.3C101.045 127.9 100.645 129.1 101.845 130.2C102.945 131.2 104.445 131.7 104.845 133.3C105.045 134.1 104.945 135 104.745 135.8C104.345 137.8 102.945 140.3 104.545 142.1C105.145 142.8 106.045 143.2 106.945 143.5C110.545 145.1 113.945 147.3 116.845 149.9C117.945 150.9 119.045 152 119.945 153.3C120.445 153.9 120.945 154.8 121.445 155.4C123.045 157.5 124.045 158.7 125.445 160.6C126.645 162.2 127.645 164.7 127.345 167.3C127.145 169.1 125.845 171.7 125.045 173.4C124.345 174.8 123.645 176.3 122.845 177.6C122.745 177.7 122.645 177.9 122.745 178C122.745 178.1 122.845 178.2 122.845 178.3C123.345 179.3 123.845 180.3 124.245 181.3C124.245 181.4 124.245 181.4 124.245 181.5C124.245 181.6 124.145 181.6 124.145 181.7C123.945 181.9 123.745 182.1 123.445 182.4C121.945 180.8 120.745 179.1 119.245 177.5C117.845 176 116.245 174.9 114.745 173.5C114.345 173.2 114.045 172.8 113.945 172.4C114.645 171.6 115.045 170.7 115.445 169.8C115.845 168.8 116.745 167 116.045 166C115.445 165.1 113.945 164.4 113.045 164C111.345 163.3 109.445 162.8 107.645 162.6C105.945 162.4 104.745 161.9 103.145 161.3C102.945 163.7 102.945 166.1 103.045 168.4C103.145 170.6 103.645 172.9 103.645 175.1C103.545 178.8 98.8445 177.9 98.2445 181.1C97.9445 182.5 98.6445 184.8 98.7445 186.3C99.1445 190.5 99.6445 194.6 100.345 198.8C100.545 200 100.845 201.3 100.845 202.4C101.345 205.2 102.145 207.9 102.745 210.7C104.345 210.9 105.945 210.8 107.545 210.8C107.745 210.8 107.945 210.8 108.045 210.9C108.145 211 108.145 211.1 108.245 211.3C109.645 216 111.645 220.5 112.745 225.2C111.745 225.2 110.745 225.8 109.845 226.2C108.545 226.8 95.0445 231.1 94.9445 230.4C95.6445 232.7 96.3445 235.3 97.2445 237.9C97.6445 239.1 98.0445 240.2 98.4445 241.3C98.7445 242 99.1445 243.6 99.8445 243.8C100.245 243.9 100.845 243.8 101.345 243.7C101.445 243.7 101.645 243.7 101.745 243.7C102.345 243.7 102.945 243.7 103.545 243.7C104.745 243.7 105.945 243.8 107.145 243.9C107.345 243.9 107.645 244 107.845 243.9C108.345 243.8 108.845 243.5 109.345 243.4C109.845 243.3 110.445 243.2 111.045 243.2C111.945 243.2 112.845 243.5 113.345 244.2C113.545 244.5 113.745 244.9 114.045 245C114.345 245.2 114.745 245.1 115.145 245C116.345 244.7 117.545 244.6 118.745 244.7C119.945 244.9 121.145 245.4 121.945 246.2C122.245 246.5 122.545 246.9 122.845 247.1C123.745 247.7 125.045 247.3 126.145 247.4C126.945 247.5 127.845 247.8 128.445 248.4C129.045 249 129.445 249.8 129.745 250.6C130.045 251.4 130.645 251.7 131.345 252.2C132.445 253.2 133.445 254.2 134.345 255.4C136.245 258.2 138.145 264.2 135.845 267.3C134.945 268.4 133.545 269 132.145 269.2C130.745 269.5 129.245 269.5 127.745 269.4C123.645 269.3 119.645 268.8 115.645 268.3C112.045 267.8 108.445 267.2 105.045 265.9C103.445 265.3 101.845 264.4 100.345 263.6C97.2445 262 94.2445 260.3 91.1445 258.7C90.0445 258.1 88.8445 257.5 88.0445 256.5C86.8445 255 87.0445 252.9 87.3445 251.1C87.5445 249.8 87.9445 248.4 88.8445 247.2C89.5445 246.3 90.5445 245.6 91.6445 245.3C89.8445 240.8 88.1445 235.7 87.2445 231.5C85.0445 231.7 82.9445 231.9 80.7445 232C77.0445 232.1 73.3445 232 69.6445 231.7C70.1445 235 71.7445 239.6 73.2445 242.7C76.2445 243.2 78.8445 244.7 80.7445 246.9C82.8445 249.2 84.1445 252.2 84.2445 255.2C84.2445 255.9 84.4445 257 83.9445 257.6C83.4445 258.2 82.4445 258.3 81.7445 258.4C69.3445 259.4 56.9445 260.4 44.6445 261.4C39.1445 261.8 33.7445 262.3 28.3445 263.4C27.4445 263.6 26.4445 263.8 25.5445 263.6C24.1445 263.3 23.9445 262.5 23.4445 261.4C22.6445 259.4 22.0445 257.3 22.0445 255.2C22.0445 251.9 22.7445 248.4 24.9445 245.7C26.7445 243.5 29.4445 242.1 32.2445 241.6C33.5445 241.4 34.9445 241.4 36.0445 240.7C37.6445 239.6 38.2445 239.6 40.1445 240C41.3445 240.2 42.1445 239.9 43.3445 239.6C45.7445 238.9 47.7445 241.2 50.0445 240.5C51.0445 240.2 51.7445 239.9 52.9445 240.2C54.9445 240.6 56.7445 241.9 58.7445 242.2C60.5445 242.5 62.4445 242.7 64.2445 243C63.4445 238.6 61.9445 234.6 61.1445 230.3Z" fill="white"/>
<path opacity="0.3" d="M69.5446 221.6C71.9446 220.7 73.1446 222.3 75.5446 222.9C80.4446 224.2 86.4446 224.5 91.3446 223.3C91.5446 223.2 91.8446 223.1 91.8446 222.9C90.4446 218.9 89.6446 214.7 88.6446 210.6C87.4446 205.4 86.5446 200.2 85.7446 194.9C83.5446 179.9 82.9446 165.9 84.4446 151.1C86.0446 135.8 89.9446 119.7 93.7446 104.8C98.3446 105 103.045 102.6 105.445 98.6001C104.245 101.8 103.445 105.6 102.445 108.9C101.245 112.6 100.345 116.4 99.6446 120.2C99.1446 123.1 98.1446 125.8 97.5446 128.7C96.7446 132.3 97.1446 135.9 96.4446 139.4C96.1446 141 95.8446 142.6 95.6446 144.2C95.4446 146.3 95.5446 148.1 95.0446 150.1C94.4446 152.3 94.2446 154.3 94.2446 156.6C94.2446 167 94.8446 177.5 95.3446 187.9C95.6446 193.9 97.7446 199.7 98.9446 205.6C99.3446 207.8 99.5446 210.3 100.345 212.4C101.345 214.8 102.745 214.1 105.145 213.9C105.545 213.9 105.945 213.8 106.245 214.1C106.445 214.3 106.545 214.6 106.645 214.9C107.545 218 108.445 221 109.245 224.1C109.645 225.4 99.0446 228.1 97.9446 228.3C94.1446 228.9 90.4446 229.5 86.5446 229.6C78.7446 229.7 70.7446 228.1 64.0446 223.8C65.8446 222.9 67.6446 222.3 69.5446 221.6Z" fill="#231F20"/>
<path opacity="0.5" d="M98.0446 57.0998C98.6446 55.5998 99.3446 54.0998 99.9446 52.5998C102.345 47.0998 105.045 41.6998 108.045 36.4998C111.145 31.1998 114.545 25.9998 117.745 20.6998C119.145 18.3998 120.545 16.0998 121.845 13.6998C122.145 13.1998 125.545 7.2998 125.445 7.1998C124.545 6.3998 123.445 5.8998 122.445 5.2998C121.245 6.8998 120.345 8.6998 119.345 10.2998C117.445 13.2998 115.645 16.2998 113.845 19.2998C110.245 25.1998 106.745 31.1998 103.245 37.0998C96.9446 47.7998 90.8446 58.2998 87.7446 70.3998C89.4446 71.4998 92.1446 71.6998 93.0446 69.5998C93.5446 68.2998 94.1446 66.8998 94.6446 65.5998C95.7446 62.7998 96.8446 59.8998 98.0446 57.0998Z" fill="#231F20"/>
<path d="M111.445 257.9C111.645 257.6 111.945 257.3 112.145 257C114.045 254.8 116.645 253.3 119.445 252.8C123.045 252.1 125.845 253.4 128.245 256.1C130.145 258.3 130.345 260.2 130.845 262.9C130.945 263.6 130.545 264.3 129.945 264.7C127.345 266.5 122.945 266.2 120.045 265.9C118.545 265.8 116.945 265.5 115.445 265.2C105.845 263.4 94.9445 257.6 86.7445 253.4C84.5445 252.3 87.3445 249.4 88.6445 247.6C89.0445 247 90.0445 246.4 90.7445 246.2C91.4445 246 92.7445 247.9 93.1445 248.5C93.3445 248.8 93.4445 249.1 93.5445 249.4C94.1445 250.7 95.7445 251.4 97.0445 250.8C97.8445 250.4 98.3445 249.4 98.4445 248.5C98.5445 247.8 98.5445 245.4 97.6445 245.1C99.8445 245.9 102.345 245.2 104.645 245.6C103.845 245.9 103.145 246.3 102.445 246.8C100.945 247.9 99.2445 250.7 99.8445 252.6C100.145 253.6 101.345 254.4 102.345 254C102.645 255 103.545 255.7 104.545 255.8C105.545 255.9 106.545 255.6 107.445 255.1C107.345 256.3 107.545 257.6 108.345 258.4C109.745 259.9 110.645 258.9 111.445 257.9Z" fill="#E1251B"/>
<path d="M54.4446 252.2C54.5446 252.1 54.7446 252.1 54.9446 252.1C55.2446 252.1 55.4446 252.3 55.7446 252.4C56.4446 252.8 57.2446 253.1 57.9446 253.1C58.7446 253.1 59.5446 252.8 60.0446 252.2C60.4446 251.6 60.5446 250.9 60.5446 250.2C60.5446 249.1 60.2446 248 59.8446 247C61.1446 247.1 62.5446 247.4 63.8446 247.4C64.7446 247.4 65.7446 247.1 66.4446 248C66.8446 248.5 67.0446 249.1 67.5446 249.5C68.4446 250.2 69.8446 249.8 70.7446 249.1C71.7446 248.3 72.5446 247 72.2446 245.8C72.3446 246.1 74.3446 247 74.7446 247.3C75.5446 247.9 76.3446 248.7 76.9446 249.4C78.3446 251.1 78.3446 252.4 78.4446 254.7C60.9446 255.9 43.2446 258.3 25.1446 259.7C24.8446 259.7 24.4446 259.7 24.1446 259.6C21.7446 258.6 23.5446 252.4 24.0446 250.9C24.7446 248.8 26.1446 246.8 28.0446 245.6C28.9446 245 30.0446 244.7 31.1446 244.3C32.5446 243.9 34.0446 243.5 35.5446 243.6C37.9446 243.8 39.9446 245.8 41.2446 247.7C41.9446 248.7 42.3446 249.9 42.9446 250.9C43.5446 252 44.4446 252.9 45.6446 253.3C46.8446 253.7 48.3446 253.1 48.6446 252C49.2446 252.6 49.9446 253.3 50.8446 253.6C51.6446 253.9 52.7446 253.9 53.4446 253.3C53.6446 253.1 53.9446 252.5 54.4446 252.2Z" fill="#E1251B"/>
<path opacity="0.5" d="M96.8446 76.3001C96.3446 76.4001 95.7446 76.4001 95.1446 76.4001C93.7446 76.3001 92.3446 76.0001 90.9446 75.7001C88.2446 75.0001 85.6446 73.9001 83.3446 72.4001C81.7446 71.3001 80.3446 69.7001 79.2446 68.1001C78.3446 70.3001 77.4446 72.4001 76.5446 74.5001C76.0446 75.7001 75.4446 77.1001 74.7446 78.2001C73.9446 79.5001 72.6446 80.2001 72.3446 78.0001C72.1446 76.9001 72.3446 75.7001 72.7446 74.7001C70.8446 76.4001 70.0446 79.2001 70.7446 81.6001C71.5446 84.2001 73.3446 85.1001 75.5446 86.3001C77.6446 87.5001 79.6446 88.6001 81.8446 89.6001C85.4446 91.2001 89.4446 92.0001 93.3446 91.7001C95.7446 91.5001 96.3446 87.0001 96.8446 85.2001C97.2446 84.1001 97.3446 82.9001 97.7446 81.8001C98.1446 80.6001 98.5446 79.5001 98.9446 78.3001C99.2446 77.5001 99.5446 76.6001 99.6446 75.7001C99.7446 74.8001 99.5446 73.9001 98.9446 73.2001C98.7446 73.0001 98.5446 72.8001 98.2446 72.9001C98.5446 73.5001 98.5446 74.3001 98.2446 75.0001C98.0446 75.8001 97.5446 76.1001 96.8446 76.3001Z" fill="#231F20"/>
<path d="M39.6445 158.2C38.9445 158.8 38.2445 159.3 37.4445 159.8C38.2445 160.4 38.8445 161.1 39.4445 161.9C39.4445 160.7 39.5445 159.5 39.6445 158.2Z" fill="white"/>
<path d="M7.94447 184.3C8.74447 185.4 9.64447 186.6 10.4445 187.7C10.5445 187.8 10.6445 187.9 10.7445 188C10.8445 188 10.9445 188 11.0445 187.9C11.8445 187.6 19.0445 183.6 18.5445 182.8C18.1445 182.2 16.5445 179.6 15.8445 179.3C14.7445 178.9 12.9445 180.4 12.1445 181C10.6445 182 9.04447 182.8 7.94447 184.3Z" fill="#0071CE"/>
<path d="M36.1446 168C36.5446 168 36.9446 170.3 37.0446 170.5C37.2446 171.3 37.5446 172 37.5446 172.9C37.5446 173.6 37.3446 174.3 37.4446 175C37.4446 175.7 37.8446 176.4 38.4446 176.6C38.7446 176.7 38.9446 176.7 39.2446 176.6C39.4446 176.6 39.6446 176.5 39.8446 176.4C39.9446 176.3 39.9446 176.2 40.0446 176C40.3446 174.9 40.3446 173.7 40.2446 172.6C40.0446 170.3 39.7446 168 38.6446 165.9C38.3446 165.3 37.9446 164.8 37.5446 164.2C36.0446 162.4 33.8446 161.1 31.6446 160.2C31.4446 160.1 31.3446 160.1 31.1446 160.1C30.9446 160.1 30.7446 160.3 30.5446 160.5C30.0446 160.9 29.6446 161.4 29.1446 161.8C29.3446 161.6 31.0446 162.7 31.3446 162.9C32.0446 163.3 32.7446 163.8 33.3446 164.4C34.4446 165.3 35.4446 166.6 36.1446 168Z" fill="#0071CE"/>
<path d="M5.04457 177.3C5.34457 177.9 5.64456 178.6 5.94456 179.3C6.14456 178.8 6.84455 178.9 7.34455 178.7C8.64455 178 10.2446 177.9 11.7446 177.5C12.0446 177.4 14.6446 176.5 14.8446 176.9C14.5446 176.4 14.3446 176 14.1446 175.5C13.8446 174.7 14.2446 173.4 15.1446 174.4C15.3446 174.7 15.4446 175 15.6446 175.3C16.3446 177.1 17.3446 178.7 18.5446 180.2C19.1446 180.9 19.8446 181.6 20.6446 182.3C21.2446 182.8 21.9446 183.2 22.4446 183.8C22.6446 184 23.0446 184 22.8446 184.4C22.6446 184.6 21.4446 184.6 21.0446 184.8C20.3446 185.1 19.7446 185.9 19.2446 186.4C18.1446 187.5 17.1446 188.6 16.1446 189.8C15.8446 190.2 15.5446 190.6 15.5446 191.1C15.5446 191.4 15.7446 191.7 15.9446 192C16.5446 192.8 17.0446 193.5 17.6446 194.3C17.7446 194.4 17.8446 194.5 17.9446 194.6C18.2446 194.8 18.6446 194.7 18.9446 194.6C19.2446 194.4 19.4446 194.2 19.7446 193.9C21.4446 192.3 23.7446 191.9 25.1446 190C26.5446 188.1 28.0446 186.7 29.6446 185C31.2446 183.4 32.8446 181.6 34.0446 179.8C35.2446 178 35.9446 176.1 35.8446 174.2C35.7446 172.5 35.1446 170.8 34.1446 169.2C32.9446 167.1 31.3446 165.3 29.2446 164.5C27.8446 163.9 26.0446 163.7 24.1446 163.4C21.9446 163 19.3446 162.2 17.5446 160.7C16.6446 160 16.4446 159.1 15.9446 158C14.8446 157.9 13.7446 158.2 13.0446 159.1C11.3446 161 14.2446 164 15.6446 165.3C17.5446 167.1 20.0446 168.2 22.7446 168.2C23.1446 168.2 23.7446 168 23.9446 168.3C24.1446 168.6 23.9446 169.1 23.9446 169.4C23.9446 169.7 23.8446 170 23.9446 170.3C23.9446 171.3 24.2446 172.2 24.7446 173.1C25.2446 174 25.9446 174.7 26.8446 175.3C27.5446 175.8 25.7446 176.1 25.4446 176.1C24.5446 176.1 23.6446 175.8 22.9446 175.3C21.8446 174.5 21.1446 173.3 20.6446 172.1C20.5446 171.8 20.4446 171.5 20.2446 171.3C20.0446 171.1 19.8446 171 19.6446 170.9C18.1446 170.2 16.4446 169.5 14.8446 169.9C13.6446 170.2 12.7446 170.6 11.6446 171.1C8.94456 172.4 6.74456 174.1 4.44456 175.8C4.44456 176.3 4.74457 176.8 5.04457 177.3Z" fill="#0071CE"/>
<path d="M54.6444 139.7C54.8444 140.1 55.0444 140.6 55.1444 141C55.2444 141.3 55.4444 141.6 55.6444 141.8C55.8444 142 56.1444 142.1 56.4444 142.2C61.2444 143.9 66.1444 145.1 71.1444 146C71.3444 146 71.6444 146.1 71.8444 146C72.2444 145.9 72.5444 145.4 72.8444 145.2C73.2444 144.8 73.6444 144.5 74.0444 144.2C74.4444 143.8 74.9444 143.5 75.3444 143.2C75.6444 143 76.2444 142.4 76.5444 142.3C75.3444 142.5 74.1444 142.6 73.0444 142.6C66.1444 142.8 59.2444 141.1 53.3444 137.7C53.6444 138.2 54.0444 138.7 54.3444 139.2C54.4444 139.3 54.5444 139.5 54.6444 139.7Z" fill="white"/>
<path d="M85.6445 85C85.4445 85.6 85.3445 86.4 84.8445 86.8C84.4445 87.2 83.9445 87 83.8445 86.5V86C83.8445 85.5 84.0445 84.9 84.0445 84.4C84.2445 83.1 84.7445 81.9 85.1445 80.7C85.4445 79.7 85.7445 78.6 86.6445 78.1L86.9445 78L87.3445 78.3V78.9C86.8445 80.9 86.1445 82.9 85.6445 85ZM89.6445 87.5C89.5445 87.8 89.5445 88 89.3445 88.2C89.1445 88.4 88.8445 88.5 88.6445 88.4C87.8445 88.1 88.4445 86.4 88.5445 85.8C88.7445 84.7 89.0445 83.7 89.3445 82.7C89.6445 81.6 90.0445 80.5 90.6445 79.6L90.9445 79.3H91.4445C91.6445 79.4 91.6445 79.7 91.5445 79.9C90.9445 82.4 90.3445 84.9 89.6445 87.5ZM94.1445 85.7C93.9445 86.4 93.7445 87.2 93.4445 87.9V88C93.2445 88.5 92.4445 89 92.0445 88.4C91.8445 88 92.1445 87.1 92.1445 86.7C92.2445 85.2 92.7445 83.8 93.2445 82.5C93.6445 81.2 94.1445 80 94.9445 78.8C95.0445 78.6 95.3445 78.3 95.6445 78.4L95.8445 78.9C95.8445 80 95.4445 81.1 95.1445 82.1C94.7445 83.3 94.4445 84.5 94.1445 85.7ZM81.9445 81.9C81.8445 82.2 81.5445 82.5 81.3445 82.4L81.2445 81.9C81.3445 81.2 81.4445 80.5 81.5445 79.9C81.7445 78.8 82.0445 77.8 82.7445 76.9L83.2445 76.6C84.1445 76.5 83.4445 78.2 83.3445 78.6C82.9445 79.7 82.3445 80.8 81.9445 81.9ZM0.54454 176.2C0.34454 175.8 0.24454 175.4 0.0445404 175C0.0445404 174.9 -0.0554596 174.7 0.0445404 174.6C0.0445404 174.5 0.144537 174.4 0.244537 174.4C4.54454 171.5 9.14454 168.6 14.0445 166.7L14.4445 166.5C13.3445 165.6 12.3445 164.5 11.5445 163.2C10.4445 161.4 9.54453 159.5 10.1445 157.4C10.3445 156.6 10.9445 156 11.6445 155.5C13.4445 154.3 15.8445 154.2 17.9445 154C18.0445 154 18.0445 154 18.1445 154C18.2445 154 18.2445 154.1 18.2445 154.2C18.8445 155.9 19.1445 156.9 20.4445 158.2C21.4445 159.2 22.8445 159.6 24.5445 159.9C25.0445 160 25.5445 160.2 25.9445 159.9C26.3445 159.7 26.6445 159.3 26.9445 159C27.7445 158.3 28.5445 157.7 29.3445 157.1C29.5445 157 29.6445 156.9 29.8445 156.8C30.0445 156.7 30.3445 156.8 30.5445 156.8C31.5445 157 32.4445 157.2 33.3445 157.6C34.0445 157.9 34.7445 158.5 35.5445 158C36.3445 157.6 37.1445 157.1 37.8445 156.5C38.1445 156.2 38.4445 155.9 38.7445 155.5C38.9445 155.2 39.3445 154.9 39.4445 154.6C39.8445 153.7 39.8445 152.8 39.8445 151.8C40.2445 146.9 40.7445 142.1 41.4445 137.3C41.7445 134.9 42.1445 132.5 42.6445 130.1C42.8445 128.9 43.0445 127.7 43.3445 126.5C43.5445 125.3 43.8445 124.2 44.0445 123C42.1445 122.3 40.5445 121 38.9445 120C38.0445 119.4 37.1445 118.8 36.7445 117.9C36.4445 117.2 36.4445 116.5 36.4445 115.7C36.4445 111.3 36.7445 107.1 37.5445 102.8C38.0445 100.1 37.9445 97.6 38.7445 94.9C39.0445 93.4 40.4445 92.9 41.7445 92.3C43.2445 91.6 44.8445 91 46.4445 90.4C47.6445 90 48.8445 89.6 50.0445 89.3C50.3445 89.2 52.8445 88.8 52.9445 88.5C53.3445 87.2 53.6445 86 54.0445 84.7C54.1445 84.7 55.8445 79.6 55.9445 79.1C56.7445 76.9 57.9445 74.6 58.7445 72.4C61.1445 72.6 62.9445 72.8 65.3445 72.9C66.5445 73 67.8445 73.2 69.0445 73.2C69.7445 73.2 70.8445 73.4 71.6445 73.4C72.2445 71.6 73.6445 69.7 74.6445 68C74.9445 67.6 77.7445 62.2 78.0445 62.3C78.5445 62.5 83.2445 63.7 84.5445 63.9L84.6445 63.7C88.3445 54.9 92.5445 46.2 97.3445 37.9C98.3445 36.1 99.4445 34.3 100.545 32.5C101.045 31.6 109.345 18.2 109.945 17.3C113.445 11.4 117.145 5.6 121.145 0C123.445 1.5 125.945 2.8 128.145 4.3C127.545 5.4 127.045 6.5 126.445 7.6C125.245 9.8 124.145 11.4 123.145 13.3C121.445 16.5 111.745 32 110.045 35.1C103.945 45.7 99.1445 56.9 94.7445 68.3C94.6445 68.5 97.7445 70.5 97.9445 70.7C99.3445 71.7 100.645 72.8 101.945 73.9C101.845 74.9 101.445 75.8 101.145 76.7C100.845 77.7 100.645 78.8 100.345 79.8C100.245 80.4 98.8445 84.7 99.0445 84.9C102.045 87.6 104.845 90.6 107.945 93.2C107.145 96 106.345 98.9 105.745 101.8C105.445 103.1 105.245 104.3 104.845 105.5C104.745 106 104.245 109 103.845 109.2C104.645 108.9 112.945 107.4 114.145 108.1C114.845 108.5 115.245 109.1 115.745 109.7C117.045 111.4 118.345 113.1 119.645 114.8C116.545 114.8 113.545 114.8 110.445 115.1C107.445 115.4 104.645 115.9 101.745 116.7C100.645 120.5 99.6445 124.3 98.8445 128.1C97.2445 136.2 96.5445 144.5 95.8445 152.8C94.9445 164.1 95.1445 175.7 96.5445 187C97.6445 195.2 98.7445 203.7 100.845 211.7C101.045 212.6 106.145 212.6 106.945 212.6C107.345 213.7 107.945 215.9 108.245 216.8C109.045 219.3 109.745 221.2 110.745 224.8C110.645 224.5 106.745 226.4 106.545 226.5C104.845 227.2 103.045 227.8 101.245 228.3C100.645 228.5 92.8445 230.2 92.8445 230.1C93.5445 232.4 94.2445 235 95.1445 237.6C95.8445 239.9 96.6445 242.1 97.5445 243.9V243.8C98.1445 243.7 98.6445 243.7 99.2445 243.7C101.945 243.6 104.645 243.9 107.245 244.2C107.445 244.2 107.745 243.9 108.045 243.8C108.345 243.7 108.745 243.6 109.045 243.5C109.745 243.4 110.345 243.6 110.945 243.9C111.645 244.2 111.545 244.9 112.245 245.1C112.845 245.3 113.545 245.3 114.145 245.4C115.845 244.9 117.645 244.7 118.945 246.2C119.045 246.4 119.145 246.6 119.245 246.8C119.445 247 119.945 247 120.145 247.1C120.745 247.3 121.445 247.5 122.045 247.8H122.145C123.545 247.7 125.245 247.9 126.245 249C126.545 249.3 126.545 249.6 126.745 250C126.845 250.3 126.745 250.3 127.145 250.6C127.745 251 128.345 251.5 128.945 252C130.045 253 131.045 254 131.945 255.2C133.345 257.2 133.945 259.4 134.245 261.7C134.345 262.4 134.545 263.6 134.645 264.8C134.645 265.4 134.645 266.1 134.445 266.8C134.245 267.5 133.845 268.1 133.245 268.6C132.345 269.3 131.345 269.5 130.545 269.7C128.445 270.2 126.245 270.4 124.045 270.5C118.145 270.7 112.145 269.6 106.645 267.7C99.0445 265.1 92.1445 261.2 85.4445 257.2L84.9445 256.9L84.8445 256.3C84.8445 255.9 84.7445 255.4 84.7445 255C84.7445 253.7 84.7445 252.3 85.0445 251C85.2445 249.7 85.6445 248.3 86.5445 247.1C87.2445 246.2 88.2445 245.5 89.3445 245.2C87.5445 240.7 85.8445 235.6 84.9445 231.4C82.7445 231.6 80.6445 231.8 78.4445 231.9C74.7445 232 71.0445 231.9 67.3445 231.6C67.8445 234.9 69.4445 239.5 70.9445 242.6C73.9445 243.1 76.5445 244.6 78.4445 246.8C80.5445 249.1 81.8445 252.1 81.9445 255.1C81.9445 255.9 81.9445 256.6 81.7445 257.4L81.5445 258.3L80.6445 258.4C70.9445 259.5 61.3445 260.5 51.6445 261.5C45.5445 262.1 39.5445 262.8 33.4445 263.5C30.4445 263.8 27.4445 264.1 24.4445 264.3C22.7445 264.4 22.5445 264.1 22.0445 262.6C21.5445 261 21.1445 259.4 21.1445 257.7C20.9445 252.3 23.1445 247.1 27.9445 244.1C29.6445 243 31.9445 242.4 34.4445 241.9C35.2445 241.7 36.2445 241.7 37.0445 241.6C37.0445 241.3 37.1445 241 37.1445 240.8C37.1445 240.7 37.2445 240.6 37.3445 240.5C37.4445 240.4 37.6445 240.4 37.7445 240.3C38.3445 240.2 38.9445 240.5 39.4445 240.8C39.9445 241.2 40.3445 241.1 41.0445 241.1C41.7445 241.1 42.4445 241.1 43.1445 241C43.0445 240.7 43.2445 240.3 43.5445 240.2C43.8445 240 44.2445 240 44.5445 240.1C45.4445 240.3 45.9445 240.7 46.5445 241.3C46.7445 241.5 47.7445 241.4 48.0445 241.5C48.5445 241.6 49.1445 241.6 49.6445 241.7C49.3445 241.4 50.0445 240.8 50.4445 240.7C50.6445 240.6 50.8445 240.6 51.1445 240.7C51.8445 240.8 52.5445 241 53.1445 241.4C53.4445 241.6 54.1445 242.5 54.5445 242.6C57.4445 243.2 60.2445 243.8 63.0445 244.2C61.4445 239.8 59.8445 234.6 59.0445 230.4C59.0445 230.2 55.6445 229.6 55.2445 229.5C53.8445 229.1 52.4445 228.8 51.0445 228.4C48.3445 227.6 45.6445 226.7 43.0445 225.7C42.8445 225.6 42.6445 225.5 42.4445 225.3C42.3445 225.1 42.2445 224.9 42.2445 224.7C41.3445 220.6 40.3445 216.1 39.9445 212C41.0445 212 42.6445 212.4 43.6445 212.2C43.1445 210 42.3445 207.8 41.8445 205.5C41.3445 203.2 40.8445 200.9 40.5445 198.6C39.8445 194.1 39.4445 189.6 39.2445 185C39.1445 182.3 39.1445 180.4 39.1445 177.7C38.5445 177.6 37.9445 177.4 37.3445 177.3C36.9445 178.3 36.4445 179.3 35.9445 180.3C34.6445 182.4 32.9445 184.3 31.2445 186C29.4445 187.9 27.4445 189.9 25.2445 191.5C22.8445 193.2 19.2445 195.6 16.5445 196.9C16.3445 197 16.1445 197.1 15.9445 197C15.8445 197 15.7445 196.9 15.6445 196.8C13.9445 195 12.5445 193.5 10.9445 191.7C10.8445 191.6 10.8445 191.6 10.8445 191.5C10.8445 191.4 10.9445 191.3 10.9445 191.3C11.7445 190.5 13.3445 188.5 14.0445 187.6C12.6445 188.6 11.0445 189.3 9.44453 190.1C9.04453 190.3 8.64453 190.7 8.14453 190.7C6.44453 188.4 4.64453 185.9 2.94453 183.6C3.04453 183.7 6.44454 180.7 6.74454 180.3C5.24454 180.6 3.64453 180.8 2.34453 181.2C1.94453 179.6 1.24454 177.9 0.54454 176.2ZM46.5445 96.1L45.9445 95.9C44.9445 95.3 43.9445 94.6 43.0445 93.8C42.7445 94 42.3445 94.1 42.0445 94.3C44.6445 96 47.3445 97.9 50.2445 99.1C50.5445 97.7 50.9445 96.2 51.3445 94.8M108.045 34.1C109.445 31.7 118.645 16.9 120.045 14.5C121.245 12.4 122.445 10.5 123.645 8.2C123.845 7.8 124.045 7.5 124.245 7.1L124.945 5.6V5.4L124.845 5.3C123.845 4.7 122.845 4.1 121.845 3.5C121.345 4.1 121.045 4.8 120.545 5.4C117.045 10.6 105.945 28.4 102.745 33.8C101.645 35.6 100.645 37.4 99.6445 39.2C94.9445 47.5 90.7445 56 87.1445 64.8C86.8445 65.5 86.6445 66.2 86.7445 66.9C86.7445 67.3 86.8445 67.6 86.9445 67.9C87.3445 68.9 88.4445 69.6 89.7445 70C90.1445 70.1 90.5445 70.2 90.8445 70.2C91.2445 70.2 91.4445 70.1 91.5445 70C91.6445 69.9 91.7445 69.6 91.9445 69.2C96.5445 57.2 101.645 45.4 108.045 34.1ZM99.2445 75C99.0445 74.9 98.2445 74.2 97.3445 73.5C95.8445 72.2 94.0445 70.7 93.9445 70.8C93.8445 71.1 93.6445 71.4 93.3445 71.7C92.6445 72.4 91.7445 72.6 91.0445 72.6C90.3445 72.6 89.6445 72.5 89.0445 72.3C87.3445 71.8 85.5445 70.7 84.7445 68.8C84.5445 68.2 84.3445 67.6 84.3445 67V66.5C82.6445 66.2 81.0445 65.5 79.2445 65.2C78.2445 66.7 77.2445 68.3 76.2445 69.8C75.5445 70.8 75.1445 72.2 74.5445 73.4C73.8445 74.8 73.1445 76.1 72.5445 77.5C72.2445 78.2 71.8445 78.9 71.5445 79.6L71.4445 79.7L71.5445 79.8C72.9445 82.3 74.8445 84.5 77.1445 86.1C79.1445 87.5 81.5445 88.6 84.0445 89.4C86.6445 90.3 89.4445 91.1 92.0445 91C92.8445 91 93.6445 90.9 94.3445 90.7C94.7445 90.6 95.0445 90.5 95.0445 90.4C95.0445 90.4 95.2445 90.1 95.3445 89.8L96.7445 85.4C97.7445 81.9 98.2445 78.4 99.2445 75ZM103.245 103.4C103.645 102 104.045 100.5 104.445 99.1C104.645 98.2 104.845 97.5 105.145 96.5C105.345 95.7 105.545 94.9 105.745 94.2C104.745 93.3 103.045 91.8 102.645 91.5C101.245 90.3 99.9445 88.9 98.5445 87.7L97.6445 90.5C97.5445 90.9 97.3445 91.4 96.8445 92C96.2445 92.7 95.4445 92.9 94.9445 93C94.0445 93.2 93.0445 93.4 92.0445 93.4C88.9445 93.5 85.9445 92.7 83.1445 91.7C80.5445 90.8 77.9445 89.7 75.6445 88.1C73.0445 86.2 70.9445 83.8 69.3445 81C69.2445 80.8 69.0445 80.4 68.9445 79.8C68.9445 79.2 69.1445 78.8 69.2445 78.6C69.5445 77.9 69.9445 77.2 70.2445 76.5C70.3445 76.3 70.4445 76 70.6445 75.8C70.5445 76 66.8445 75.4 66.4445 75.4C64.7445 75.3 63.0445 75.2 61.3445 75.2C61.2445 75.2 61.0445 75.2 60.9445 75.3C60.8445 75.4 60.7445 75.5 60.6445 75.6C58.6445 78.7 57.4445 82 56.4445 85.5C55.0445 90.4 53.6445 95.2 52.2445 100.1C57.7445 103.3 63.5445 106 69.5445 108.3C74.7445 110.3 79.9445 111.9 85.3445 113.3C86.6445 113.7 87.9445 114.1 89.0445 114.2C89.2445 114.2 89.5445 114.2 89.7445 114.2C90.6445 114.2 91.6445 113.8 92.9445 113.4C95.6445 112.6 98.3445 111.8 101.045 111C101.845 108.4 102.545 105.9 103.245 103.4ZM88.8445 248.5C88.2445 249.2 87.9445 250.3 87.7445 251.4C87.5445 252.6 87.4445 253.7 87.5445 254.9C87.5445 255.1 87.5445 255.3 87.5445 255.5C94.0445 259.4 100.645 263.1 107.745 265.5C113.045 267.3 118.745 268.4 124.245 268.2C126.245 268.1 128.245 267.9 130.245 267.4C130.945 267.2 131.645 267 131.945 266.8C132.045 266.7 132.145 266.5 132.245 266.2C132.345 265.9 132.345 265.4 132.345 264.9C132.345 264 132.145 262.9 132.045 262C131.845 260 131.245 258.2 130.145 256.6C129.245 255.3 128.245 254.2 126.945 253.3C126.345 252.8 125.645 252.3 124.945 251.9C124.745 251.8 124.345 251.6 124.145 251.5C124.045 251.4 124.045 251.3 124.045 251.2C124.145 251.1 124.245 251.1 124.345 251.1H125.745C125.845 251.1 125.945 251.1 125.945 251C126.045 250.9 125.945 250.7 125.845 250.6C125.445 250.2 124.545 250.2 123.945 250.1C123.145 250 122.445 250.1 121.745 250.3C120.545 250.6 119.445 250.6 118.245 251.1C116.745 251.7 115.345 252.6 114.045 253.6C113.445 254.1 112.745 254.7 112.245 255.3C111.745 255.8 111.345 256.7 110.545 256.8C110.145 256.9 109.645 256.7 109.345 256.5C109.245 256.4 109.145 256.3 109.145 256.2C108.645 254.9 111.445 252.8 112.245 252.1C113.745 250.8 115.445 249.8 117.345 249.1C117.445 249.1 117.545 249 117.645 249C116.545 248.7 115.545 248.4 114.445 248.2C112.445 248.9 110.645 249.9 109.145 251.3C108.345 252 107.645 252.7 107.045 253.5C106.545 254.1 105.745 254.9 104.845 254.3C104.645 254.2 104.445 254 104.445 253.8C104.445 253.6 104.445 253.4 104.545 253.2C104.945 252 106.045 250.9 106.945 250.1C108.045 249.1 109.245 248.2 110.545 247.4C109.645 247.2 108.845 247.1 107.945 246.9C107.445 247.2 106.945 247.5 106.545 247.9C105.545 248.8 104.545 249.7 103.645 250.8C103.345 251.1 103.245 251.5 102.945 251.9C102.745 252.2 102.345 252.5 101.945 252.6C101.545 252.7 101.045 252.6 100.845 252.2C100.545 251.7 100.845 251.2 101.145 250.7C102.145 249.2 103.345 247.6 104.745 246.4C103.045 246.2 101.245 246.1 99.5445 246.2C99.3445 246.2 99.1445 246.2 98.9445 246.2C99.2445 246.8 99.4445 247.4 99.4445 248.1C99.4445 249.3 99.0445 250.5 97.9445 251.4C97.2445 252 96.3445 252.2 95.5445 252.3C94.3445 252.3 93.3445 251.9 92.4445 251.1C91.4445 250.1 91.0445 248.7 90.5445 247.5C89.9445 247.5 89.2445 247.9 88.8445 248.5ZM94.0445 249.3C94.3445 249.7 94.9445 249.9 95.5445 249.9C95.9445 249.9 96.2445 249.8 96.5445 249.6C96.9445 249.2 97.1445 248.8 97.1445 248.2C97.1445 247.8 97.0445 247.5 96.8445 247.1C95.3445 244.8 94.1445 241.6 93.1445 238.5C92.2445 235.7 91.4445 233 90.7445 230.7C89.7445 230.9 88.7445 231.1 87.7445 231.2C88.9445 236.7 91.6445 244.2 94.0445 249.3ZM56.8445 245.4C57.3445 246.1 57.7445 247.2 57.9445 247.5C58.2445 248.2 58.4445 248.9 58.6445 249.7C58.6445 249.8 58.7445 250 58.6445 250.1C58.6445 250.2 58.5445 250.3 58.4445 250.4C58.1445 250.8 57.5445 250.9 57.1445 250.8C56.0445 250.5 55.8445 248.8 55.4445 248C55.1445 247.4 54.8445 246.8 54.4445 246.3C54.2445 246 53.6445 244.9 53.3445 244.8C51.9445 244.5 50.6445 244.3 49.2445 244.1C49.3445 244.3 49.5445 244.5 49.6445 244.7C50.4445 245.9 51.1445 247.2 51.6445 248.6C51.8445 249.1 52.0445 249.6 51.9445 250.1C51.8445 250.6 51.4445 251.1 50.9445 251.1C50.7445 251.1 50.5445 251 50.4445 251C50.2445 250.9 50.1445 250.8 49.9445 250.6C49.7445 250.4 49.6445 250.2 49.5445 249.9C48.9445 248.5 48.3445 247.1 47.5445 245.9C47.0445 245.1 46.4445 244.3 45.7445 243.7C44.6445 243.6 43.5445 243.6 42.4445 243.6C42.7445 243.6 43.6445 245 43.7445 245.2C44.1445 245.8 44.5445 246.4 44.9445 247C45.5445 248.1 46.5445 249.6 46.4445 250.9C46.4445 251.1 46.3445 251.4 46.1445 251.6C45.7445 252 45.1445 251.9 44.7445 251.6C44.3445 251.3 44.1445 250.8 43.8445 250.4C43.2445 249.1 42.7445 248 41.8445 246.8C41.4445 246.2 41.0445 245.7 40.5445 245.2C40.0445 244.6 39.4445 244 38.8445 243.5C38.3445 243.1 37.6445 242.4 36.9445 242.5H36.8445C36.8445 242.5 36.7445 242.6 36.7445 242.7C36.7445 242.9 36.8445 243 36.9445 243.2C37.0445 243.3 37.2445 243.5 37.2445 243.6C37.4445 244.2 35.3445 244.3 34.8445 244.4C32.5445 244.8 30.3445 245.5 29.2445 246.2C27.5445 247.3 26.1445 248.6 25.1445 250.4C23.9445 252.7 23.4445 255.2 23.5445 257.8C23.6445 259.6 23.5445 261.8 25.6445 261.9C27.1445 262 28.8445 261.6 30.3445 261.5C32.7445 261.3 35.1445 261 37.5445 260.7C42.1445 260.2 46.8445 259.6 51.4445 259.2C60.7445 258.3 70.1445 257.3 79.4445 256.2C79.4445 255.9 79.5445 255.6 79.5445 255.3C79.4445 252.9 78.3445 250.4 76.6445 248.4C75.4445 247 73.8445 246 72.1445 245.4C72.3445 245.8 72.4445 246.3 72.5445 246.7C72.6445 247 72.7445 247.4 72.7445 247.8C72.7445 248.2 72.7445 248.7 72.4445 249.1C72.0445 249.9 71.3445 250.3 70.7445 250.6C70.2445 250.8 69.6445 250.9 69.0445 251C68.2445 251 67.4445 250.9 66.6445 250.5C65.1445 249.7 64.3445 248.3 63.7445 246.8H63.6445H63.5445C61.6445 246.4 59.2445 245.9 56.8445 245.4ZM62.3445 233.1C62.5445 233.9 62.7445 234.7 62.9445 235.4C63.4445 237 63.9445 238.6 64.4445 240.2C64.9445 241.7 65.4445 243.2 66.0445 244.7C66.2445 245.4 66.5445 246.2 66.8445 246.8C67.1445 247.4 67.5445 248 68.2445 248.3C68.5445 248.5 69.0445 248.6 69.4445 248.6C70.3445 248.6 70.9445 248.2 70.6445 247.3C70.4445 246.5 70.1445 245.7 69.7445 244.9C67.8445 241.4 65.7445 235.6 65.2445 231.4C64.0445 231.3 62.9445 231.1 61.8445 230.9C61.8445 230.9 62.2445 232.9 62.3445 233.1ZM43.4445 218.6C43.7445 220.1 44.0445 221.5 44.4445 222.9C44.5445 223.1 44.5445 223.4 44.7445 223.6C44.9445 223.8 45.1445 223.9 45.3445 223.9C55.8445 228.1 67.3445 230 78.6445 229.6C86.9445 229.3 94.7445 227.6 102.545 225.2C104.345 224.6 106.045 224.2 107.945 223.5C107.145 221.4 106.645 219.6 105.845 217.4C105.545 216.6 105.245 215.7 104.945 214.9C104.645 214.9 102.045 215 102.045 214.8C102.045 215.2 102.245 216 102.445 216.4C102.745 217.2 102.945 218 103.245 218.7C103.245 218.8 103.345 218.9 103.245 218.9L103.145 219C101.845 220 100.745 221 99.3445 221.7C97.9445 222.5 96.4445 223.1 94.8445 223.7C91.7445 224.8 88.5445 225.4 85.2445 225.5C81.3445 225.6 77.4445 225.1 73.7445 223.8C72.1445 223.2 71.1445 222.7 70.7445 222.5C69.6445 222.6 67.7445 223.3 66.2445 223.6C63.9445 224.1 61.4445 224.6 59.1445 224.7C57.2445 224.8 55.5445 224.4 53.6445 224.1C51.7445 223.8 49.8445 223.1 48.0445 222.2C47.8445 222.1 47.6445 222 47.4445 221.8C47.2445 221.6 47.1445 221.3 47.0445 221.1C46.3445 219.2 45.6445 217.3 45.0445 215.4C44.6445 214.2 43.6445 214.5 42.6445 214.4C42.8445 215.8 43.1445 217.2 43.4445 218.6ZM64.2445 182.9C64.0445 178.5 63.9445 174.5 64.0445 169.6C64.0445 168.1 64.2445 165.3 65.0445 163.5C65.9445 181.6 67.8445 199.4 72.0445 217.1C72.4445 218.8 72.5445 219.9 73.4445 220.8C74.1445 221.4 75.4445 221.9 76.6445 222.3C79.3445 223 82.2445 223.3 85.0445 223.2C90.3445 223 95.6445 221.4 99.9445 218.6L100.245 218.4C100.245 218.4 100.245 218.4 100.345 218.3C100.345 218.2 100.345 218 100.245 217.7C99.4445 215 98.7445 212.3 98.1445 209.5C97.3445 206.1 96.7445 202.7 96.1445 199.3C95.5445 196 95.2445 192.6 94.4445 189.4C89.6445 190 84.7445 190.6 79.9445 189.7C78.7445 189.5 77.4445 189.1 76.5445 188.3C75.3445 187.3 74.8445 185.5 75.2445 184C75.1445 184.6 76.5445 185.9 76.9445 186.2C77.6445 186.8 78.5445 187.2 79.5445 187.4C82.7445 187.9 86.1445 187.6 89.0445 186C96.2445 181.9 93.6445 173.2 93.6445 166.4C93.6445 157.6 94.2445 148.7 95.3445 140C96.2445 132.5 97.4445 125 99.5445 117.8C99.4445 118.1 96.3445 119 95.9445 119.1C94.5445 119.7 93.7445 119.9 93.2445 121.3C92.0445 124.6 90.9445 127.9 89.7445 131.2C89.3445 132.3 88.8445 133.6 87.8445 134.2C86.6445 135 85.1445 134.8 83.7445 134.6C80.0445 134 76.3445 133.2 72.7445 132.3C70.9445 131.8 69.1445 131.3 67.3445 130.7C66.1445 130.3 64.6445 129.8 64.1445 128.6C63.7445 127.8 63.7445 126.8 63.8445 125.9C63.9445 123.8 63.9445 121.7 64.0445 119.6L64.1445 116.3C64.1445 115.8 64.4445 114.4 64.1445 114L63.9445 113.9C63.2445 113.5 62.4445 113.1 61.6445 112.8C61.6445 112.8 59.4445 118.2 59.2445 118.7C58.2445 120.7 57.3445 122.6 56.1445 124.5C55.8445 125 55.4445 125.5 54.9445 125.8C53.9445 126.4 52.5445 126.1 51.4445 125.8C49.8445 125.4 48.3445 124.7 46.8445 124.1C44.1445 137.4 42.5445 150.9 42.1445 164.5C42.0445 168.4 41.9445 172.2 41.9445 176.1C41.9445 178 41.9445 180 42.0445 181.9C42.0445 183.5 42.1445 185 43.6445 185.9C44.4445 186.4 45.2445 186.6 46.1445 186.8C47.0445 187 47.9445 187.2 48.8445 187.4C51.2445 188 53.8445 188.5 56.2445 188.2C55.3445 189.2 53.9445 189.4 52.5445 189.5C50.2445 189.6 47.8445 189.7 45.5445 189.4C44.4445 189.3 43.6445 189.1 42.2445 189C42.3445 191.6 42.8445 194.3 43.1445 196.9C43.4445 199.5 43.9445 202.1 44.5445 204.6C45.1445 207.2 45.9445 209.8 46.7445 212.3C47.1445 213.6 47.5445 214.9 47.9445 216.2C48.0445 216.6 48.9445 219.6 49.1445 219.6C49.2445 219.9 49.3445 220.2 49.6445 220.4C49.8445 220.5 49.9445 220.6 50.1445 220.7C51.1445 221.1 52.2445 221.5 53.2445 221.8C55.1445 222.4 57.2445 222.6 59.2445 222.5C61.3445 222.4 63.6445 222 65.7445 221.6C67.0445 221.3 68.3445 221 69.9445 220.6C68.5445 214.1 67.1445 207.7 66.2445 201.1C65.0445 194.4 64.5445 189.6 64.2445 182.9ZM39.6445 158.2C38.9445 158.8 38.2445 159.3 37.4445 159.8C38.2445 160.4 38.8445 161.1 39.4445 161.9C39.5445 160.7 39.6445 159.5 39.6445 158.2ZM36.2445 167.1C37.2445 168.9 38.1445 171 38.2445 173.3C38.2445 173.9 38.1445 174.4 38.1445 175C38.4445 175.1 38.7445 175.2 39.1445 175.3H39.2445C39.3445 175.3 39.3445 175.2 39.3445 175.2C39.4445 174.1 39.3445 173 39.3445 171.9C39.3445 171.1 39.3445 170.3 39.3445 169.5C39.3445 168.6 39.3445 167.8 39.3445 167C39.3445 166.3 39.0445 165.7 38.7445 165C38.4445 164.4 38.0445 163.8 37.6445 163.3C36.0445 161.4 33.6445 160 31.4445 159C31.3445 159 31.2445 158.9 31.0445 158.9C30.9445 158.9 30.8445 159 30.7445 159C29.9445 159.5 29.2445 159.9 28.6445 160.6C29.0445 160.8 29.9445 161.2 30.3445 161.2C33.0445 162.4 34.9445 164.8 36.2445 167.1ZM6.94453 185.1C7.54453 186 8.24454 187 9.04454 187.8C9.04454 187.9 9.14453 187.9 9.14453 187.9C9.24453 187.9 9.34453 187.9 9.34453 187.9C11.0445 187.2 12.7445 186.3 14.3445 185.4C15.2445 184.9 16.0445 184.4 16.9445 183.9C17.5445 183.6 17.9445 183.2 18.4445 182.8C17.8445 181.9 17.0445 181.1 16.3445 180.3C16.0445 179.9 15.6445 179.5 15.3445 179C14.8445 179.2 14.2445 179.3 13.7445 179.5C12.3445 180 10.8445 180.5 9.64453 181.3C8.44453 182.1 7.34454 182.9 6.04454 184C6.54454 184.3 6.74453 184.7 6.94453 185.1ZM3.84453 177.4C4.04453 177.9 4.14453 178.4 4.34453 178.9C6.24453 178.5 8.14454 178.2 10.0445 177.7C11.4445 177.4 12.8445 177 14.1445 176.5C14.0445 176.2 13.7445 176 13.6445 175.6C13.5445 175.2 13.5445 174.8 13.6445 174.4C13.7445 173.9 13.9445 173.3 14.4445 173.2C14.7445 173.1 15.1445 173.3 15.3445 173.6C15.5445 173.9 15.6445 174.2 15.8445 174.5C16.5445 176.3 17.5445 178 18.7445 179.6C19.3445 180.4 20.0445 181.1 20.7445 181.8C21.4445 182.4 22.1445 183 22.9445 183.6C23.2445 183.8 23.4445 184.1 23.4445 184.4C23.4445 184.6 23.2445 184.8 23.0445 184.9C22.8445 185 22.5445 185 22.3445 185C21.8445 185 21.4445 184.8 21.0445 184.6C20.6445 184.3 20.4445 184.4 20.0445 184.7C19.1445 185.4 18.2445 185.9 17.4445 186.7C16.2445 188.1 15.1445 189.5 13.9445 190.9C14.8445 192.1 15.8445 193.2 16.8445 194.2C19.2445 192.7 21.6445 191.3 23.9445 189.7C25.9445 188.3 27.8445 186.4 29.6445 184.5C31.2445 182.8 32.8445 181 34.0445 179.2C35.2445 177.3 35.9445 175.4 35.8445 173.4C35.7445 171.7 35.1445 169.9 34.1445 168.3C32.9445 166.2 31.3445 164.3 29.3445 163.4C27.9445 162.8 26.1445 162.6 24.2445 162.2C22.4445 161.9 20.4445 161.4 18.8445 159.8C17.8445 158.8 16.9445 157.8 16.6445 156.3C16.6445 156.2 14.1445 156.7 13.8445 156.8C11.9445 157.7 12.4445 159.1 13.0445 160.7C13.5445 161.9 14.3445 163.1 15.3445 164C17.3445 165.9 20.0445 167.1 22.8445 167.2C23.2445 167.2 23.8445 167 24.0445 167.4C24.2445 167.7 24.0445 168.2 24.0445 168.5C24.0445 168.8 23.9445 169.1 24.0445 169.5C24.0445 170.5 24.3445 171.5 24.8445 172.4C25.3445 173.4 26.0445 174 26.9445 174.6L27.1445 174.9L26.9445 175.1C26.4445 175.3 25.9445 175.1 25.4445 175C24.3445 174.6 23.4445 174 22.7445 173.1C22.3445 172.6 22.0445 171.9 21.9445 171.3C21.8445 170.8 21.5445 169.9 21.7445 169.4C20.7445 169.2 19.7445 168.9 18.7445 168.6C18.4445 168.5 18.1445 168.4 17.8445 168.3C17.0445 168.2 16.1445 168.5 15.3445 168.8C13.1445 169.7 11.0445 170.7 9.04454 172C7.34454 173.1 5.94453 173.8 3.64453 175.1C3.54453 175.1 3.44453 175.1 3.34453 175.2C3.24453 175.3 3.24453 175.5 3.34453 175.7C3.44453 176.2 3.64453 176.8 3.84453 177.4Z" fill="#231F20"/>
<path d="M80.1445 128.2C79.5445 123.5 77.6445 119.1 77.1445 114.4C77.1445 114.6 78.6445 114.7 78.8445 114.9C79.3445 115.3 79.1445 115.2 79.3445 115.8C79.7445 117 79.6445 118.6 79.7445 119.9C79.9445 122.6 80.0445 125.4 80.1445 128.2Z" fill="white"/>
<path d="M51.4446 125.7C47.8446 124.6 44.3446 123 41.0446 121.1C39.9446 120.4 38.6446 119.9 37.6446 119C36.6446 118 36.6446 116.4 36.7446 115.1C37.0446 108.3 38.0446 101.6 38.9446 94.8999C37.9446 98.1999 37.2446 101 36.7446 104.1C36.3446 106.5 35.9446 108.9 35.6446 111.3C35.2446 113.6 34.7446 116.4 35.8446 118.5C36.8446 120.4 39.3446 121.4 41.0446 122.5C43.4446 124 45.9446 125.3 48.4446 126.4C48.9446 126.6 49.4446 126.8 49.9446 126.8C50.4446 126.8 51.0446 126.7 51.4446 126.5" fill="white"/>
<path d="M46.8445 95.8001C47.0445 95.9001 47.1445 96.0001 47.3445 96.1001C48.7445 97.0001 50.1445 97.8001 51.5445 98.7001C52.8445 99.5001 54.3445 100.5 55.7445 101C57.1445 101.4 58.4445 102.2 59.6445 103.1C61.6445 104.6 64.6445 105.9 67.1445 106.5C62.7445 105.5 58.3445 103.5 54.3445 101.6C52.1445 100.6 50.0445 99.5001 48.0445 98.3001C45.9445 97.1001 44.1445 95.6001 42.1445 94.3001C42.5445 94.0001 42.9445 93.8001 43.3445 93.5001C43.4445 93.4001 45.1445 94.7001 45.3445 94.8001C45.7445 95.1001 46.2445 95.5001 46.8445 95.8001Z" fill="white"/>
<path d="M103.844 116.4C101.044 117 98.3444 118 95.6444 118.9C95.1444 119.1 94.6444 119.2 94.2444 119.5C93.1444 120.3 92.6444 121.7 92.3444 123C93.0444 122.6 93.4444 122.4 94.1444 122C96.5444 120.7 98.3444 119.8 100.444 118.8C103.144 117.5 105.644 116.4 108.544 115.7" fill="white"/>
<path d="M97.0446 112.2C94.8446 112.8 92.3446 113.8 90.0446 114.1C90.3446 112.9 91.7446 112.4 92.9446 112.1C98.9446 110.4 104.645 109 110.745 108.2C109.645 108.5 108.545 108.8 107.545 109.1C106.245 109.4 104.945 109.8 103.645 110.2C101.145 110.8 100.345 111.3 97.0446 112.2Z" fill="white"/>
<path d="M75.3445 122.7C74.6445 119.5 73.8445 116.2 72.8445 113.1C73.6445 113.7 73.8445 113.6 74.1445 114.4C74.4445 115.2 74.4445 116.4 74.6445 117.3C74.9445 119 74.9445 120.9 75.3445 122.7Z" fill="white"/>
<path d="M48.5444 112.6C47.2444 110.3 47.2444 107.6 46.5444 105.2C46.1444 103.8 45.4444 102.5 45.4444 101C46.2444 101.6 46.8444 101.8 47.1444 102.6C47.5444 103.6 47.4444 105 47.6444 106C47.8444 107.1 47.9444 108.3 48.1444 109.4C48.1444 110.3 48.1444 111.8 48.5444 112.6Z" fill="white"/>
<path d="M44.1445 106.4C43.2445 104.1 42.3445 101.6 42.0445 99.2002C44.7445 99.9002 43.4445 104.5 44.1445 106.4Z" fill="white"/>
<path opacity="0.3" d="M75.9445 94.6999C77.5445 96.7999 78.9445 98.0999 79.9445 98.7999C82.0445 100.2 83.9445 101 85.8445 101.6C90.0445 102.9 95.2445 102.8 99.1445 100.3C101.245 98.8999 103.245 97.5999 104.045 95.1999C104.145 94.9999 104.145 94.7999 104.145 94.4999C104.145 94.1999 103.945 93.9999 103.745 93.7999C101.945 91.6999 99.8445 89.8999 97.6445 88.2999C96.8445 89.1999 95.7445 91.1999 94.7445 91.6999C92.7445 92.7999 88.2445 91.7999 86.2445 91.0999C84.6445 90.5999 83.1445 89.7999 81.7445 88.9999C79.8445 87.9999 78.1445 86.8999 76.3445 85.5999C74.8445 84.4999 73.3445 83.2999 71.9445 81.9999C70.4445 80.6999 70.3445 78.3999 71.5445 76.8999C68.7445 76.3999 65.9445 76.1999 63.1445 76.2999C62.9445 76.2999 62.6445 76.2999 62.4445 76.3999C62.2445 76.4999 62.0445 76.6999 61.9445 76.8999C60.1445 79.2999 58.7445 83.0999 59.7445 85.7999C60.6445 88.1999 62.8445 89.6999 65.1445 90.6999C66.0445 91.0999 67.9445 91.4999 70.1445 91.5999C70.0445 93.8999 69.6445 96.2999 69.3445 98.4999C69.0445 100.5 68.7445 103.3 68.3445 105.6C68.7445 104.9 75.5445 94.2999 75.9445 94.6999Z" fill="#231F20"/>
<path opacity="0.3" d="M69.9446 217.1C70.0446 217.8 70.2446 218.5 70.4446 219.1C71.0446 221.8 65.0446 222 63.4446 222.9C60.6446 213.2 59.3446 202.6 59.3446 192.5C59.3446 183.2 61.1446 173.3 64.7446 164.9C65.3446 182.5 66.2446 200 69.9446 217.1Z" fill="#231F20"/>
<path opacity="0.3" d="M98.4445 249.1C98.4445 249.2 98.4445 249.3 98.4445 249.4C98.2445 250.5 96.9445 251.2 95.7445 251.1C94.5445 251 93.5445 250.2 92.8445 249.3C90.5445 247.2 90.6445 243.5 89.1445 240.9C88.6445 240 88.3445 239 88.0445 238C87.2445 235.5 86.4445 233.1 85.7445 230.6C87.0445 230.4 88.7445 229.4 90.0445 229C90.1445 229 90.3445 228.9 90.4445 229C90.7445 229.1 90.8445 229.4 90.8445 229.6C91.8445 233.3 93.1445 236.9 94.6445 240.4C95.7445 242.9 98.6445 246.4 98.4445 249.1Z" fill="#231F20"/>
<path opacity="0.3" d="M71.7446 247.1C71.7446 247.2 71.7446 247.3 71.7446 247.4C71.5446 248.5 70.2446 249.2 69.0446 249.1C67.8446 249 66.8446 248.2 66.1446 247.3C63.8446 245.2 63.9446 241.5 62.4446 238.9C60.8446 236 60.6446 232.8 60.4446 229.6C62.4446 229.9 64.4446 229.9 66.3446 229.6C66.1446 232.6 66.7446 235.7 68.0446 238.4C68.9446 240.9 71.9446 244.4 71.7446 247.1Z" fill="#231F20"/>
<path d="M48.6446 129.9C49.8446 137 53.4446 153.3 64.9446 153.9C74.7446 154.4 81.7446 143.1 83.7446 141C80.6446 141.2 77.4446 140.9 74.4446 140.4C72.5446 140.1 70.6446 140 68.8446 139.5C64.8446 138.5 60.4446 137.1 56.7446 135.3C55.2446 134.5 53.7446 133.6 52.2446 132.7C51.0446 131.9 49.9446 130.5 48.6446 129.9C48.6446 129.8 48.6446 129.8 48.6446 129.9Z" fill="#231F20"/>
<path d="M56.9446 142.7C56.6446 142.6 56.3446 142.4 56.0446 142.3C55.9446 142.3 55.8446 142.2 55.7446 142.1C55.6446 142 55.5446 141.8 55.4446 141.7C54.8446 140.4 54.4446 139 54.2446 137.6C56.7446 139.1 59.2446 140.1 61.9446 141.2C66.3446 142.9 71.0446 144 75.7446 143.7C74.3446 145.4 72.1446 146 70.0446 145.9C65.7446 146.1 60.9446 144.4 56.9446 142.7Z" fill="white"/>
<path d="M97.8444 129.2C97.9444 129.2 97.0444 134.4 96.6444 135C95.2444 136.6 91.0444 137.9 89.0444 138.3C89.7444 139.1 90.7444 139.1 91.8444 139.1C94.7444 139.1 97.8444 139.3 100.544 137.9C101.544 137.4 103.344 135.9 103.844 134.8C104.744 132.4 99.5444 130 97.8444 129.2Z" fill="#231F20"/>
<path d="M102.245 176.4C102.445 178.5 102.745 180.7 103.045 182.8C96.0446 186.9 87.0446 189.1 78.8446 189.1C76.7446 189.1 74.9446 187.5 74.6446 185.4C74.2446 182 73.9446 178.5 73.6446 175.1C73.4446 172.8 73.3446 170.6 73.2446 168.3C73.2446 167.8 72.7446 162.4 73.1446 162.2C77.0446 160.5 80.0446 157.2 82.8446 154C86.6446 149.6 88.4446 144 88.9446 138.3C93.4446 138.4 99.9446 137 103.745 134.6C103.645 135.2 102.945 138.3 102.845 138.8C102.445 140.9 102.145 143.4 101.945 145.6C101.545 149.8 101.445 153.6 101.345 157.8C101.245 164 101.545 170.2 102.245 176.4Z" fill="#E1251B"/>
<path d="M93.8445 143.4C92.7445 144.6 92.1445 146.4 91.8445 147.9C90.6445 152.4 90.9445 156.9 93.1445 161.1C93.7445 162.2 94.4445 163.2 95.6445 163.6C96.9445 163.9 98.2445 163.2 99.0445 162.2C99.8445 161.2 100.145 159.8 100.445 158.6C101.145 155 101.545 151.3 101.445 147.6C101.445 145.9 101.545 143.5 99.9445 142.6C99.4445 142.3 98.9445 142.2 98.4445 142.1C97.6445 142 96.7445 141.9 96.0445 142.1C95.1445 142.2 94.4445 142.7 93.8445 143.4Z" fill="#231F20"/>
<path d="M122.144 164.2C120.644 159.7 117.544 155.6 114.344 152.5C110.744 149 106.344 146.9 101.744 145.6C100.244 145.1 97.5445 143.8 95.9445 144.9C94.5445 145.9 94.3445 147.7 94.8445 149.1C95.1445 150 96.2445 150.9 96.6445 151.8C97.0445 152.8 97.2445 153.9 97.5445 154.9C98.3445 157.4 100.144 159.6 102.444 160.8C105.944 162.8 110.344 162.5 114.244 163.6C116.244 164.1 117.344 165.4 116.644 167.5C116.244 168.6 115.644 169.5 115.044 170.5C112.944 169 110.444 168.2 107.944 167.9C107.844 167.9 107.744 167.9 107.644 167.9C107.444 168 107.444 168.2 107.444 168.4C107.244 170 106.444 171.1 105.744 172.5C105.044 173.8 104.544 175.3 103.444 176.3C102.644 177 101.644 177.4 100.844 178C98.5445 179.5 97.1445 182.1 96.0445 184.6C94.7445 187.4 93.4445 190.4 93.6445 193.5C93.6445 194.2 93.8445 194.8 94.1445 195.4C94.7445 196.5 95.7445 197.2 96.5445 198.1C97.5445 199.3 98.0445 200.9 99.2445 202C99.8445 202.6 100.644 202.9 101.444 203.2C106.444 205.1 112.344 204.7 117.344 202.9C118.044 202.6 118.644 202.3 119.344 201.8C119.744 201.5 120.144 201 120.644 200.6C120.844 200.5 119.444 196.6 117.944 195C117.544 194.6 116.744 194.6 116.144 194.7C117.044 193.3 118.144 189.9 118.444 188.2C119.044 185.6 119.444 185.8 121.144 183.8C121.744 183.1 122.344 182.4 122.344 181.5C122.344 180.6 121.744 179.8 121.344 179C120.444 177.3 121.344 176.1 122.044 174.6C122.844 172.9 123.344 171 123.344 169.1C122.944 167.5 122.644 165.8 122.144 164.2Z" fill="white"/>
<path d="M102.644 177.9C101.044 179 99.5445 180.3 98.0445 181.6C97.1445 182.4 96.3445 183.2 95.7445 184.2C95.4445 184.7 95.2445 185.1 95.0445 185.6C93.7445 189 93.6445 192.6 95.7445 195.7C95.9445 195.8 96.0445 195.9 96.2445 195.9C96.2445 195.8 96.2445 195.6 96.2445 195.5C96.3445 194.3 96.7445 190.6 98.4445 190.5C100.244 190.4 98.8445 193.6 98.7445 194.6C98.3445 197.5 98.7445 200.5 101.444 201.9C101.144 200.9 100.944 200 100.944 199V198.9C100.944 197.7 101.244 195.8 101.844 194.7C102.544 193.5 104.344 193.7 104.344 195.3C104.344 196.5 103.544 197.6 103.544 198.9V199C103.544 200.1 103.844 201.2 104.344 202.1C104.844 203 105.544 203.6 106.344 203.8C106.744 203.9 107.244 204 107.744 204H108.344C109.944 203.9 111.644 203.7 113.144 203.2C114.644 202.7 115.944 201.7 117.344 201.1C116.844 200.4 116.744 199.2 116.044 198.6C115.744 198.3 115.344 198.4 114.944 198.4C113.244 198.6 112.744 198.8 111.544 200C111.044 200.5 109.844 202 109.044 201.2C108.844 201 108.844 200.6 108.944 200.3C109.044 200 109.244 199.7 109.444 199.5C111.744 196.8 113.244 193.4 114.744 190.2C115.144 189.4 115.444 188.6 115.644 187.9C116.144 186.2 114.444 184.4 112.944 183.7C111.644 185.8 110.344 187.8 109.044 189.9C108.944 190.1 108.744 190.4 108.444 190.4C108.044 190.5 107.744 190.1 107.644 189.8C107.544 189.4 107.744 189.1 107.844 188.7C108.844 186.6 110.444 184.7 111.144 182.5C111.244 182.2 111.344 181.9 111.244 181.6C111.144 181.3 110.944 181.1 110.644 181.1C110.344 181.1 110.244 181.3 110.044 181.5C108.644 183.2 107.244 185 105.844 186.7C105.744 186.9 105.544 187 105.344 187.1C105.044 187.2 104.744 186.9 104.644 186.5C104.544 186.1 104.744 185.8 104.844 185.5C105.644 183.7 106.844 182.1 108.244 180.7C108.544 180.4 108.844 180.1 108.844 179.7C108.744 179.3 108.244 179 107.844 179.1C107.444 179.2 107.044 179.5 106.744 179.8C105.944 180.6 105.144 181.3 104.344 182.1C103.844 182.6 103.244 183.1 102.544 183.1C102.844 181.5 104.144 180.2 105.344 179.1C105.644 178.9 105.844 178.6 105.944 178.3C106.144 177.6 105.344 176.8 104.644 176.8C104.044 176.9 103.344 177.4 102.644 177.9Z" fill="#0071CE"/>
<path d="M40.7446 141.5C41.0446 142.8 41.3446 144.1 41.7446 145.1C43.2446 149.2 46.3446 152.6 49.4446 155.5C51.7446 157.7 54.2446 159.3 56.9446 160.9C51.9446 157.9 48.2446 150.5 46.3446 145.2C45.2446 142.1 44.5446 138.8 44.3446 135.5C44.2446 134.4 44.5446 132.5 43.7446 131.6C42.6446 130.4 41.4446 131.3 40.8446 132.8C39.9446 135.3 40.1446 138.6 40.7446 141.5Z" fill="#231F20"/>
<path d="M121.544 177.6C121.944 178 123.644 180.4 124.144 181.8C123.744 182.3 123.444 182.8 123.044 183.3C122.644 183.8 122.044 184.4 121.644 184.9C120.644 186 119.544 187.1 118.544 188.1C118.444 188.2 118.344 188.3 118.244 188.3C117.844 188.5 117.344 188.1 117.144 187.7C116.844 188.9 116.744 189.8 116.244 190.9C115.644 192.3 115.044 193.7 114.244 195.1C114.044 195.4 113.944 195.6 113.744 195.9C113.944 195.6 116.144 195.8 116.444 195.8C116.544 195.8 116.644 195.8 116.744 195.8C116.844 195.8 116.944 195.9 116.944 196C118.344 197.6 118.744 199.3 119.344 201.3C119.344 201.4 119.444 201.5 119.344 201.6C119.344 201.7 119.244 201.8 119.144 201.8C116.044 204.4 111.844 206.6 107.844 206.3H107.244C105.744 206.3 104.044 206 102.944 204.8C102.844 204.7 102.744 204.5 102.544 204.5C102.444 204.4 102.244 204.4 102.044 204.4C101.944 204.4 101.844 204.4 101.744 204.4C100.944 204.3 100.244 204.2 99.5444 203.7C99.1444 203.5 98.8444 203.2 98.5444 202.9C97.8444 202.2 97.1444 201.2 96.6444 200.3C96.5444 200.1 96.4444 200 96.3444 199.8C96.2444 199.6 96.0444 199.5 95.8444 199.4C95.2444 198.9 94.7444 198.5 94.2444 197.9C93.1444 196.5 92.2444 194.8 91.9444 192.9C91.8444 192.2 91.7444 191.6 91.7444 190.9C91.7444 186.5 94.1444 182.7 97.0444 179.6C98.4444 178 100.044 176.6 101.544 175C102.944 173.5 103.644 171.5 104.944 169.9C105.544 169.1 106.444 168.3 107.144 167.7C108.444 167.9 109.644 168.3 110.844 168.9C111.644 169.3 112.144 169.5 112.944 170.1C113.344 169.4 114.144 168.6 114.544 167.9C115.344 166.5 115.244 165.1 113.544 164.6C112.344 164.2 111.044 164.3 109.744 164.2C102.944 164 96.5444 159.7 93.6444 153.6C92.0444 150.1 91.1444 144.7 94.9444 142.2C96.8444 140.9 99.6444 142.2 101.644 143C107.044 145 111.944 147.4 116.244 151.3C118.344 153.2 120.044 155.4 121.744 157.7C123.744 160.4 126.844 163.3 126.544 167C126.644 169 122.144 176.8 121.544 177.6ZM102.944 178.3C100.544 180.3 98.3444 182.2 96.6444 184.6C95.3444 186.5 94.4444 188.8 94.4444 191C94.4444 191.5 94.4444 192 94.5444 192.5C94.7444 193.5 95.1444 194.5 95.7444 195.5C95.9444 195.6 96.0444 195.7 96.2444 195.7C96.2444 195.6 96.2444 195.4 96.2444 195.3C96.3444 194.1 96.7444 190.4 98.3444 190.3C100.044 190.1 98.7444 193.4 98.5444 194.4C98.1444 197.3 98.5444 200.3 101.044 201.7C100.844 200.7 100.544 199.8 100.544 198.8V198.7C100.544 197.5 100.844 195.6 101.444 194.5C102.144 193.3 103.844 193.5 103.744 195.1C103.744 196.3 103.044 197.4 103.044 198.7V198.8C103.044 199.9 103.344 201 103.744 201.9C104.244 202.8 104.844 203.4 105.644 203.6C106.044 203.7 106.444 203.8 107.044 203.8H107.644C109.144 203.7 110.744 203.5 112.244 202.9C113.644 202.3 114.844 201.4 116.244 200.7C115.744 200 115.644 198.8 115.044 198.2C114.744 197.9 114.344 198 113.944 198C112.244 198.2 111.844 198.4 110.744 199.6C110.244 200.1 109.144 201.6 108.344 200.9C108.144 200.7 108.144 200.3 108.244 200C108.344 199.7 108.544 199.4 108.744 199.2C110.944 196.5 112.344 193.1 113.844 189.9C114.244 189.1 114.544 188.3 114.744 187.6C115.244 185.9 113.444 184.2 112.344 183.2C111.044 182 109.844 180.5 108.344 179.5C106.644 178.1 104.944 176.7 102.944 178.3ZM112.644 172.8C111.444 172.1 110.244 171.5 109.044 171.1C108.844 171 108.644 171.1 108.444 171.1C108.244 171.1 108.144 171.2 107.944 171.3C106.844 172.1 105.944 173.2 105.244 174.5C105.344 174.4 108.844 176.5 109.244 176.7C109.544 176.9 109.744 177 109.944 177.1C111.444 178.2 112.844 179.5 114.044 180.9C115.244 182.2 116.244 183.7 117.244 185.2C117.344 185.3 117.444 185.4 117.544 185.6C118.644 184.2 119.844 182.9 120.944 181.5C121.344 181.1 116.344 175.6 115.844 175.1C114.844 174.3 113.844 173.5 112.644 172.8ZM124.344 164.7C123.944 163.4 122.844 162.3 121.944 161.3C119.344 158.4 117.044 155.2 114.244 152.5C110.644 149 106.344 147.7 101.744 145.9C100.244 145.3 97.4444 144 95.9444 145.1C94.5444 146.1 94.1444 148.1 94.8444 149.5C95.2444 150.4 96.6444 151.5 97.1444 152.3C97.7444 153.2 98.1444 154.2 98.6444 155.1C99.0444 156 99.5444 156.9 100.144 157.7C102.444 160.8 106.544 162.1 110.344 162.2C112.644 162.2 114.344 162.5 116.144 164C117.644 165.3 117.744 166.8 116.844 168.6C116.344 169.6 115.644 170.6 115.044 171.5C115.044 171.5 118.544 174.5 119.544 175.7C119.644 175.9 125.144 168 124.344 165.1C124.444 165 124.444 164.8 124.344 164.7Z" fill="#231F20"/>
<path d="M112.145 173.7C111.745 173.4 111.345 173.2 110.845 173C110.145 172.6 109.445 172.3 108.645 172.2C107.045 172 105.945 173.3 105.245 174.6C105.345 174.5 108.845 176.6 109.245 176.8C109.545 177 109.745 177.1 109.945 177.2C111.445 178.3 112.845 179.6 114.045 181C115.245 182.3 116.245 183.8 117.245 185.3C117.345 185.4 117.445 185.5 117.545 185.7C117.345 185.5 120.445 182.7 120.245 181.6C120.145 181.2 119.845 180.8 119.545 180.4C117.545 177.7 114.945 175.4 112.145 173.7Z" fill="#0071CE"/>
<path d="M53.5445 188.9C47.6445 188.4 43.8445 187.7 37.6445 186.3C36.7445 168.8 37.7445 151.6 40.4445 134.3C42.6445 144.4 48.1445 154 56.6445 160.5C57.0445 160.8 57.5445 161.2 57.7445 161.7C57.9445 162.2 57.9445 162.7 57.8445 163.2C57.1445 170.7 56.9445 178.3 57.2445 185.9C57.3445 187.8 55.5445 189.4 53.5445 188.9Z" fill="#E1251B"/>
<path d="M106.045 154.2C105.845 154 105.545 153.7 105.345 153.5C107.545 154.2 109.645 155.6 111.145 157.4C111.645 158 112.045 158.4 111.845 159.2C111.545 159.5 111.145 159.4 110.745 159.2C110.445 159 110.245 158.6 110.045 158.3C109.045 156.8 107.245 155.5 106.045 154.2Z" fill="#231F20"/>
<path d="M77.8445 170.4C83.1445 169.7 89.2445 169.2 93.8445 168.4C92.0445 170.9 82.6445 172.1 77.8445 170.4Z" fill="#231F20"/>
<path d="M40.1443 166.6C44.6443 167.2 49.6443 168 53.4443 168.4C51.3443 169.6 43.5443 169.3 40.1443 166.6Z" fill="#231F20"/>
<path d="M78.5444 179.6C78.7444 180.6 78.9444 181.7 79.5444 182.6C80.4444 183.9 81.9444 184.6 83.4444 184.7C84.9444 184.8 86.4444 184.5 87.9444 184.2C89.0444 184 90.1444 183.7 91.2444 183.5C87.9444 184.1 82.6444 185.3 80.5444 181.9C79.7444 180.6 79.3444 179.3 79.0444 177.8C78.6444 175.6 78.4444 173.9 78.1444 172.1C78.1444 172.7 77.9444 173.5 78.1444 175.9C78.1444 177.1 78.2444 178.4 78.5444 179.6Z" fill="#231F20"/>
<path d="M53.2443 178.4C53.1443 179.5 52.9443 180.5 52.4443 181.4C51.6443 182.8 50.2443 183.5 48.7443 183.8C47.2443 184 45.7443 183.8 44.2443 183.6C43.1443 183.4 41.9443 183.3 40.8443 183.1C44.1443 183.4 49.5443 184.2 51.4443 180.7C52.1443 179.4 52.4443 178 52.6443 176.5C52.8443 174.3 52.9443 172.5 53.1443 170.7C53.1443 171.3 53.4443 172.1 53.4443 174.5C53.4443 175.8 53.4443 177.1 53.2443 178.4Z" fill="#231F20"/>
<path d="M94.5444 168.4C95.0444 170.5 95.2444 171.8 95.3444 173.5C95.4444 174.4 95.5444 175.2 95.5444 176.1C95.5444 176.5 95.5444 177 95.5444 177.4C95.5444 177.8 95.3444 178.4 95.4444 178.8C95.0444 177.3 94.8444 176 94.7444 174.9C94.5444 173 94.2444 171 93.9444 169.1C92.5444 169.8 91.0444 170.2 89.5444 170.4C88.9444 170.5 88.3444 170.5 87.7444 170.4C87.4444 170.3 87.0444 170.2 86.7444 170.1C86.5444 170 86.0444 169.6 85.9444 169.7C86.5444 169.6 87.2444 169.5 87.8444 169.4C89.3444 169.2 90.8444 169 92.3444 168.8C92.9444 168.7 93.4444 168.5 94.4444 168.4C94.5444 168.3 94.5444 168.4 94.5444 168.4Z" fill="#231F20"/>
</svg>
