<?xml version="1.0" encoding="utf-8"?>
<!-- Generator: Adobe Illustrator 22.0.0, SVG Export Plug-In . SVG Version: 6.00 Build 0)  -->
<svg version="1.1" id="Layer_1" xmlns="http://www.w3.org/2000/svg" xmlns:xlink="http://www.w3.org/1999/xlink" x="0px" y="0px"
	 viewBox="0 0 260.8 368.2" style="enable-background:new 0 0 260.8 368.2;" xml:space="preserve">
<style type="text/css">
	.st0{fill:#FFFFFF;}
	.st1{opacity:0.3;fill:#231F20;}
	.st2{opacity:0.5;fill:#231F20;}
	.st3{fill:#E1251B;}
	.st4{fill:#0071CE;}
	.st5{fill:#231F20;}
</style>
<g>
	<g>
		<path class="st0" d="M148.3,275.4c2.9-0.6,6.1-1.2,8.8-2.5c2.5-1.2,5.1-1.6,7.6-2.6c0.3-0.1,0.6-0.3,0.9-0.5
			c0.2-0.3,0.4-0.6,0.5-0.9c1.1-3.4,1-7.2,2.4-10.5c-1.7,0-3.3,0-5-0.1c0.2-2.1,1.3-4.3,1.8-6.4c0.6-2.4,1.1-4.8,1.5-7.2
			c0.5-3.1,0.9-6.3,1.1-9.4c0.2-2.9,0.4-5.8,1.1-8.7c0.1-0.3,0.2-0.6,0.4-0.8c0.1-0.1,0.3-0.2,0.4-0.3c0.4-0.2,0.8-0.3,1.2-0.4
			c0.1,0,0.2,0,0.2,0c0.1,0,0.1,0.1,0.1,0.2c0.3,1,1.5,2.2,2.1,3c0.8,1,1.8,2,2.7,3c1.8,1.9,3.8,3.9,6,5.5c1.6,1.1,3.2,2.1,4.9,3
			c1.8,0.9,3.6,1.7,5.4,2.4c0.1,0,0.2,0.1,0.3,0c0.1,0,0.1-0.1,0.2-0.1c0.8-0.9,1.4-1.9,1.9-2.9c0.2-0.5,0.4-1,0.7-1.4
			c0.1-0.1,1.3-1.3,1.3-1.3c-1.2-1.7-2.4-3.4-3.6-5.1c2.2,1,4.4,2,6.7,3.1c0.2,0.1,0.3,0.1,0.5,0.1c0.2,0,0.3-0.2,0.4-0.3
			c1.1-1.6,2.2-3.2,3.2-4.9c0.1-0.2,0.3-0.5,0.2-0.7c0-0.2-0.2-0.4-0.3-0.5c-1.1-1.2-2.4-2.4-3.9-3.3c2,0.1,4,0.3,6,0.4
			c0.6-1.5,1.1-3,1.4-4.5c0-0.2,0.1-0.4,0-0.7c-0.1-0.2-0.3-0.4-0.4-0.5c-1-0.9-2.2-1.8-3.4-2.4c-0.4-0.2-0.8-0.3-1.2-0.5
			c-0.6-0.4-1.1-0.8-1.7-1.2c-2.3-1.5-4.7-2.7-7.3-3.7c0,0-0.4-0.2-0.4-0.2c0.4,0,0.7-0.4,0.9-0.6c0.4-0.4,0.8-0.9,1.3-1.2
			c1-0.8,2-1.6,2.8-2.7c0.9-1.3,1.4-2.8,1.1-4.4c-0.1-0.5-0.3-0.9-0.4-1.3c-0.2-0.4-0.4-0.8-0.7-1.2c-0.8-1-1.9-1.6-3.2-1.9
			c-0.5-0.1-4.7-0.3-4.7,0c-0.2,2.3-2.5,5.7-5.2,5.4c-2.5-0.3-3.9-2.8-6.4-2.4c-1.5,0.3-3.7,1.1-5.2,0.4c-2.8-1.4-5.8-3.8-6.1-7
			c-0.1-1.4-0.3-2.8-0.4-4.2c-0.3-2.7-0.6-5.4-1-8.1c-0.3-2.4-0.7-4.8-1.2-7.2c-0.2-1.2-0.4-2.4-0.7-3.6c-0.2-1.2-0.5-2.3-0.7-3.5
			c1.9-0.7,3.5-2,5.1-3c0.9-0.6,1.8-1.2,2.2-2.1c0.3-0.7,0.3-1.4,0.3-2.2c0-4.4-0.3-8.6-1.1-12.9c-0.5-2.7-0.4-5.2-1.2-7.9
			c-0.4-1.1-1.1-1.9-2.2-2.3c-1.5-0.5-1.4,1.1-1.8,2.1c-0.4,1-1.3,1.7-2.2,2.2c-1.5,0.9-3.2,1.6-4.9,2c0-1,0-2-0.5-2.8
			c-0.3-0.5-0.7-0.8-1-1.3c-0.3-0.5-0.5-1.2-0.6-1.8c-1.4-6.6-2.4-13.4-5.9-19.3c-2.7,0.2-5.4,0.4-8.1,0.6c-1.5,0.1-4.2,1.1-5.3-0.1
			c-1.3-1.4-2.2-3.8-3.1-5.5c-0.7-1.3-1.4-4.6-3.1-4.8c-1.6-0.2-4.2,1.4-5.6,1.9c-0.2,0.1-0.4,0.1-0.5,0.1c-0.2-0.1-0.3-0.3-0.3-0.5
			c-3-9.4-8.3-18.7-13.2-27.3c-1-1.8-2.1-3.6-3.2-5.4c-0.5-0.9-8.8-14.3-9.4-15.2c-3.5-5.9-7.2-11.7-11.2-17.3
			c-2.3,1.5-4.8,2.8-7,4.3c0.6,1.1,1.1,2.2,1.7,3.3c1.2,2.2,2.3,3.8,3.3,5.7c1.7,3.2,11.4,18.7,13.1,21.8
			c6.1,10.6,10.9,21.8,15.3,33.2c0.1,0.2-3,2.2-3.2,2.4c-1.4,1-2.7,2.1-4,3.2c0.1,1,0.5,1.9,0.8,2.8c0.3,1,0.5,2.1,0.8,3.1
			c0.1,0.6,1.5,4.9,1.3,5.1c-3,2.7-6.2,5-9.1,7.8c-0.1,0.1-0.2,0.2-0.2,0.4c0,0.1,0,0.3,0.1,0.4c2,5.3,3.2,11,4.7,16.5
			c-0.3-1.1-9.4-2.5-10.5-1.8c-0.7,0.4-1.1,1-1.6,1.6c-1.3,1.7-2.6,3.4-3.9,5.1c3.1,0.1,6.1,0,9.2,0.3c3,0.3,5.8,0.8,8.7,1.6
			c0.9,0.2,2.2,8.1,2.3,9.3c0.2,1.6,0.6,2.8-0.6,3.9c-1.1,1-2.6,1.5-3,3.1c-0.2,0.8-0.1,1.7,0.1,2.5c0.4,2,1.8,4.5,0.2,6.3
			c-0.6,0.7-1.5,1.1-2.4,1.4c-3.6,1.6-7,3.8-9.9,6.4c-1.1,1-2.2,2.1-3.1,3.4c-0.5,0.6-1,1.5-1.5,2.1c-1.6,2.1-2.6,3.3-4,5.2
			c-1.2,1.6-2.2,4.1-1.9,6.7c0.2,1.8,1.5,4.4,2.3,6.1c0.7,1.4,1.4,2.9,2.2,4.2c0.1,0.1,0.2,0.3,0.1,0.4c0,0.1-0.1,0.2-0.1,0.3
			c-0.5,1-1,2-1.4,3c0,0.1,0,0.1,0,0.2c0,0.1,0.1,0.1,0.1,0.2c0.2,0.2,0.4,0.4,0.7,0.7c1.5-1.6,2.7-3.3,4.2-4.9c1.4-1.5,3-2.6,4.5-4
			c0.4-0.3,0.7-0.7,0.8-1.1c-0.7-0.8-1.1-1.7-1.5-2.6c-0.4-1-1.3-2.8-0.6-3.8c0.6-0.9,2.1-1.6,3-2c1.7-0.7,3.6-1.2,5.4-1.4
			c1.7-0.2,2.9-0.7,4.5-1.3c0.2,2.4,0.2,4.8,0.1,7.1c-0.1,2.2-0.6,4.5-0.6,6.7c0.1,3.7,4.8,2.8,5.4,6c0.3,1.4-0.4,3.7-0.5,5.2
			c-0.4,4.2-0.9,8.3-1.6,12.5c-0.2,1.2-0.5,2.5-0.5,3.6c-0.5,2.8-1.3,5.5-1.9,8.3c-1.6,0.2-3.2,0.1-4.8,0.1c-0.2,0-0.4,0-0.5,0.1
			c-0.1,0.1-0.1,0.2-0.2,0.4c-1.4,4.7-3.4,9.2-4.5,13.9c1,0,2,0.6,2.9,1c1.3,0.6,14.8,4.9,14.9,4.2c-0.7,2.3-1.4,4.9-2.3,7.5
			c-0.4,1.2-0.8,2.3-1.2,3.4c-0.3,0.7-0.7,2.3-1.4,2.5c-0.4,0.1-1,0-1.5-0.1c-0.1,0-0.3,0-0.4,0c-0.6,0-1.2,0-1.8,0
			c-1.2,0-2.4,0.1-3.6,0.2c-0.2,0-0.5,0.1-0.7,0c-0.5-0.1-1-0.4-1.5-0.5c-0.5-0.1-1.1-0.2-1.7-0.2c-0.9,0-1.8,0.3-2.3,1
			c-0.2,0.3-0.4,0.7-0.7,0.8c-0.3,0.2-0.7,0.1-1.1,0c-1.2-0.3-2.4-0.4-3.6-0.3c-1.2,0.2-2.4,0.7-3.2,1.5c-0.3,0.3-0.6,0.7-0.9,0.9
			c-0.9,0.6-2.2,0.2-3.3,0.3c-0.8,0.1-1.7,0.4-2.3,1c-0.6,0.6-1,1.4-1.3,2.2c-0.3,0.8-0.9,1.1-1.6,1.6c-1.1,1-2.1,2-3,3.2
			c-1.9,2.8-3.8,8.8-1.5,11.9c0.9,1.1,2.3,1.7,3.7,1.9c1.4,0.3,2.9,0.3,4.4,0.2c4.1-0.1,8.1-0.6,12.1-1.1c3.6-0.5,7.2-1.1,10.6-2.4
			c1.6-0.6,3.2-1.5,4.7-2.3c3.1-1.6,6.1-3.3,9.2-4.9c1.1-0.6,2.3-1.2,3.1-2.2c1.2-1.5,1-3.6,0.7-5.4c-0.2-1.3-0.6-2.7-1.5-3.9
			c-0.7-0.9-1.7-1.6-2.8-1.9c1.8-4.5,3.5-9.6,4.4-13.8c2.2,0.2,4.3,0.4,6.5,0.5c3.7,0.1,7.4,0,11.1-0.3c-0.5,3.3-2.1,7.9-3.6,11
			c-3,0.5-5.6,2-7.5,4.2c-2.1,2.3-3.4,5.3-3.5,8.3c0,0.7-0.2,1.8,0.3,2.4c0.5,0.6,1.5,0.7,2.2,0.8c12.4,1,24.8,2,37.1,3
			c5.5,0.4,10.9,0.9,16.3,2c0.9,0.2,1.9,0.4,2.8,0.2c1.4-0.3,1.6-1.1,2.1-2.2c0.8-2,1.4-4.1,1.4-6.2c0-3.3-0.7-6.8-2.9-9.5
			c-1.8-2.2-4.5-3.6-7.3-4.1c-1.3-0.2-2.7-0.2-3.8-0.9c-1.6-1.1-2.2-1.1-4.1-0.7c-1.2,0.2-2-0.1-3.2-0.4c-2.4-0.7-4.4,1.6-6.7,0.9
			c-1-0.3-1.7-0.6-2.9-0.3c-2,0.4-3.8,1.7-5.8,2c-1.8,0.3-3.7,0.5-5.5,0.8C146,283.7,147.5,279.7,148.3,275.4z"/>
		<path class="st1" d="M139.9,266.7c-2.4-0.9-3.6,0.7-6,1.3c-4.9,1.3-10.9,1.6-15.8,0.4c-0.2-0.1-0.5-0.2-0.5-0.4
			c1.4-4,2.2-8.2,3.2-12.3c1.2-5.2,2.1-10.4,2.9-15.7c2.2-15,2.8-29,1.3-43.8c-1.6-15.3-5.5-31.4-9.3-46.3
			c-4.6,0.2-9.3-2.2-11.7-6.2c1.2,3.2,2,7,3,10.3c1.2,3.7,2.1,7.5,2.8,11.3c0.5,2.9,1.5,5.6,2.1,8.5c0.8,3.6,0.4,7.2,1.1,10.7
			c0.3,1.6,0.6,3.2,0.8,4.8c0.2,2.1,0.1,3.9,0.6,5.9c0.6,2.2,0.8,4.2,0.8,6.5c0,10.4-0.6,20.9-1.1,31.3c-0.3,6-2.4,11.8-3.6,17.7
			c-0.4,2.2-0.6,4.7-1.4,6.8c-1,2.4-2.4,1.7-4.8,1.5c-0.4,0-0.8-0.1-1.1,0.2c-0.2,0.2-0.3,0.5-0.4,0.8c-0.9,3.1-1.8,6.1-2.6,9.2
			c-0.4,1.3,10.2,4,11.3,4.2c3.8,0.6,7.5,1.2,11.4,1.3c7.8,0.1,15.8-1.5,22.5-5.8C143.6,268,141.8,267.4,139.9,266.7z"/>
		<path class="st2" d="M111.4,102.2c-0.6-1.5-1.3-3-1.9-4.5c-2.4-5.5-5.1-10.9-8.1-16.1c-3.1-5.3-6.5-10.5-9.7-15.8
			c-1.4-2.3-2.8-4.6-4.1-7c-0.3-0.5-3.7-6.4-3.6-6.5c0.9-0.8,2-1.3,3-1.9c1.2,1.6,2.1,3.4,3.1,5c1.9,3,3.7,6,5.5,9
			c3.6,5.9,7.1,11.9,10.6,17.8c6.3,10.7,12.4,21.2,15.5,33.3c-1.7,1.1-4.4,1.3-5.3-0.8c-0.5-1.3-1.1-2.7-1.6-4
			C113.7,107.9,112.6,105,111.4,102.2z"/>
		<path class="st3" d="M98,303c-0.2-0.3-0.5-0.6-0.7-0.9c-1.9-2.2-4.5-3.7-7.3-4.2c-3.6-0.7-6.4,0.6-8.8,3.3
			c-1.9,2.2-2.1,4.1-2.6,6.8c-0.1,0.7,0.3,1.4,0.9,1.8c2.6,1.8,7,1.5,9.9,1.2c1.5-0.1,3.1-0.4,4.6-0.7c9.6-1.8,20.5-7.6,28.7-11.8
			c2.2-1.1-0.6-4-1.9-5.8c-0.4-0.6-1.4-1.2-2.1-1.4s-2,1.7-2.4,2.3c-0.2,0.3-0.3,0.6-0.4,0.9c-0.6,1.3-2.2,2-3.5,1.4
			c-0.8-0.4-1.3-1.4-1.4-2.3c-0.1-0.7-0.1-3.1,0.8-3.4c-2.2,0.8-4.7,0.1-7,0.5c0.8,0.3,1.5,0.7,2.2,1.2c1.5,1.1,3.2,3.9,2.6,5.8
			c-0.3,1-1.5,1.8-2.5,1.4c-0.3,1-1.2,1.7-2.2,1.8c-1,0.1-2-0.2-2.9-0.7c0.1,1.2-0.1,2.5-0.9,3.3C99.7,305,98.8,304,98,303z"/>
		<path class="st3" d="M155,297.3c-0.1-0.1-0.3-0.1-0.5-0.1c-0.3,0-0.5,0.2-0.8,0.3c-0.7,0.4-1.5,0.7-2.2,0.7
			c-0.8,0-1.6-0.3-2.1-0.9c-0.4-0.6-0.5-1.3-0.5-2c0-1.1,0.3-2.2,0.7-3.2c-1.3,0.1-2.7,0.4-4,0.4c-0.9,0-1.9-0.3-2.6,0.6
			c-0.4,0.5-0.6,1.1-1.1,1.5c-0.9,0.7-2.3,0.3-3.2-0.4c-1-0.8-1.8-2.1-1.5-3.3c-0.1,0.3-2.1,1.2-2.5,1.5c-0.8,0.6-1.6,1.4-2.2,2.1
			c-1.4,1.7-1.4,3-1.5,5.3c17.5,1.2,35.2,3.6,53.3,5c0.3,0,0.7,0,1-0.1c2.4-1,0.6-7.2,0.1-8.7c-0.7-2.1-2.1-4.1-4-5.3
			c-0.9-0.6-2-0.9-3.1-1.3c-1.4-0.4-2.9-0.8-4.4-0.7c-2.4,0.2-4.4,2.2-5.7,4.1c-0.7,1-1.1,2.2-1.7,3.2c-0.6,1.1-1.5,2-2.7,2.4
			c-1.2,0.4-2.7-0.2-3-1.3c-0.6,0.6-1.3,1.3-2.2,1.6c-0.8,0.3-1.9,0.3-2.6-0.3C155.8,298.2,155.5,297.6,155,297.3z"/>
		<path class="st2" d="M112.6,121.4c0.5,0.1,1.1,0.1,1.7,0.1c1.4-0.1,2.8-0.4,4.2-0.7c2.7-0.7,5.3-1.8,7.6-3.3
			c1.6-1.1,3-2.7,4.1-4.3c0.9,2.2,1.8,4.3,2.7,6.4c0.5,1.2,1.1,2.6,1.8,3.7c0.8,1.3,2.1,2,2.4-0.2c0.2-1.1,0-2.3-0.4-3.3
			c1.9,1.7,2.7,4.5,2,6.9c-0.8,2.6-2.6,3.5-4.8,4.7c-2.1,1.2-4.1,2.3-6.3,3.3c-3.6,1.6-7.6,2.4-11.5,2.1c-2.4-0.2-3-4.7-3.5-6.5
			c-0.4-1.1-0.5-2.3-0.9-3.4c-0.4-1.2-0.8-2.3-1.2-3.5c-0.3-0.8-0.6-1.7-0.7-2.6c-0.1-0.9,0.1-1.8,0.7-2.5c0.2-0.2,0.4-0.4,0.7-0.3
			c-0.3,0.6-0.3,1.4,0,2.1C111.4,120.9,111.9,121.2,112.6,121.4z"/>
		<path class="st0" d="M169.8,203.3c0.7,0.6,1.4,1.1,2.2,1.6c-0.8,0.6-1.4,1.3-2,2.1C170,205.8,169.9,204.6,169.8,203.3z"/>
		<path class="st4" d="M201.5,229.4c-0.8,1.1-1.7,2.3-2.5,3.4c-0.1,0.1-0.2,0.2-0.3,0.3c-0.1,0-0.2,0-0.3-0.1
			c-0.8-0.3-8-4.3-7.5-5.1c0.4-0.6,2-3.2,2.7-3.5c1.1-0.4,2.9,1.1,3.7,1.7C198.8,227.1,200.4,227.9,201.5,229.4z"/>
		<g>
			<path class="st4" d="M173.3,213.1c-0.4,0-0.8,2.3-0.9,2.5c-0.2,0.8-0.5,1.5-0.5,2.4c0,0.7,0.2,1.4,0.1,2.1c0,0.7-0.4,1.4-1,1.6
				c-0.3,0.1-0.5,0.1-0.8,0c-0.2,0-0.4-0.1-0.6-0.2c-0.1-0.1-0.1-0.2-0.2-0.4c-0.3-1.1-0.3-2.3-0.2-3.4c0.2-2.3,0.5-4.6,1.6-6.7
				c0.3-0.6,0.7-1.1,1.1-1.7c1.5-1.8,3.7-3.1,5.9-4c0.2-0.1,0.3-0.1,0.5-0.1c0.2,0,0.4,0.2,0.6,0.4c0.5,0.4,0.9,0.9,1.4,1.3
				c-0.2-0.2-1.9,0.9-2.2,1.1c-0.7,0.4-1.4,0.9-2,1.5C175,210.4,174,211.7,173.3,213.1z"/>
			<path class="st4" d="M204.4,222.4c-0.3,0.6-0.6,1.3-0.9,2c-0.2-0.5-0.9-0.4-1.4-0.6c-1.3-0.7-2.9-0.8-4.4-1.2
				c-0.3-0.1-2.9-1-3.1-0.6c0.3-0.5,0.5-0.9,0.7-1.4c0.3-0.8-0.1-2.1-1-1.1c-0.2,0.3-0.3,0.6-0.5,0.9c-0.7,1.8-1.7,3.4-2.9,4.9
				c-0.6,0.7-1.3,1.4-2.1,2.1c-0.6,0.5-1.3,0.9-1.8,1.5c-0.2,0.2-0.6,0.2-0.4,0.6c0.2,0.2,1.4,0.2,1.8,0.4c0.7,0.3,1.3,1.1,1.8,1.6
				c1.1,1.1,2.1,2.2,3.1,3.4c0.3,0.4,0.6,0.8,0.6,1.3c0,0.3-0.2,0.6-0.4,0.9c-0.6,0.8-1.1,1.5-1.7,2.3c-0.1,0.1-0.2,0.2-0.3,0.3
				c-0.3,0.2-0.7,0.1-1,0c-0.3-0.2-0.5-0.4-0.8-0.7c-1.7-1.6-4-2-5.4-3.9c-1.4-1.9-2.9-3.3-4.5-5c-1.6-1.6-3.2-3.4-4.4-5.2
				c-1.2-1.8-1.9-3.7-1.8-5.6c0.1-1.7,0.7-3.4,1.7-5c1.2-2.1,2.8-3.9,4.9-4.7c1.4-0.6,3.2-0.8,5.1-1.1c2.2-0.4,4.8-1.2,6.6-2.7
				c0.9-0.7,1.1-1.6,1.6-2.7c1.1-0.1,2.2,0.2,2.9,1.1c1.7,1.9-1.2,4.9-2.6,6.2c-1.9,1.8-4.4,2.9-7.1,2.9c-0.4,0-1-0.2-1.2,0.1
				c-0.2,0.3,0,0.8,0,1.1c0,0.3,0.1,0.6,0,0.9c0,1-0.3,1.9-0.8,2.8c-0.5,0.9-1.2,1.6-2.1,2.2c-0.7,0.5,1.1,0.8,1.4,0.8
				c0.9,0,1.8-0.3,2.5-0.8c1.1-0.8,1.8-2,2.3-3.2c0.1-0.3,0.2-0.6,0.4-0.8c0.2-0.2,0.4-0.3,0.6-0.4c1.5-0.7,3.2-1.4,4.8-1
				c1.2,0.3,2.1,0.7,3.2,1.2c2.7,1.3,4.9,3,7.2,4.7C205,221.4,204.7,221.9,204.4,222.4z"/>
		</g>
		<path class="st0" d="M154.8,184.8c-0.2,0.4-0.4,0.9-0.5,1.3c-0.1,0.3-0.3,0.6-0.5,0.8c-0.2,0.2-0.5,0.3-0.8,0.4
			c-4.8,1.7-9.7,2.9-14.7,3.8c-0.2,0-0.5,0.1-0.7,0c-0.4-0.1-0.7-0.6-1-0.8c-0.4-0.4-0.8-0.7-1.2-1c-0.4-0.4-0.9-0.7-1.3-1
			c-0.3-0.2-0.9-0.8-1.2-0.9c1.2,0.2,2.4,0.3,3.5,0.3c6.9,0.2,13.8-1.5,19.7-4.9c-0.3,0.5-0.7,1-1,1.5
			C155,184.4,154.9,184.6,154.8,184.8z"/>
		<path class="st5" d="M109,197.6L109,197.6L109,197.6L109,197.6z M123.8,130.1c0.2,0.6,0.3,1.4,0.8,1.8c0.4,0.4,0.9,0.2,1-0.3
			l0-0.5c0-0.5-0.2-1.1-0.2-1.6c-0.2-1.3-0.7-2.5-1.1-3.7c-0.3-1-0.6-2.1-1.5-2.6l-0.3-0.1l-0.4,0.3l0,0.6
			C122.6,126,123.3,128,123.8,130.1z M97.2,289.9L97.2,289.9L97.2,289.9L97.2,289.9z M119.8,132.6c0.1,0.3,0.1,0.5,0.3,0.7
			c0.2,0.2,0.5,0.3,0.7,0.2c0.8-0.3,0.2-2,0.1-2.6c-0.2-1.1-0.5-2.1-0.8-3.1c-0.3-1.1-0.7-2.2-1.3-3.1l-0.3-0.3l-0.5,0
			c-0.2,0.1-0.2,0.4-0.1,0.6C118.5,127.5,119.1,130,119.8,132.6z M115.3,130.8c0.2,0.7,0.4,1.5,0.7,2.2l0,0.1c0.2,0.5,1,1,1.4,0.4
			c0.2-0.4-0.1-1.3-0.1-1.7c-0.1-1.5-0.6-2.9-1.1-4.2c-0.4-1.3-0.9-2.5-1.7-3.7c-0.1-0.2-0.4-0.5-0.7-0.4l-0.2,0.5
			c0,1.1,0.4,2.2,0.7,3.2C114.7,128.4,115,129.6,115.3,130.8z M127.5,127c0.1,0.3,0.4,0.6,0.6,0.5l0.1-0.5c-0.1-0.7-0.2-1.4-0.3-2
			c-0.2-1.1-0.5-2.1-1.2-3l-0.5-0.3c-0.9-0.1-0.2,1.6-0.1,2C126.5,124.8,127.1,125.9,127.5,127z M208.9,221.3
			c0.2-0.4,0.3-0.8,0.5-1.2c0-0.1,0.1-0.3,0-0.4c0-0.1-0.1-0.2-0.2-0.2c-4.3-2.9-8.9-5.8-13.8-7.7l-0.4-0.2c1.1-0.9,2.1-2,2.9-3.3
			c1.1-1.8,2-3.7,1.4-5.8c-0.2-0.8-0.8-1.4-1.5-1.9c-1.8-1.2-4.2-1.3-6.3-1.5c-0.1,0-0.1,0-0.2,0c-0.1,0-0.1,0.1-0.1,0.2
			c-0.6,1.7-0.9,2.7-2.2,4c-1,1-2.4,1.4-4.1,1.7c-0.5,0.1-1,0.3-1.4,0c-0.4-0.2-0.7-0.6-1-0.9c-0.8-0.7-1.6-1.3-2.4-1.9
			c-0.2-0.1-0.3-0.2-0.5-0.3c-0.2-0.1-0.5,0-0.7,0c-1,0.2-1.9,0.4-2.8,0.8c-0.7,0.3-1.4,0.9-2.2,0.4c-0.8-0.4-1.6-0.9-2.3-1.5
			c-0.3-0.3-0.6-0.6-0.9-1c-0.2-0.3-0.6-0.6-0.7-0.9c-0.4-0.9-0.4-1.8-0.4-2.8c-0.4-4.9-0.9-9.7-1.6-14.5c-0.3-2.4-0.7-4.8-1.2-7.2
			c-0.2-1.2-0.4-2.4-0.7-3.6c-0.2-1.2-0.5-2.3-0.7-3.5c1.9-0.7,3.5-2,5.1-3c0.9-0.6,1.8-1.2,2.2-2.1c0.3-0.7,0.3-1.4,0.3-2.2
			c0-4.4-0.3-8.6-1.1-12.9c-0.5-2.7-0.4-5.2-1.2-7.9c-0.3-1.5-1.7-2-3-2.6c-1.5-0.7-3.1-1.3-4.7-1.9c-1.2-0.4-2.4-0.8-3.6-1.1
			c-0.3-0.1-2.8-0.5-2.9-0.8c-0.4-1.3-0.7-2.5-1.1-3.8c-0.1,0-1.8-5.1-1.9-5.6c-0.8-2.2-2-4.5-2.8-6.7c-2.4,0.2-4.2,0.4-6.6,0.5
			c-1.2,0.1-2.5,0.3-3.7,0.3c-0.7,0-1.8,0.2-2.6,0.2c-0.6-1.8-2-3.7-3-5.4c-0.3-0.4-3.1-5.8-3.4-5.7c-0.5,0.2-5.2,1.4-6.5,1.6
			l-0.1-0.2c-3.7-8.8-7.9-17.5-12.7-25.8c-1-1.8-2.1-3.6-3.2-5.4c-0.5-0.9-8.8-14.3-9.4-15.2c-3.5-5.9-7.2-11.7-11.2-17.3
			c-2.3,1.5-4.8,2.8-7,4.3c0.6,1.1,1.1,2.2,1.7,3.3c1.2,2.2,2.3,3.8,3.3,5.7c1.7,3.2,11.4,18.7,13.1,21.8
			c6.1,10.6,10.9,21.8,15.3,33.2c0.1,0.2-3,2.2-3.2,2.4c-1.4,1-2.7,2.1-4,3.2c0.1,1,0.5,1.9,0.8,2.8c0.3,1,0.5,2.1,0.8,3.1
			c0.1,0.6,1.5,4.9,1.3,5.1c-3,2.7-5.8,5.7-8.9,8.3c0.8,2.8,1.6,5.7,2.2,8.6c0.3,1.3,0.5,2.5,0.9,3.7c0.1,0.5,0.6,3.5,1,3.7
			c-0.8-0.3-9.1-1.8-10.3-1.1c-0.7,0.4-1.1,1-1.6,1.6c-1.3,1.7-2.6,3.4-3.9,5.1c3.1,0,6.1,0,9.2,0.3c3,0.3,5.8,0.8,8.7,1.6
			c1.1,3.8,2.1,7.6,2.9,11.4c1.6,8.1,2.3,16.4,3,24.7c0.9,11.3,0.7,22.9-0.7,34.2c-1.1,8.2-2.2,16.7-4.3,24.7
			c-0.2,0.9-5.3,0.9-6.1,0.9c-0.4,1.1-1,3.3-1.3,4.2c-0.8,2.5-1.5,4.4-2.5,8c0.1-0.3,4,1.6,4.2,1.7c1.7,0.7,3.5,1.3,5.3,1.8
			c0.6,0.2,8.4,1.9,8.4,1.8c-0.7,2.3-1.4,4.9-2.3,7.5c-0.7,2.3-1.5,4.5-2.4,6.3c0,0,0-0.1,0-0.1c-0.6-0.1-1.1-0.1-1.7-0.1
			c-2.7-0.1-5.4,0.2-8,0.5c-0.2,0-0.5-0.3-0.8-0.4c-0.3-0.1-0.7-0.2-1-0.3c-0.7-0.1-1.3,0.1-1.9,0.4c-0.7,0.3-0.6,1-1.3,1.2
			c-0.6,0.2-1.3,0.2-1.9,0.3c-1.7-0.5-3.5-0.7-4.8,0.8c-0.1,0.2-0.2,0.4-0.3,0.6c-0.2,0.2-0.7,0.2-0.9,0.3c-0.6,0.2-1.3,0.4-1.9,0.7
			c0,0-0.1,0-0.1,0c-1.4-0.1-3.1,0.1-4.1,1.2c-0.3,0.3-0.3,0.6-0.5,1c-0.1,0.3,0,0.3-0.4,0.6c-0.6,0.4-1.2,0.9-1.8,1.4
			c-1.1,1-2.1,2-3,3.2c-1.4,2-2,4.2-2.3,6.5c-0.1,0.7-0.3,1.9-0.4,3.1c0,0.6,0,1.3,0.2,2c0.2,0.7,0.6,1.3,1.2,1.8
			c0.9,0.7,1.9,0.9,2.7,1.1c2.1,0.5,4.3,0.7,6.5,0.8c5.9,0.2,11.9-0.9,17.4-2.8c7.6-2.6,14.5-6.5,21.2-10.5l0.5-0.3l0.1-0.6
			c0-0.4,0.1-0.9,0.1-1.3c0-1.3,0-2.7-0.3-4c-0.2-1.3-0.6-2.7-1.5-3.9c-0.7-0.9-1.7-1.6-2.8-1.9c1.8-4.5,3.5-9.6,4.4-13.8
			c2.2,0.2,4.3,0.4,6.5,0.5c3.7,0.1,7.4,0,11.1-0.3c-0.5,3.3-2.1,7.9-3.6,11c-3,0.5-5.6,2-7.5,4.2c-2.1,2.3-3.4,5.3-3.5,8.3
			c0,0.8,0,1.5,0.2,2.3l0.2,0.9l0.9,0.1c9.7,1.1,19.3,2.1,29,3.1c6.1,0.6,12.1,1.3,18.2,2c3,0.3,6,0.6,9,0.8
			c1.7,0.1,1.9-0.2,2.4-1.7c0.5-1.6,0.9-3.2,0.9-4.9c0.2-5.4-2-10.6-6.8-13.6c-1.7-1.1-4-1.7-6.5-2.2c-0.8-0.2-1.8-0.2-2.6-0.3
			c0-0.3-0.1-0.6-0.1-0.8c0-0.1-0.1-0.2-0.2-0.3c-0.1-0.1-0.3-0.1-0.4-0.2c-0.6-0.1-1.2,0.2-1.7,0.5c-0.5,0.4-0.9,0.3-1.6,0.3
			c-0.7,0-1.4,0-2.1-0.1c0.1-0.3-0.1-0.7-0.4-0.8c-0.3-0.2-0.7-0.2-1-0.1c-0.9,0.2-1.4,0.6-2,1.2c-0.2,0.2-1.2,0.1-1.5,0.2
			c-0.5,0.1-1.1,0.1-1.6,0.2c0.3-0.3-0.4-0.9-0.8-1c-0.2-0.1-0.4-0.1-0.7,0c-0.7,0.1-1.4,0.3-2,0.7c-0.3,0.2-1,1.1-1.4,1.2
			c-2.9,0.6-5.7,1.2-8.5,1.6c1.6-4.4,3.2-9.6,4-13.8c0-0.2,3.4-0.8,3.8-0.9c1.4-0.4,2.8-0.7,4.2-1.1c2.7-0.8,5.4-1.7,8-2.7
			c0.2-0.1,0.4-0.2,0.6-0.4c0.1-0.2,0.2-0.4,0.2-0.6c0.9-4.1,1.9-8.6,2.3-12.7c-1.1,0-2.7,0.4-3.7,0.2c0.5-2.2,1.3-4.4,1.8-6.7
			c0.5-2.3,1-4.6,1.3-6.9c0.7-4.5,1.1-9,1.3-13.6c0.1-2.7,0.1-4.6,0.1-7.3c0.6-0.1,1.2-0.3,1.8-0.4c0.4,1,0.9,2,1.4,3
			c1.3,2.1,3,4,4.7,5.7c1.8,1.9,3.8,3.9,6,5.5c2.4,1.7,6,4.1,8.7,5.4c0.2,0.1,0.4,0.2,0.6,0.1c0.1,0,0.2-0.1,0.3-0.2
			c1.7-1.8,3.1-3.3,4.7-5.1c0.1-0.1,0.1-0.1,0.1-0.2c0-0.1-0.1-0.2-0.1-0.2c-0.8-0.8-2.4-2.8-3.1-3.7c1.4,1,3,1.7,4.6,2.5
			c0.4,0.2,0.8,0.6,1.3,0.6c1.7-2.3,3.5-4.8,5.2-7.1c-0.1,0.1-3.5-2.9-3.8-3.3c1.5,0.3,3.1,0.5,4.4,0.9
			C207.5,224.7,208.2,223,208.9,221.3z M162.9,141.2l0.6-0.2c1-0.6,2-1.3,2.9-2.1c0.3,0.2,0.7,0.3,1,0.5c-2.6,1.7-5.3,3.6-8.2,4.8
			c-0.3-1.4-0.7-2.9-1.1-4.3 M101.4,79.2C100,76.8,90.8,62,89.4,59.6c-1.2-2.1-2.4-4-3.6-6.3c-0.2-0.4-0.4-0.7-0.6-1.1l-0.7-1.5
			l0-0.2l0.1-0.1c1-0.6,2-1.2,3-1.8c0.5,0.6,0.8,1.3,1.3,1.9c3.5,5.2,14.6,23,17.8,28.4c1.1,1.8,2.1,3.6,3.1,5.4
			c4.7,8.3,8.9,16.8,12.5,25.6c0.3,0.7,0.5,1.4,0.4,2.1c0,0.4-0.1,0.7-0.2,1c-0.4,1-1.5,1.7-2.8,2.1c-0.4,0.1-0.8,0.2-1.1,0.2
			c-0.4,0-0.6-0.1-0.7-0.2c-0.1-0.1-0.2-0.4-0.4-0.8C112.9,102.3,107.8,90.5,101.4,79.2z M110.2,120.1c0.2-0.1,1-0.8,1.9-1.5
			c1.5-1.3,3.3-2.8,3.4-2.7c0.1,0.3,0.3,0.6,0.6,0.9c0.7,0.7,1.6,0.9,2.3,0.9c0.7,0,1.4-0.1,2-0.3c1.7-0.5,3.5-1.6,4.3-3.5
			c0.2-0.6,0.4-1.2,0.4-1.8l0-0.5c1.7-0.3,3.3-1,5.1-1.3c1,1.5,2,3.1,3,4.6c0.7,1,1.1,2.4,1.7,3.6c0.7,1.4,1.4,2.7,2,4.1
			c0.3,0.7,0.7,1.4,1,2.1l0.1,0.1l-0.1,0.1c-1.4,2.5-3.3,4.7-5.6,6.3c-2,1.4-4.4,2.5-6.9,3.3c-2.6,0.9-5.4,1.7-8,1.6
			c-0.8,0-1.6-0.1-2.3-0.3c-0.4-0.1-0.7-0.2-0.7-0.3c0,0-0.2-0.3-0.3-0.6l-1.4-4.4C111.7,127,111.2,123.5,110.2,120.1z M106.2,148.5
			c-0.4-1.4-0.8-2.9-1.2-4.3c-0.2-0.9-0.4-1.6-0.7-2.6c-0.2-0.8-0.4-1.6-0.6-2.3c1-0.9,2.7-2.4,3.1-2.7c1.4-1.2,2.7-2.6,4.1-3.8
			l0.9,2.8c0.1,0.4,0.3,0.9,0.8,1.5c0.6,0.7,1.4,0.9,1.9,1c0.9,0.2,1.9,0.4,2.9,0.4c3.1,0.1,6.1-0.7,8.9-1.7c2.6-0.9,5.2-2,7.5-3.6
			c2.6-1.9,4.7-4.3,6.3-7.1c0.1-0.2,0.3-0.6,0.4-1.2c0-0.6-0.2-1-0.3-1.2c-0.3-0.7-0.7-1.4-1-2.1c-0.1-0.2-0.2-0.5-0.4-0.7
			c0.1,0.2,3.8-0.4,4.2-0.4c1.7-0.1,3.4-0.2,5.1-0.2c0.1,0,0.3,0,0.4,0.1c0.1,0.1,0.2,0.2,0.3,0.3c2,3.1,3.2,6.4,4.2,9.9
			c1.4,4.9,2.8,9.7,4.2,14.6c-5.5,3.2-11.3,5.9-17.3,8.2c-5.2,2-10.4,3.6-15.8,5c-1.3,0.4-2.6,0.8-3.7,0.9c-0.2,0-0.5,0-0.7,0
			c-0.9,0-1.9-0.4-3.2-0.8c-2.7-0.8-5.4-1.6-8.1-2.4C107.6,153.5,106.9,151,106.2,148.5z M120.6,293.6c0.6,0.7,0.9,1.8,1.1,2.9
			c0.2,1.2,0.3,2.3,0.2,3.5c0,0.2,0,0.4,0,0.6c-6.5,3.9-13.1,7.6-20.2,10c-5.3,1.8-11,2.9-16.5,2.7c-2-0.1-4-0.3-6-0.8
			c-0.7-0.2-1.4-0.4-1.7-0.6c-0.1-0.1-0.2-0.3-0.3-0.6c-0.1-0.3-0.1-0.8-0.1-1.3c0-0.9,0.2-2,0.3-2.9c0.2-2,0.8-3.8,1.9-5.4
			c0.9-1.3,1.9-2.4,3.2-3.3c0.6-0.5,1.3-1,2-1.4c0.2-0.1,0.6-0.3,0.8-0.4c0.1-0.1,0.1-0.2,0.1-0.3c-0.1-0.1-0.2-0.1-0.3-0.1l-1.4,0
			c-0.1,0-0.2,0-0.2-0.1c-0.1-0.1,0-0.3,0.1-0.4c0.4-0.4,1.3-0.4,1.9-0.5c0.8-0.1,1.5,0,2.2,0.2c1.2,0.3,2.3,0.3,3.5,0.8
			c1.5,0.6,2.9,1.5,4.2,2.5c0.6,0.5,1.3,1.1,1.8,1.7c0.5,0.5,0.9,1.4,1.7,1.5c0.4,0.1,0.9-0.1,1.2-0.3c0.1-0.1,0.2-0.2,0.2-0.3
			c0.5-1.3-2.3-3.4-3.1-4.1c-1.5-1.3-3.2-2.3-5.1-3c-0.1,0-0.2-0.1-0.3-0.1c1.1-0.3,2.1-0.6,3.2-0.8c2,0.7,3.8,1.7,5.3,3.1
			c0.8,0.7,1.5,1.4,2.1,2.2c0.5,0.6,1.3,1.4,2.2,0.8c0.2-0.1,0.4-0.3,0.4-0.5c0-0.2,0-0.4-0.1-0.6c-0.4-1.2-1.5-2.3-2.4-3.1
			c-1.1-1-2.3-1.9-3.6-2.7c0.9-0.2,1.7-0.3,2.6-0.5c0.5,0.3,1,0.6,1.4,1c1,0.9,2,1.8,2.9,2.9c0.3,0.3,0.4,0.7,0.7,1.1
			c0.2,0.3,0.6,0.6,1,0.7c0.4,0.1,0.9,0,1.1-0.4c0.3-0.5,0-1-0.3-1.5c-1-1.5-2.2-3.1-3.6-4.3c1.7-0.2,3.5-0.3,5.2-0.2
			c0.2,0,0.4,0,0.6,0c-0.3,0.6-0.5,1.2-0.5,1.9c0,1.2,0.4,2.4,1.5,3.3c0.7,0.6,1.6,0.8,2.4,0.9c1.2,0,2.2-0.4,3.1-1.2
			c1-1,1.4-2.4,1.9-3.6C119.5,292.6,120.2,293,120.6,293.6z M97.9,300.1l0.6,0.3l0,0L97.9,300.1z M115.4,294.4
			c-0.3,0.4-0.9,0.6-1.5,0.6c-0.4,0-0.7-0.1-1-0.3c-0.4-0.4-0.6-0.8-0.6-1.4c0-0.4,0.1-0.7,0.3-1.1c1.5-2.3,2.7-5.5,3.7-8.6
			c0.9-2.8,1.7-5.5,2.4-7.8c1,0.2,2,0.4,3,0.5C120.5,281.8,117.8,289.3,115.4,294.4z M152.6,290.5c-0.5,0.7-0.9,1.8-1.1,2.1
			c-0.3,0.7-0.5,1.4-0.7,2.2c0,0.1-0.1,0.3,0,0.4c0,0.1,0.1,0.2,0.2,0.3c0.3,0.4,0.9,0.5,1.3,0.4c1.1-0.3,1.3-2,1.7-2.8
			c0.3-0.6,0.6-1.2,1-1.7c0.2-0.3,0.8-1.4,1.1-1.5c1.4-0.3,2.7-0.5,4.1-0.7c-0.1,0.2-0.3,0.4-0.4,0.6c-0.8,1.2-1.5,2.5-2,3.9
			c-0.2,0.5-0.4,1-0.3,1.5c0.1,0.5,0.5,1,1,1c0.2,0,0.4-0.1,0.5-0.1c0.2-0.1,0.3-0.2,0.5-0.4c0.2-0.2,0.3-0.4,0.4-0.7
			c0.6-1.4,1.2-2.8,2-4c0.5-0.8,1.1-1.6,1.8-2.2c1.1-0.1,2.2-0.1,3.3-0.1c-0.3,0-1.2,1.4-1.3,1.6c-0.4,0.6-0.8,1.2-1.2,1.8
			c-0.6,1.1-1.6,2.6-1.5,3.9c0,0.2,0.1,0.5,0.3,0.7c0.4,0.4,1,0.3,1.4,0c0.4-0.3,0.6-0.8,0.9-1.2c0.6-1.3,1.1-2.4,2-3.6
			c0.4-0.6,0.8-1.1,1.3-1.6c0.5-0.6,1.1-1.2,1.7-1.7c0.5-0.4,1.2-1.1,1.9-1c0,0,0.1,0,0.1,0c0,0,0.1,0.1,0.1,0.2
			c0,0.2-0.1,0.3-0.2,0.5c-0.1,0.1-0.3,0.3-0.3,0.4c-0.2,0.6,1.9,0.7,2.4,0.8c2.3,0.4,4.5,1.1,5.6,1.8c1.7,1.1,3.1,2.4,4.1,4.2
			c1.2,2.3,1.7,4.8,1.6,7.4c-0.1,1.8,0,4-2.1,4.1c-1.5,0.1-3.2-0.3-4.7-0.4c-2.4-0.2-4.8-0.5-7.2-0.8c-4.6-0.5-9.3-1.1-13.9-1.5
			c-9.3-0.9-18.7-1.9-28-3c0-0.3-0.1-0.6-0.1-0.9c0.1-2.4,1.2-4.9,2.9-6.9c1.2-1.4,2.8-2.4,4.5-3c-0.2,0.4-0.3,0.9-0.4,1.3
			c-0.1,0.3-0.2,0.7-0.2,1.1c0,0.4,0,0.9,0.3,1.3c0.4,0.8,1.1,1.2,1.7,1.5c0.5,0.2,1.1,0.3,1.7,0.4c0.8,0,1.6-0.1,2.4-0.5
			c1.5-0.8,2.3-2.2,2.9-3.7l0.1,0l0.1,0C147.8,291.5,150.2,291,152.6,290.5z M147.1,278.2c-0.2,0.8-0.4,1.6-0.6,2.3
			c-0.5,1.6-1,3.2-1.5,4.8c-0.5,1.5-1,3-1.6,4.5c-0.2,0.7-0.5,1.5-0.8,2.1c-0.3,0.6-0.7,1.2-1.4,1.5c-0.3,0.2-0.8,0.3-1.2,0.3
			c-0.9,0-1.5-0.4-1.2-1.3c0.2-0.8,0.5-1.6,0.9-2.4c1.9-3.5,4-9.3,4.5-13.5c1.2-0.1,2.3-0.3,3.4-0.5
			C147.6,276,147.2,278,147.1,278.2z M166,263.7c-0.3,1.5-0.6,2.9-1,4.3c-0.1,0.2-0.1,0.5-0.3,0.7c-0.2,0.2-0.4,0.3-0.6,0.3
			c-10.5,4.2-22,6.1-33.3,5.7c-8.3-0.3-16.1-2-23.9-4.4c-1.8-0.6-3.5-1-5.4-1.7c0.8-2.1,1.3-3.9,2.1-6.1c0.3-0.8,0.6-1.7,0.9-2.5
			c0.3,0,2.9,0.1,2.9-0.1c0,0.4-0.2,1.2-0.4,1.6c-0.3,0.8-0.5,1.6-0.8,2.3c0,0.1-0.1,0.2,0,0.2c0,0,0.1,0.1,0.1,0.1
			c1.3,1,2.4,2,3.8,2.7c1.4,0.8,2.9,1.4,4.5,2c3.1,1.1,6.3,1.7,9.6,1.8c3.9,0.1,7.8-0.4,11.5-1.7c1.6-0.6,2.6-1.1,3-1.3
			c1.1,0.1,3,0.8,4.5,1.1c2.3,0.5,4.8,1,7.1,1.1c1.9,0.1,3.6-0.3,5.5-0.6c1.9-0.3,3.8-1,5.6-1.9c0.2-0.1,0.4-0.2,0.6-0.4
			c0.2-0.2,0.3-0.5,0.4-0.7c0.7-1.9,1.4-3.8,2-5.7c0.4-1.2,1.4-0.9,2.4-1C166.6,260.9,166.3,262.3,166,263.7z M145.2,228
			c0.2-4.4,0.3-8.4,0.2-13.3c0-1.5-0.2-4.3-1-6.1c-0.9,18.1-2.8,35.9-7,53.6c-0.4,1.7-0.5,2.8-1.4,3.7c-0.7,0.6-2,1.1-3.2,1.5
			c-2.7,0.7-5.6,1-8.4,0.9c-5.3-0.2-10.6-1.8-14.9-4.6l-0.3-0.2c0,0,0,0-0.1-0.1c0-0.1,0-0.3,0.1-0.6c0.8-2.7,1.5-5.4,2.1-8.2
			c0.8-3.4,1.4-6.8,2-10.2c0.6-3.3,0.9-6.7,1.7-9.9c4.8,0.6,9.7,1.2,14.5,0.3c1.2-0.2,2.5-0.6,3.4-1.4c1.2-1,1.7-2.8,1.3-4.3
			c0.1,0.6-1.3,1.9-1.7,2.2c-0.7,0.6-1.6,1-2.6,1.2c-3.2,0.5-6.6,0.2-9.5-1.4c-7.2-4.1-4.6-12.8-4.6-19.6c0-8.8-0.6-17.7-1.7-26.4
			c-0.9-7.5-2.1-15-4.2-22.2c0.1,0.3,3.2,1.2,3.6,1.3c1.4,0.6,2.2,0.8,2.7,2.2c1.2,3.3,2.3,6.6,3.5,9.9c0.4,1.1,0.9,2.4,1.9,3
			c1.2,0.8,2.7,0.6,4.1,0.4c3.7-0.6,7.4-1.4,11-2.3c1.8-0.5,3.6-1,5.4-1.6c1.2-0.4,2.7-0.9,3.2-2.1c0.4-0.8,0.4-1.8,0.3-2.7
			c-0.1-2.1-0.1-4.2-0.2-6.3l-0.1-3.3c0-0.5-0.3-1.9,0-2.3l0.2-0.1c0.7-0.4,1.5-0.8,2.3-1.1c0,0,2.2,5.4,2.4,5.9
			c1,2,1.9,3.9,3.1,5.8c0.3,0.5,0.7,1,1.2,1.3c1,0.6,2.4,0.3,3.5,0c1.6-0.4,3.1-1.1,4.6-1.7c2.7,13.3,4.3,26.8,4.7,40.4
			c0.1,3.9,0.2,7.7,0.2,11.6c0,1.9,0,3.9-0.1,5.8c0,1.6-0.1,3.1-1.6,4c-0.8,0.5-1.6,0.7-2.5,0.9c-0.9,0.2-1.8,0.4-2.7,0.6
			c-2.4,0.6-5,1.1-7.4,0.8c0.9,1,2.3,1.2,3.7,1.3c2.3,0.1,4.7,0.2,7-0.1c1.1-0.1,1.9-0.3,3.3-0.4c-0.1,2.6-0.6,5.3-0.9,7.9
			c-0.3,2.6-0.8,5.2-1.4,7.7c-0.6,2.6-1.4,5.2-2.2,7.7c-0.4,1.3-0.8,2.6-1.2,3.9c-0.1,0.4-1,3.4-1.2,3.4c-0.1,0.3-0.2,0.6-0.5,0.8
			c-0.2,0.1-0.3,0.2-0.5,0.3c-1,0.4-2.1,0.8-3.1,1.1c-1.9,0.6-4,0.8-6,0.7c-2.1-0.1-4.4-0.5-6.5-0.9c-1.3-0.3-2.6-0.6-4.2-1
			c1.4-6.5,2.8-12.9,3.7-19.5C144.4,239.5,144.9,234.7,145.2,228z M169.8,203.3c0.7,0.6,1.4,1.1,2.2,1.6c-0.8,0.6-1.4,1.3-2,2.1
			C169.9,205.8,169.8,204.6,169.8,203.3z M173.2,212.2c-1,1.8-1.9,3.9-2,6.2c0,0.6,0.1,1.1,0.1,1.7c-0.3,0.1-0.6,0.2-1,0.3
			c0,0-0.1,0-0.1,0c-0.1,0-0.1-0.1-0.1-0.1c-0.1-1.1,0-2.2,0-3.3c0-0.8,0-1.6,0-2.4c0-0.9,0-1.7,0-2.5c0-0.7,0.3-1.3,0.6-2
			c0.3-0.6,0.7-1.2,1.1-1.7c1.6-1.9,4-3.3,6.2-4.3c0.1,0,0.2-0.1,0.4-0.1c0.1,0,0.2,0.1,0.3,0.1c0.8,0.5,1.5,0.9,2.1,1.6
			c-0.4,0.2-1.3,0.6-1.7,0.6C176.4,207.5,174.5,209.9,173.2,212.2z M202.5,230.2c-0.6,0.9-1.3,1.9-2.1,2.7c0,0.1-0.1,0.1-0.1,0.1
			c-0.1,0-0.2,0-0.2,0c-1.7-0.7-3.4-1.6-5-2.5c-0.9-0.5-1.7-1-2.6-1.5c-0.6-0.3-1-0.7-1.5-1.1c0.6-0.9,1.4-1.7,2.1-2.5
			c0.3-0.4,0.7-0.8,1-1.3c0.5,0.2,1.1,0.3,1.6,0.5c1.4,0.5,2.9,1,4.1,1.8c1.2,0.8,2.3,1.6,3.6,2.7
			C202.9,229.4,202.7,229.8,202.5,230.2z M205.6,222.5c-0.2,0.5-0.3,1-0.5,1.5c-1.9-0.4-3.8-0.7-5.7-1.2c-1.4-0.3-2.8-0.7-4.1-1.2
			c0.1-0.3,0.4-0.5,0.5-0.9c0.1-0.4,0.1-0.8,0-1.2c-0.1-0.5-0.3-1.1-0.8-1.2c-0.3-0.1-0.7,0.1-0.9,0.4c-0.2,0.3-0.3,0.6-0.5,0.9
			c-0.7,1.8-1.7,3.5-2.9,5.1c-0.6,0.8-1.3,1.5-2,2.2c-0.7,0.6-1.4,1.2-2.2,1.8c-0.3,0.2-0.5,0.5-0.5,0.8c0,0.2,0.2,0.4,0.4,0.5
			c0.2,0.1,0.5,0.1,0.7,0.1c0.5,0,0.9-0.2,1.3-0.4c0.4-0.3,0.6-0.2,1,0.1c0.9,0.7,1.8,1.2,2.6,2c1.2,1.4,2.3,2.8,3.5,4.2
			c-0.9,1.2-1.9,2.3-2.9,3.3c-2.4-1.5-4.8-2.9-7.1-4.5c-2-1.4-3.9-3.3-5.7-5.2c-1.6-1.7-3.2-3.5-4.4-5.3c-1.2-1.9-1.9-3.8-1.8-5.8
			c0.1-1.7,0.7-3.5,1.7-5.1c1.2-2.1,2.8-4,4.8-4.9c1.4-0.6,3.2-0.8,5.1-1.2c1.8-0.3,3.8-0.8,5.4-2.4c1-1,1.9-2,2.2-3.5
			c0-0.1,2.5,0.4,2.8,0.5c1.9,0.9,1.4,2.3,0.8,3.9c-0.5,1.2-1.3,2.4-2.3,3.3c-2,1.9-4.7,3.1-7.5,3.2c-0.4,0-1-0.2-1.2,0.2
			c-0.2,0.3,0,0.8,0,1.1c0,0.3,0.1,0.6,0,1c0,1-0.3,2-0.8,2.9c-0.5,1-1.2,1.6-2.1,2.2l-0.2,0.3l0.2,0.2c0.5,0.2,1,0,1.5-0.1
			c1.1-0.4,2-1,2.7-1.9c0.4-0.5,0.7-1.2,0.8-1.8c0.1-0.5,0.4-1.4,0.2-1.9c1-0.2,2-0.5,3-0.8c0.3-0.1,0.6-0.2,0.9-0.3
			c0.8-0.1,1.7,0.2,2.5,0.5c2.2,0.9,4.3,1.9,6.3,3.2c1.7,1.1,3.1,1.8,5.4,3.1c0.1,0,0.2,0,0.3,0.1c0.1,0.1,0.1,0.3,0,0.5
			C206,221.3,205.8,221.9,205.6,222.5z M140,126L140,126L140,126L140,126z"/>
		<path class="st0" d="M129.3,173.3c0.6-4.7,2.5-9.1,3-13.8c0,0.2-1.5,0.3-1.7,0.5c-0.5,0.4-0.3,0.3-0.5,0.9
			c-0.4,1.2-0.3,2.8-0.4,4.1C129.5,167.7,129.4,170.5,129.3,173.3z"/>
		<path class="st0" d="M158,170.8c3.6-1.1,7.1-2.7,10.4-4.6c1.1-0.7,2.4-1.2,3.4-2.1c1-1,1-2.6,0.9-3.9c-0.3-6.8-1.3-13.5-2.2-20.2
			c1,3.3,1.7,6.1,2.2,9.2c0.4,2.4,0.8,4.8,1.1,7.2c0.4,2.3,0.9,5.1-0.2,7.2c-1,1.9-3.5,2.9-5.2,4c-2.4,1.5-4.9,2.8-7.4,3.9
			c-0.5,0.2-1,0.4-1.5,0.4c-0.5,0-1.1-0.1-1.5-0.3"/>
		<path class="st0" d="M162.6,140.9c-0.2,0.1-0.3,0.2-0.5,0.3c-1.4,0.9-2.8,1.7-4.2,2.6c-1.3,0.8-2.8,1.8-4.2,2.3
			c-1.4,0.4-2.7,1.2-3.9,2.1c-2,1.5-5,2.8-7.5,3.4c4.4-1,8.8-3,12.8-4.9c2.2-1,4.3-2.1,6.3-3.3c2.1-1.2,3.9-2.7,5.9-4
			c-0.4-0.3-0.8-0.5-1.2-0.8c-0.1-0.1-1.8,1.2-2,1.3C163.7,140.2,163.2,140.6,162.6,140.9z"/>
		<path class="st0" d="M105.6,161.5c2.8,0.6,5.5,1.6,8.2,2.5c0.5,0.2,1,0.3,1.4,0.6c1.1,0.8,1.6,2.2,1.9,3.5c-0.7-0.4-1.1-0.6-1.8-1
			c-2.4-1.3-4.2-2.2-6.3-3.2c-2.7-1.3-5.2-2.4-8.1-3.1"/>
		<path class="st0" d="M112.4,157.3c2.2,0.6,4.7,1.6,7,1.9c-0.3-1.2-1.7-1.7-2.9-2c-6-1.7-11.7-3.1-17.8-3.9
			c1.1,0.3,2.2,0.6,3.2,0.9c1.3,0.3,2.6,0.7,3.9,1.1C108.3,155.9,109.1,156.4,112.4,157.3z"/>
		<path class="st0" d="M134.1,167.8c0.7-3.2,1.5-6.5,2.5-9.6c-0.8,0.6-1,0.5-1.3,1.3c-0.3,0.8-0.3,2-0.5,2.9
			C134.5,164.1,134.5,166,134.1,167.8z"/>
		<path class="st0" d="M160.9,157.7c1.3-2.3,1.3-5,2-7.4c0.4-1.4,1.1-2.7,1.1-4.2c-0.8,0.6-1.4,0.8-1.7,1.6c-0.4,1-0.3,2.4-0.5,3.4
			c-0.2,1.1-0.3,2.3-0.5,3.4C161.3,155.4,161.3,156.9,160.9,157.7z"/>
		<path class="st0" d="M165.3,151.5c0.9-2.3,1.8-4.8,2.1-7.2C164.7,145,166,149.6,165.3,151.5z"/>
		<path class="st1" d="M133.5,139.8c-1.6,2.1-3,3.4-4,4.1c-2.1,1.4-4,2.2-5.9,2.8c-4.2,1.3-9.4,1.2-13.3-1.3
			c-2.1-1.4-4.1-2.7-4.9-5.1c-0.1-0.2-0.1-0.4-0.1-0.7c0-0.3,0.2-0.5,0.4-0.7c1.8-2.1,3.9-3.9,6.1-5.5c0.8,0.9,1.9,2.9,2.9,3.4
			c2,1.1,6.5,0.1,8.5-0.6c1.6-0.5,3.1-1.3,4.5-2.1c1.9-1,3.6-2.1,5.4-3.4c1.5-1.1,3-2.3,4.4-3.6c1.5-1.3,1.6-3.6,0.4-5.1
			c2.8-0.5,5.6-0.7,8.4-0.6c0.2,0,0.5,0,0.7,0.1c0.2,0.1,0.4,0.3,0.5,0.5c1.8,2.4,3.2,6.2,2.2,8.9c-0.9,2.4-3.1,3.9-5.4,4.9
			c-0.9,0.4-2.8,0.8-5,0.9c0.1,2.3,0.5,4.7,0.8,6.9c0.3,2,0.6,4.8,1,7.1C140.7,150,133.9,139.4,133.5,139.8z"/>
		<path class="st1" d="M139.5,262.2c-0.1,0.7-0.3,1.4-0.5,2c-0.6,2.7,5.4,2.9,7,3.8c2.8-9.7,4.1-20.3,4.1-30.4
			c0-9.3-1.8-19.2-5.4-27.6C144.1,227.6,143.2,245.1,139.5,262.2z"/>
		<path class="st1" d="M111,294.2c0,0.1,0,0.2,0,0.3c0.2,1.1,1.5,1.8,2.7,1.7c1.2-0.1,2.2-0.9,2.9-1.8c2.3-2.1,2.2-5.8,3.7-8.4
			c0.5-0.9,0.8-1.9,1.1-2.9c0.8-2.5,1.6-4.9,2.3-7.4c-1.3-0.2-3-1.2-4.3-1.6c-0.1,0-0.3-0.1-0.4,0c-0.3,0.1-0.4,0.4-0.4,0.6
			c-1,3.7-2.3,7.3-3.8,10.8C113.7,288,110.8,291.5,111,294.2z"/>
		<path class="st1" d="M137.7,292.2c0,0.1,0,0.2,0,0.3c0.2,1.1,1.5,1.8,2.7,1.7c1.2-0.1,2.2-0.9,2.9-1.8c2.3-2.1,2.2-5.8,3.7-8.4
			c1.6-2.9,1.8-6.1,2-9.3c-2,0.3-4,0.3-5.9,0c0.2,3-0.4,6.1-1.7,8.8C140.5,286,137.5,289.5,137.7,292.2z"/>
		<g>
			<path class="st5" d="M160.8,175c-1.2,7.1-4.8,23.4-16.3,24c-9.8,0.5-16.8-10.8-18.8-12.9c3.1,0.2,6.3-0.1,9.3-0.6
				c1.9-0.3,3.8-0.4,5.6-0.9c4-1,8.4-2.4,12.1-4.2c1.5-0.8,3-1.7,4.5-2.6c1.2-0.8,2.3-2.2,3.6-2.8
				C160.8,174.9,160.8,174.9,160.8,175z"/>
			<path class="st0" d="M152.5,187.8c0.3-0.1,0.6-0.3,0.9-0.4c0.1,0,0.2-0.1,0.3-0.2c0.1-0.1,0.2-0.3,0.3-0.4c0.6-1.3,1-2.7,1.2-4.1
				c-2.5,1.5-5,2.5-7.7,3.6c-4.4,1.7-9.1,2.8-13.8,2.5c1.4,1.7,3.6,2.3,5.7,2.2C143.7,191.2,148.5,189.5,152.5,187.8z"/>
		</g>
		<path class="st5" d="M111.6,174.3c-0.1,0,0.8,5.2,1.2,5.8c1.4,1.6,5.6,2.9,7.6,3.3c-0.7,0.8-1.7,0.8-2.8,0.8c-2.9,0-6,0.2-8.7-1.2
			c-1-0.5-2.8-2-3.3-3.1C104.7,177.5,109.9,175.1,111.6,174.3z"/>
		<path class="st3" d="M107.2,221.5c-0.2,2.1-0.5,4.3-0.8,6.4c7,4.1,16,6.3,24.2,6.3c2.1,0,3.9-1.6,4.2-3.7c0.4-3.4,0.7-6.9,1-10.3
			c0.2-2.3,0.3-4.5,0.4-6.8c0-0.5,0.5-5.9,0.1-6.1c-3.9-1.7-6.9-5-9.7-8.2c-3.8-4.4-5.6-10-6.1-15.7c-4.5,0.1-11-1.3-14.8-3.7
			c0.1,0.6,0.8,3.7,0.9,4.2c0.4,2.1,0.7,4.6,0.9,6.8c0.4,4.2,0.5,8,0.6,12.2C108.2,209.1,107.9,215.3,107.2,221.5z"/>
		<path class="st5" d="M115.6,188.5c1.1,1.2,1.7,3,2,4.5c1.2,4.5,0.9,9-1.3,13.2c-0.6,1.1-1.3,2.1-2.5,2.5c-1.3,0.3-2.6-0.4-3.4-1.4
			c-0.8-1-1.1-2.4-1.4-3.6c-0.7-3.6-1.1-7.3-1-11c0-1.7-0.1-4.1,1.5-5c0.5-0.3,1-0.4,1.5-0.5c0.8-0.1,1.7-0.2,2.4,0
			C114.3,187.3,115,187.8,115.6,188.5z"/>
		<path class="st0" d="M87.3,209.3c1.5-4.5,4.6-8.6,7.8-11.7c3.6-3.5,8-5.6,12.6-6.9c1.5-0.5,4.2-1.8,5.8-0.7c1.4,1,1.6,2.8,1.1,4.2
			c-0.3,0.9-1.4,1.8-1.8,2.7c-0.4,1-0.6,2.1-0.9,3.1c-0.8,2.5-2.6,4.7-4.9,5.9c-3.5,2-7.9,1.7-11.8,2.8c-2,0.5-3.1,1.8-2.4,3.9
			c0.4,1.1,1,2,1.6,3c2.1-1.5,4.6-2.3,7.1-2.6c0.1,0,0.2,0,0.3,0c0.2,0.1,0.2,0.3,0.2,0.5c0.2,1.6,1,2.7,1.7,4.1
			c0.7,1.3,1.2,2.8,2.3,3.8c0.8,0.7,1.8,1.1,2.6,1.7c2.3,1.5,3.7,4.1,4.8,6.6c1.3,2.8,2.6,5.8,2.4,8.9c0,0.7-0.2,1.3-0.5,1.9
			c-0.6,1.1-1.6,1.8-2.4,2.7c-1,1.2-1.5,2.8-2.7,3.9c-0.6,0.6-1.4,0.9-2.2,1.2c-5,1.9-10.9,1.5-15.9-0.3c-0.7-0.3-1.3-0.6-2-1.1
			c-0.4-0.3-0.8-0.8-1.3-1.2c-0.2-0.1,1.2-4,2.7-5.6c0.4-0.4,1.2-0.4,1.8-0.3c-0.9-1.4-2-4.8-2.3-6.5c-0.6-2.6-1-2.4-2.7-4.4
			c-0.6-0.7-1.2-1.4-1.2-2.3c0-0.9,0.6-1.7,1-2.5c0.9-1.7,0-2.9-0.7-4.4c-0.8-1.7-1.3-3.6-1.3-5.5C86.5,212.6,86.8,210.9,87.3,209.3
			z"/>
		<path class="st4" d="M106.8,223c1.6,1.1,3.1,2.4,4.6,3.7c0.9,0.8,1.7,1.6,2.3,2.6c0.3,0.5,0.5,0.9,0.7,1.4c1.3,3.4,1.4,7-0.7,10.1
			c-0.2,0.1-0.3,0.2-0.5,0.2c0-0.1,0-0.3,0-0.4c-0.1-1.2-0.5-4.9-2.2-5c-1.8-0.1-0.4,3.1-0.3,4.1c0.4,2.9,0,5.9-2.7,7.3
			c0.3-1,0.5-1.9,0.5-2.9l0-0.1c0-1.2-0.3-3.1-0.9-4.2c-0.7-1.2-2.5-1-2.5,0.6c0,1.2,0.8,2.3,0.8,3.6l0,0.1c0,1.1-0.3,2.2-0.8,3.1
			c-0.5,0.9-1.2,1.5-2,1.7c-0.4,0.1-0.9,0.2-1.4,0.2l-0.6,0c-1.6-0.1-3.3-0.3-4.8-0.8c-1.5-0.5-2.8-1.5-4.2-2.1
			c0.5-0.7,0.6-1.9,1.3-2.5c0.3-0.3,0.7-0.2,1.1-0.2c1.7,0.2,2.2,0.4,3.4,1.6c0.5,0.5,1.7,2,2.5,1.2c0.2-0.2,0.2-0.6,0.1-0.9
			c-0.1-0.3-0.3-0.6-0.5-0.8c-2.3-2.7-3.8-6.1-5.3-9.3c-0.4-0.8-0.7-1.6-0.9-2.3c-0.5-1.7,1.2-3.5,2.7-4.2c1.3,2.1,2.6,4.1,3.9,6.2
			c0.1,0.2,0.3,0.5,0.6,0.5c0.4,0.1,0.7-0.3,0.8-0.6c0.1-0.4-0.1-0.7-0.2-1.1c-1-2.1-2.6-4-3.3-6.2c-0.1-0.3-0.2-0.6-0.1-0.9
			c0.1-0.3,0.3-0.5,0.6-0.5c0.3,0,0.4,0.2,0.6,0.4c1.4,1.7,2.8,3.5,4.2,5.2c0.1,0.2,0.3,0.3,0.5,0.4c0.3,0.1,0.6-0.2,0.7-0.6
			s-0.1-0.7-0.2-1c-0.8-1.8-2-3.4-3.4-4.8c-0.3-0.3-0.6-0.6-0.6-1c0.1-0.4,0.6-0.7,1-0.6s0.8,0.4,1.1,0.7c0.8,0.8,1.6,1.5,2.4,2.3
			c0.5,0.5,1.1,1,1.8,1c-0.3-1.6-1.6-2.9-2.8-4c-0.3-0.2-0.5-0.5-0.6-0.8c-0.2-0.7,0.6-1.5,1.3-1.5C105.4,222,106.1,222.5,106.8,223
			z"/>
		<path class="st5" d="M168.7,186.6c-0.3,1.3-0.6,2.6-1,3.6c-1.5,4.1-4.6,7.5-7.7,10.4c-2.3,2.2-4.8,3.8-7.5,5.4
			c5-3,8.7-10.4,10.6-15.7c1.1-3.1,1.8-6.4,2-9.7c0.1-1.1-0.2-3,0.6-3.9c1.1-1.2,2.3-0.3,2.9,1.2
			C169.5,180.4,169.3,183.7,168.7,186.6z"/>
		<path class="st5" d="M87.9,222.7c-0.4,0.4-2.1,2.8-2.6,4.2c0.4,0.5,0.7,1,1.1,1.5c0.4,0.5,1,1.1,1.4,1.6c1,1.1,2.1,2.2,3.1,3.2
			c0.1,0.1,0.2,0.2,0.3,0.2c0.4,0.2,0.9-0.2,1.1-0.6c0.3,1.2,0.4,2.1,0.9,3.2c0.6,1.4,1.2,2.8,2,4.2c0.2,0.3,0.3,0.5,0.5,0.8
			c-0.2-0.3-2.4-0.1-2.7-0.1c-0.1,0-0.2,0-0.3,0c-0.1,0-0.2,0.1-0.2,0.2c-1.4,1.6-1.8,3.3-2.4,5.3c0,0.1-0.1,0.2,0,0.3
			c0,0.1,0.1,0.2,0.2,0.2c3.1,2.6,7.3,4.8,11.3,4.5c0,0,0.6,0,0.6,0c1.5,0,3.2-0.3,4.3-1.5c0.1-0.1,0.2-0.3,0.4-0.3
			c0.1-0.1,0.3-0.1,0.5-0.1c0.1,0,0.2,0,0.3,0c0.8-0.1,1.5-0.2,2.2-0.7c0.4-0.2,0.7-0.5,1-0.8c0.7-0.7,1.4-1.7,1.9-2.6
			c0.1-0.2,0.2-0.3,0.3-0.5c0.1-0.2,0.3-0.3,0.5-0.4c0.6-0.5,1.1-0.9,1.6-1.5c1.1-1.4,2-3.1,2.3-5c0.1-0.7,0.2-1.3,0.2-2
			c0-4.4-2.4-8.2-5.3-11.3c-1.4-1.6-3-3-4.5-4.6c-1.4-1.5-2.1-3.5-3.4-5.1c-0.6-0.8-1.5-1.6-2.2-2.2c-1.3,0.2-2.5,0.6-3.7,1.2
			c-0.8,0.4-1.3,0.6-2.1,1.2c-0.4-0.7-1.2-1.5-1.6-2.2c-0.8-1.4-0.7-2.8,1-3.3c1.2-0.4,2.5-0.3,3.8-0.4c6.8-0.2,13.2-4.5,16.1-10.6
			c1.6-3.5,2.5-8.9-1.3-11.4c-1.9-1.3-4.7,0-6.7,0.8c-5.4,2-10.3,4.4-14.6,8.3c-2.1,1.9-3.8,4.1-5.5,6.4c-2,2.7-5.1,5.6-4.8,9.3
			C82.8,214.1,87.3,221.9,87.9,222.7z M106.5,223.4c2.4,2,4.6,3.9,6.3,6.3c1.3,1.9,2.2,4.2,2.2,6.4c0,0.5,0,1-0.1,1.5
			c-0.2,1-0.6,2-1.2,3c-0.2,0.1-0.3,0.2-0.5,0.2c0-0.1,0-0.3,0-0.4c-0.1-1.2-0.5-4.9-2.1-5c-1.7-0.2-0.4,3.1-0.2,4.1
			c0.4,2.9,0,5.9-2.5,7.3c0.2-1,0.5-1.9,0.5-2.9l0-0.1c0-1.2-0.3-3.1-0.9-4.2c-0.7-1.2-2.4-1-2.3,0.6c0,1.2,0.7,2.3,0.7,3.6l0,0.1
			c0,1.1-0.3,2.2-0.7,3.1c-0.5,0.9-1.1,1.5-1.9,1.7c-0.4,0.1-0.8,0.2-1.4,0.2l-0.6,0c-1.5-0.1-3.1-0.3-4.6-0.9
			c-1.4-0.6-2.6-1.5-4-2.2c0.5-0.7,0.6-1.9,1.2-2.5c0.3-0.3,0.7-0.2,1.1-0.2c1.7,0.2,2.1,0.4,3.2,1.6c0.5,0.5,1.6,2,2.4,1.3
			c0.2-0.2,0.2-0.6,0.1-0.9c-0.1-0.3-0.3-0.6-0.5-0.8c-2.2-2.7-3.6-6.1-5.1-9.3c-0.4-0.8-0.7-1.6-0.9-2.3c-0.5-1.7,1.3-3.4,2.4-4.4
			c1.3-1.2,2.5-2.7,4-3.7C102.8,223.2,104.5,221.8,106.5,223.4z M96.8,217.9c1.2-0.7,2.4-1.3,3.6-1.7c0.2-0.1,0.4,0,0.6,0
			c0.2,0,0.3,0.1,0.5,0.2c1.1,0.8,2,1.9,2.7,3.2c-0.1-0.1-3.6,2-4,2.2c-0.3,0.2-0.5,0.3-0.7,0.4c-1.5,1.1-2.9,2.4-4.1,3.8
			c-1.2,1.3-2.2,2.8-3.2,4.3c-0.1,0.1-0.2,0.2-0.3,0.4c-1.1-1.4-2.3-2.7-3.4-4.1c-0.4-0.4,4.6-5.9,5.1-6.4
			C94.6,219.4,95.6,218.6,96.8,217.9z M85.1,209.8c0.4-1.3,1.5-2.4,2.4-3.4c2.6-2.9,4.9-6.1,7.7-8.8c3.6-3.5,7.9-4.8,12.5-6.6
			c1.5-0.6,4.3-1.9,5.8-0.8c1.4,1,1.8,3,1.1,4.4c-0.4,0.9-1.8,2-2.3,2.8c-0.6,0.9-1,1.9-1.5,2.8c-0.4,0.9-0.9,1.8-1.5,2.6
			c-2.3,3.1-6.4,4.4-10.2,4.5c-2.3,0-4,0.3-5.8,1.8c-1.5,1.3-1.6,2.8-0.7,4.6c0.5,1,1.2,2,1.8,2.9c0,0-3.5,3-4.5,4.2
			c-0.1,0.2-5.6-7.7-4.8-10.6C85,210.1,85,209.9,85.1,209.8z"/>
		<path class="st4" d="M97.3,218.8c0.4-0.3,0.8-0.5,1.3-0.7c0.7-0.4,1.4-0.7,2.2-0.8c1.6-0.2,2.7,1.1,3.4,2.4c-0.1-0.1-3.6,2-4,2.2
			c-0.3,0.2-0.5,0.3-0.7,0.4c-1.5,1.1-2.9,2.4-4.1,3.8c-1.2,1.3-2.2,2.8-3.2,4.3c-0.1,0.1-0.2,0.2-0.3,0.4c0.2-0.2-2.9-3-2.7-4.1
			c0.1-0.4,0.4-0.8,0.7-1.2C91.9,222.8,94.5,220.5,97.3,218.8z"/>
		<path class="st3" d="M155.9,234c5.9-0.5,9.7-1.2,15.9-2.6c0.9-17.5-0.1-34.7-2.8-52c-2.2,10.1-7.7,19.7-16.2,26.2
			c-0.4,0.3-0.9,0.7-1.1,1.2c-0.2,0.5-0.2,1-0.1,1.5c0.7,7.5,0.9,15.1,0.6,22.7C152.1,232.9,153.9,234.5,155.9,234
			C155.9,234,155.9,234,155.9,234z"/>
		<path class="st5" d="M103.4,199.3c0.2-0.2,0.5-0.5,0.7-0.7c-2.2,0.7-4.3,2.1-5.8,3.9c-0.5,0.6-0.9,1-0.7,1.8
			c0.3,0.3,0.7,0.2,1.1,0c0.3-0.2,0.5-0.6,0.7-0.9C100.4,201.9,102.2,200.6,103.4,199.3z"/>
	</g>
	<g>
		<path class="st5" d="M131.6,215.5c-5.3-0.7-11.4-1.2-16-2C117.4,216,126.8,217.2,131.6,215.5z"/>
		<path class="st5" d="M169.3,211.7c-4.5,0.6-9.5,1.4-13.3,1.8C158.1,214.7,165.9,214.4,169.3,211.7z"/>
		<path class="st5" d="M130.9,224.7c-0.2,1-0.4,2.1-1,3c-0.9,1.3-2.4,2-3.9,2.1c-1.5,0.1-3-0.2-4.5-0.5c-1.1-0.2-2.2-0.5-3.3-0.7
			c3.3,0.6,8.6,1.8,10.7-1.6c0.8-1.3,1.2-2.6,1.5-4.1c0.4-2.2,0.6-3.9,0.9-5.7c0,0.6,0.2,1.4,0,3.8
			C131.3,222.2,131.2,223.5,130.9,224.7z"/>
		<path class="st5" d="M156.2,223.5c0.1,1.1,0.3,2.1,0.8,3c0.8,1.4,2.2,2.1,3.7,2.4c1.5,0.2,3,0,4.5-0.2c1.1-0.2,2.3-0.3,3.4-0.5
			c-3.3,0.3-8.7,1.1-10.6-2.4c-0.7-1.3-1-2.7-1.2-4.2c-0.2-2.2-0.3-4-0.5-5.8c0,0.6-0.3,1.4-0.3,3.8
			C156,220.9,156,222.2,156.2,223.5z"/>
		<path class="st5" d="M114.9,213.5c-0.5,2.1-0.7,3.4-0.8,5.1c-0.1,0.9-0.2,1.7-0.2,2.6c0,0.4,0,0.9,0,1.3c0,0.4,0.2,1,0.1,1.4
			c0.4-1.5,0.6-2.8,0.7-3.9c0.2-1.9,0.5-3.9,0.8-5.8c1.4,0.7,2.9,1.1,4.4,1.3c0.6,0.1,1.2,0.1,1.8,0c0.3-0.1,0.7-0.2,1-0.3
			c0.2-0.1,0.7-0.5,0.8-0.4c-0.6-0.1-1.3-0.2-1.9-0.3c-1.5-0.2-3-0.4-4.5-0.6c-0.6-0.1-1.1-0.3-2.1-0.4
			C114.9,213.4,114.9,213.5,114.9,213.5z"/>
	</g>
</g>
</svg>
