<svg width="137" height="271" viewBox="0 0 137 271" fill="none" xmlns="http://www.w3.org/2000/svg">
<path d="M75.7559 230.3C78.6559 229.7 81.8559 229.1 84.5559 227.8C87.0559 226.6 89.6559 226.2 92.1559 225.2C92.4559 225.1 92.7559 224.9 93.0559 224.7C93.2559 224.4 93.4559 224.1 93.5559 223.8C94.6559 220.4 94.5559 216.6 95.9559 213.3C94.2559 213.3 92.6559 213.3 90.9559 213.2C91.1559 211.1 92.2559 208.9 92.7559 206.8C93.3559 204.4 93.8559 202 94.2559 199.6C94.7559 196.5 95.1559 193.3 95.3559 190.2C95.5559 187.3 95.7559 184.4 96.4559 181.5C96.5559 181.2 96.6559 180.9 96.8559 180.7C96.9559 180.6 97.1559 180.5 97.2559 180.4C97.6559 180.2 98.0559 180.1 98.4559 180C98.5559 180 98.6559 180 98.6559 180C98.7559 180 98.7559 180.1 98.7559 180.2C99.0559 181.2 100.256 182.4 100.856 183.2C101.656 184.2 102.656 185.2 103.556 186.2C105.356 188.1 107.356 190.1 109.556 191.7C111.156 192.8 112.756 193.8 114.456 194.7C116.256 195.6 118.056 196.4 119.856 197.1C119.956 197.1 120.056 197.2 120.156 197.1C120.256 197.1 120.256 197 120.356 197C121.156 196.1 121.756 195.1 122.256 194.1C122.456 193.6 122.656 193.1 122.956 192.7C123.056 192.6 124.256 191.4 124.256 191.4C123.056 189.7 121.856 188 120.656 186.3C122.856 187.3 125.056 188.3 127.356 189.4C127.556 189.5 127.656 189.5 127.856 189.5C128.056 189.5 128.156 189.3 128.256 189.2C129.356 187.6 130.456 186 131.456 184.3C131.556 184.1 131.756 183.8 131.656 183.6C131.656 183.4 131.456 183.2 131.356 183.1C130.256 181.9 128.956 180.7 127.456 179.8C129.456 179.9 131.456 180.1 133.456 180.2C134.056 178.7 134.556 177.2 134.856 175.7C134.856 175.5 134.956 175.3 134.856 175C134.756 174.8 134.556 174.6 134.456 174.5C133.456 173.6 132.256 172.7 131.056 172.1C130.656 171.9 130.256 171.8 129.856 171.6C129.256 171.2 128.756 170.8 128.156 170.4C125.856 168.9 123.456 167.7 120.856 166.7L120.456 166.5C120.856 166.5 121.156 166.1 121.356 165.9C121.756 165.5 122.156 165 122.656 164.7C123.656 163.9 124.656 163.1 125.456 162C126.356 160.7 126.856 159.2 126.556 157.6C126.456 157.1 126.256 156.7 126.156 156.3C125.956 155.9 125.756 155.5 125.456 155.1C124.656 154.1 123.556 153.5 122.256 153.2C121.756 153.1 117.556 152.9 117.556 153.2C117.356 155.5 115.056 158.9 112.356 158.6C109.856 158.3 108.456 155.8 105.956 156.2C104.456 156.5 102.256 157.3 100.756 156.6C97.9559 155.2 94.9559 152.8 94.6559 149.6C94.5559 148.2 94.3559 146.8 94.2559 145.4C93.9559 142.7 93.6559 140 93.2559 137.3C92.9559 134.9 92.5559 132.5 92.0559 130.1C91.8559 128.9 91.6559 127.7 91.3559 126.5C91.1559 125.3 90.8559 124.2 90.6559 123C92.5559 122.3 94.1559 121 95.7559 120C96.6559 119.4 97.5559 118.8 97.9559 117.9C98.2559 117.2 98.2559 116.5 98.2559 115.7C98.2559 111.3 97.9559 107.1 97.1559 102.8C96.6559 100.1 96.7559 97.6002 95.9559 94.9002C95.5559 93.8002 94.8559 93.0002 93.7559 92.6002C92.2559 92.1002 92.3559 93.7002 91.9559 94.7002C91.5559 95.7002 90.6559 96.4002 89.7559 96.9002C88.2559 97.8002 86.5559 98.5002 84.8559 98.9002C84.8559 97.9002 84.8559 96.9002 84.3559 96.1002C84.0559 95.6002 83.6559 95.3002 83.3559 94.8002C83.0559 94.3002 82.8559 93.6002 82.7559 93.0002C81.3559 86.4002 80.3559 79.6002 76.8559 73.7002C74.1559 73.9002 71.4559 74.1002 68.7559 74.3002C67.2559 74.4002 64.5559 75.4002 63.4559 74.2002C62.1559 72.8002 61.2558 70.4002 60.3558 68.7002C59.6558 67.4002 58.9559 64.1002 57.2559 63.9002C55.6559 63.7002 53.0558 65.3002 51.6558 65.8002C51.4558 65.9002 51.2558 65.9002 51.1558 65.9002C50.9558 65.8002 50.8559 65.6002 50.8559 65.4002C47.8559 56.0002 42.5558 46.7002 37.6558 38.1002C36.6558 36.3002 35.5559 34.5002 34.4559 32.7002C33.9559 31.8002 25.6559 18.4002 25.0559 17.5002C21.5559 11.6002 17.8559 5.8002 13.8559 0.200195C11.5559 1.7002 9.05586 3.00019 6.85586 4.50019C7.45586 5.60019 7.95585 6.7002 8.55585 7.8002C9.75585 10.0002 10.8559 11.6002 11.8559 13.5002C13.5559 16.7002 23.2559 32.2002 24.9559 35.3002C31.0559 45.9002 35.8559 57.1002 40.2559 68.5002C40.3559 68.7002 37.2559 70.7002 37.0559 70.9002C35.6559 71.9002 34.3559 73.0002 33.0559 74.1002C33.1559 75.1002 33.5559 76.0002 33.8559 76.9002C34.1559 77.9002 34.3558 79.0002 34.6558 80.0002C34.7558 80.6002 36.1559 84.9002 35.9559 85.1002C32.9559 87.8002 29.7559 90.1002 26.8559 92.9002C26.7559 93.0002 26.6559 93.1002 26.6559 93.3002C26.6559 93.4002 26.6559 93.6002 26.7559 93.7002C28.7559 99.0002 29.9559 104.7 31.4559 110.2C31.1559 109.1 22.0559 107.7 20.9559 108.4C20.2559 108.8 19.8559 109.4 19.3559 110C18.0559 111.7 16.7559 113.4 15.4559 115.1C18.5559 115.2 21.5559 115.1 24.6559 115.4C27.6559 115.7 30.4559 116.2 33.3559 117C34.2559 117.2 35.5558 125.1 35.6558 126.3C35.8558 127.9 36.2559 129.1 35.0559 130.2C33.9559 131.2 32.4559 131.7 32.0559 133.3C31.8559 134.1 31.9558 135 32.1558 135.8C32.5558 137.8 33.9559 140.3 32.3559 142.1C31.7559 142.8 30.8559 143.2 29.9559 143.5C26.3559 145.1 22.9559 147.3 20.0559 149.9C18.9559 150.9 17.8559 152 16.9559 153.3C16.4559 153.9 15.9559 154.8 15.4559 155.4C13.8559 157.5 12.8559 158.7 11.4559 160.6C10.2559 162.2 9.25585 164.7 9.55585 167.3C9.75585 169.1 11.0559 171.7 11.8559 173.4C12.5559 174.8 13.2559 176.3 14.0559 177.6C14.1559 177.7 14.2559 177.9 14.1559 178C14.1559 178.1 14.0559 178.2 14.0559 178.3C13.5559 179.3 13.0559 180.3 12.6559 181.3C12.6559 181.4 12.6559 181.4 12.6559 181.5C12.6559 181.6 12.7559 181.6 12.7559 181.7C12.9559 181.9 13.1559 182.1 13.4559 182.4C14.9559 180.8 16.1559 179.1 17.6559 177.5C19.0559 176 20.6559 174.9 22.1559 173.5C22.5559 173.2 22.8559 172.8 22.9559 172.4C22.2559 171.6 21.8559 170.7 21.4559 169.8C21.0559 168.8 20.1559 167 20.8559 166C21.4559 165.1 22.9559 164.4 23.8559 164C25.5559 163.3 27.4559 162.8 29.2559 162.6C30.9559 162.4 32.1559 161.9 33.7559 161.3C33.9559 163.7 33.9559 166.1 33.8559 168.4C33.7559 170.6 33.2559 172.9 33.2559 175.1C33.3559 178.8 38.0558 177.9 38.6558 181.1C38.9558 182.5 38.2558 184.8 38.1558 186.3C37.7558 190.5 37.2559 194.6 36.5559 198.8C36.3559 200 36.0559 201.3 36.0559 202.4C35.5559 205.2 34.7558 207.9 34.1558 210.7C32.5558 210.9 30.9559 210.8 29.3559 210.8C29.1559 210.8 28.9559 210.8 28.8559 210.9C28.7559 211 28.7559 211.1 28.6559 211.3C27.2559 216 25.2559 220.5 24.1559 225.2C25.1559 225.2 26.1559 225.8 27.0559 226.2C28.3559 226.8 41.8559 231.1 41.9559 230.4C41.2559 232.7 40.5558 235.3 39.6558 237.9C39.2558 239.1 38.8559 240.2 38.4559 241.3C38.1559 242 37.7559 243.6 37.0559 243.8C36.6559 243.9 36.0559 243.8 35.5559 243.7C35.4559 243.7 35.2558 243.7 35.1558 243.7C34.5558 243.7 33.9559 243.7 33.3559 243.7C32.1559 243.7 30.9559 243.8 29.7559 243.9C29.5559 243.9 29.2559 244 29.0559 243.9C28.5559 243.8 28.0559 243.5 27.5559 243.4C27.0559 243.3 26.4559 243.2 25.8559 243.2C24.9559 243.2 24.0559 243.5 23.5559 244.2C23.3559 244.5 23.1559 244.9 22.8559 245C22.5559 245.2 22.1559 245.1 21.7559 245C20.5559 244.7 19.3559 244.6 18.1559 244.7C16.9559 244.9 15.7559 245.4 14.9559 246.2C14.6559 246.5 14.3559 246.9 14.0559 247.1C13.1559 247.7 11.8559 247.3 10.7559 247.4C9.95586 247.5 9.05585 247.8 8.45585 248.4C7.85585 249 7.45585 249.8 7.15585 250.6C6.85585 251.4 6.25585 251.7 5.55585 252.2C4.45585 253.2 3.45585 254.2 2.55585 255.4C0.655852 258.2 -1.24415 264.2 1.05585 267.3C1.95585 268.4 3.35586 269 4.75586 269.2C6.15586 269.5 7.65585 269.5 9.15585 269.4C13.2559 269.3 17.2559 268.8 21.2559 268.3C24.8559 267.8 28.4559 267.2 31.8559 265.9C33.4559 265.3 35.0559 264.4 36.5559 263.6C39.6559 262 42.6559 260.3 45.7559 258.7C46.8559 258.1 48.0559 257.5 48.8559 256.5C50.0559 255 49.8559 252.9 49.5559 251.1C49.3559 249.8 48.9559 248.4 48.0559 247.2C47.3559 246.3 46.3559 245.6 45.2559 245.3C47.0559 240.8 48.7558 235.7 49.6558 231.5C51.8558 231.7 53.9558 231.9 56.1558 232C59.8558 232.1 63.5559 232 67.2559 231.7C66.7559 235 65.1558 239.6 63.6558 242.7C60.6558 243.2 58.0558 244.7 56.1558 246.9C54.0558 249.2 52.7558 252.2 52.6558 255.2C52.6558 255.9 52.4559 257 52.9559 257.6C53.4559 258.2 54.4558 258.3 55.1558 258.4C67.5558 259.4 79.9559 260.4 92.2559 261.4C97.7559 261.8 103.156 262.3 108.556 263.4C109.456 263.6 110.456 263.8 111.356 263.6C112.756 263.3 112.956 262.5 113.456 261.4C114.256 259.4 114.856 257.3 114.856 255.2C114.856 251.9 114.156 248.4 111.956 245.7C110.156 243.5 107.456 242.1 104.656 241.6C103.356 241.4 101.956 241.4 100.856 240.7C99.2559 239.6 98.6559 239.6 96.7559 240C95.5559 240.2 94.7559 239.9 93.5559 239.6C91.1559 238.9 89.1559 241.2 86.8559 240.5C85.8559 240.2 85.1559 239.9 83.9559 240.2C81.9559 240.6 80.1559 241.9 78.1559 242.2C76.3559 242.5 74.4559 242.7 72.6559 243C73.4559 238.6 74.9559 234.6 75.7559 230.3Z" fill="white"/>
<path opacity="0.3" d="M67.3558 221.6C64.9558 220.7 63.7558 222.3 61.3558 222.9C56.4558 224.2 50.4558 224.5 45.5558 223.3C45.3558 223.2 45.0558 223.1 45.0558 222.9C46.4558 218.9 47.2558 214.7 48.2558 210.6C49.4558 205.4 50.3558 200.2 51.1558 194.9C53.3558 179.9 53.9558 165.9 52.4558 151.1C50.8558 135.8 46.9558 119.7 43.1558 104.8C38.5558 105 33.8558 102.6 31.4558 98.6001C32.6558 101.8 33.4558 105.6 34.4558 108.9C35.6558 112.6 36.5558 116.4 37.2558 120.2C37.7558 123.1 38.7558 125.8 39.3558 128.7C40.1558 132.3 39.7558 135.9 40.4558 139.4C40.7558 141 41.0558 142.6 41.2558 144.2C41.4558 146.3 41.3558 148.1 41.8558 150.1C42.4558 152.3 42.6558 154.3 42.6558 156.6C42.6558 167 42.0558 177.5 41.5558 187.9C41.2558 193.9 39.1558 199.7 37.9558 205.6C37.5558 207.8 37.3558 210.3 36.5558 212.4C35.5558 214.8 34.1558 214.1 31.7558 213.9C31.3558 213.9 30.9558 213.8 30.6558 214.1C30.4558 214.3 30.3558 214.6 30.2558 214.9C29.3558 218 28.4558 221 27.6558 224.1C27.2558 225.4 37.8558 228.1 38.9558 228.3C42.7558 228.9 46.4558 229.5 50.3558 229.6C58.1558 229.7 66.1558 228.1 72.8558 223.8C71.0558 222.9 69.2558 222.3 67.3558 221.6Z" fill="#231F20"/>
<path opacity="0.5" d="M38.8558 57.0998C38.2558 55.5998 37.5558 54.0998 36.9558 52.5998C34.5558 47.0998 31.8558 41.6998 28.8558 36.4998C25.7558 31.1998 22.3558 25.9998 19.1558 20.6998C17.7558 18.3998 16.3558 16.0998 15.0558 13.6998C14.7558 13.1998 11.3558 7.2998 11.4558 7.1998C12.3558 6.3998 13.4558 5.8998 14.4558 5.2998C15.6558 6.8998 16.5558 8.6998 17.5558 10.2998C19.4558 13.2998 21.2558 16.2998 23.0558 19.2998C26.6558 25.1998 30.1558 31.1998 33.6558 37.0998C39.9558 47.7998 46.0558 58.2998 49.1558 70.3998C47.4558 71.4998 44.7558 71.6998 43.8558 69.5998C43.3558 68.2998 42.7558 66.8998 42.2558 65.5998C41.1558 62.7998 40.0558 59.8998 38.8558 57.0998Z" fill="#231F20"/>
<path d="M25.4558 257.9C25.2558 257.6 24.9558 257.3 24.7558 257C22.8558 254.8 20.2558 253.3 17.4558 252.8C13.8558 252.1 11.0558 253.4 8.65584 256.1C6.75584 258.3 6.55584 260.2 6.05584 262.9C5.95584 263.6 6.35584 264.3 6.95584 264.7C9.55584 266.5 13.9558 266.2 16.8558 265.9C18.3558 265.8 19.9558 265.5 21.4558 265.2C31.0558 263.4 41.9558 257.6 50.1558 253.4C52.3558 252.3 49.5558 249.4 48.2558 247.6C47.8558 247 46.8558 246.4 46.1558 246.2C45.4558 246 44.1558 247.9 43.7558 248.5C43.5558 248.8 43.4558 249.1 43.3558 249.4C42.7558 250.7 41.1558 251.4 39.8558 250.8C39.0558 250.4 38.5558 249.4 38.4558 248.5C38.3558 247.8 38.3558 245.4 39.2558 245.1C37.0558 245.9 34.5558 245.2 32.2558 245.6C33.0558 245.9 33.7558 246.3 34.4558 246.8C35.9558 247.9 37.6558 250.7 37.0558 252.6C36.7558 253.6 35.5558 254.4 34.5558 254C34.2558 255 33.3558 255.7 32.3558 255.8C31.3558 255.9 30.3558 255.6 29.4558 255.1C29.5558 256.3 29.3558 257.6 28.5558 258.4C27.1558 259.9 26.2558 258.9 25.4558 257.9Z" fill="#E1251B"/>
<path d="M82.4558 252.2C82.3558 252.1 82.1558 252.1 81.9558 252.1C81.6558 252.1 81.4558 252.3 81.1558 252.4C80.4558 252.8 79.6558 253.1 78.9558 253.1C78.1558 253.1 77.3558 252.8 76.8558 252.2C76.4558 251.6 76.3558 250.9 76.3558 250.2C76.3558 249.1 76.6558 248 77.0558 247C75.7558 247.1 74.3558 247.4 73.0558 247.4C72.1558 247.4 71.1558 247.1 70.4558 248C70.0558 248.5 69.8558 249.1 69.3558 249.5C68.4558 250.2 67.0558 249.8 66.1558 249.1C65.1558 248.3 64.3558 247 64.6558 245.8C64.5558 246.1 62.5558 247 62.1558 247.3C61.3558 247.9 60.5558 248.7 59.9558 249.4C58.5558 251.1 58.5558 252.4 58.4558 254.7C75.9558 255.9 93.6558 258.3 111.756 259.7C112.056 259.7 112.456 259.7 112.756 259.6C115.156 258.6 113.356 252.4 112.856 250.9C112.156 248.8 110.756 246.8 108.856 245.6C107.956 245 106.856 244.7 105.756 244.3C104.356 243.9 102.856 243.5 101.356 243.6C98.9558 243.8 96.9558 245.8 95.6558 247.7C94.9558 248.7 94.5558 249.9 93.9558 250.9C93.3558 252 92.4558 252.9 91.2558 253.3C90.0558 253.7 88.5558 253.1 88.2558 252C87.6558 252.6 86.9558 253.3 86.0558 253.6C85.2558 253.9 84.1558 253.9 83.4558 253.3C83.2558 253.1 82.9558 252.5 82.4558 252.2Z" fill="#E1251B"/>
<path opacity="0.5" d="M40.0558 76.3001C40.5558 76.4001 41.1558 76.4001 41.7558 76.4001C43.1558 76.3001 44.5558 76.0001 45.9558 75.7001C48.6558 75.0001 51.2558 73.9001 53.5558 72.4001C55.1558 71.3001 56.5558 69.7001 57.6558 68.1001C58.5558 70.3001 59.4557 72.4001 60.3557 74.5001C60.8557 75.7001 61.4558 77.1001 62.1558 78.2001C62.9558 79.5001 64.2558 80.2001 64.5558 78.0001C64.7558 76.9001 64.5558 75.7001 64.1558 74.7001C66.0558 76.4001 66.8558 79.2001 66.1558 81.6001C65.3558 84.2001 63.5557 85.1001 61.3557 86.3001C59.2557 87.5001 57.2558 88.6001 55.0558 89.6001C51.4558 91.2001 47.4558 92.0001 43.5558 91.7001C41.1558 91.5001 40.5558 87.0001 40.0558 85.2001C39.6558 84.1001 39.5558 82.9001 39.1558 81.8001C38.7558 80.6001 38.3558 79.5001 37.9558 78.3001C37.6558 77.5001 37.3558 76.6001 37.2558 75.7001C37.1558 74.8001 37.3558 73.9001 37.9558 73.2001C38.1558 73.0001 38.3558 72.8001 38.6558 72.9001C38.3558 73.5001 38.3558 74.3001 38.6558 75.0001C38.8558 75.8001 39.3558 76.1001 40.0558 76.3001Z" fill="#231F20"/>
<path d="M97.2559 158.2C97.9559 158.8 98.6559 159.3 99.4559 159.8C98.6559 160.4 98.0559 161.1 97.4559 161.9C97.4559 160.7 97.3559 159.5 97.2559 158.2Z" fill="white"/>
<path d="M128.956 184.3C128.156 185.4 127.256 186.6 126.456 187.7C126.356 187.8 126.256 187.9 126.156 188C126.056 188 125.956 188 125.856 187.9C125.056 187.6 117.856 183.6 118.356 182.8C118.756 182.2 120.356 179.6 121.056 179.3C122.156 178.9 123.956 180.4 124.756 181C126.256 182 127.856 182.8 128.956 184.3Z" fill="#0071CE"/>
<path d="M100.756 168C100.356 168 99.9558 170.3 99.8558 170.5C99.6558 171.3 99.3558 172 99.3558 172.9C99.3558 173.6 99.5558 174.3 99.4558 175C99.4558 175.7 99.0558 176.4 98.4558 176.6C98.1558 176.7 97.9558 176.7 97.6558 176.6C97.4558 176.6 97.2558 176.5 97.0558 176.4C96.9558 176.3 96.9558 176.2 96.8558 176C96.5558 174.9 96.5558 173.7 96.6558 172.6C96.8558 170.3 97.1558 168 98.2558 165.9C98.5558 165.3 98.9558 164.8 99.3558 164.2C100.856 162.4 103.056 161.1 105.256 160.2C105.456 160.1 105.556 160.1 105.756 160.1C105.956 160.1 106.156 160.3 106.356 160.5C106.856 160.9 107.256 161.4 107.756 161.8C107.556 161.6 105.856 162.7 105.556 162.9C104.856 163.3 104.156 163.8 103.556 164.4C102.456 165.3 101.456 166.6 100.756 168Z" fill="#0071CE"/>
<path d="M131.856 177.3C131.556 177.9 131.256 178.6 130.956 179.3C130.756 178.8 130.056 178.9 129.556 178.7C128.256 178 126.656 177.9 125.156 177.5C124.856 177.4 122.256 176.5 122.056 176.9C122.356 176.4 122.556 176 122.756 175.5C123.056 174.7 122.656 173.4 121.756 174.4C121.556 174.7 121.456 175 121.256 175.3C120.556 177.1 119.556 178.7 118.356 180.2C117.756 180.9 117.056 181.6 116.256 182.3C115.656 182.8 114.956 183.2 114.456 183.8C114.256 184 113.856 184 114.056 184.4C114.256 184.6 115.456 184.6 115.856 184.8C116.556 185.1 117.156 185.9 117.656 186.4C118.756 187.5 119.756 188.6 120.756 189.8C121.056 190.2 121.356 190.6 121.356 191.1C121.356 191.4 121.156 191.7 120.956 192C120.356 192.8 119.856 193.5 119.256 194.3C119.156 194.4 119.056 194.5 118.956 194.6C118.656 194.8 118.256 194.7 117.956 194.6C117.656 194.4 117.456 194.2 117.156 193.9C115.456 192.3 113.156 191.9 111.756 190C110.356 188.1 108.856 186.7 107.256 185C105.656 183.4 104.056 181.6 102.856 179.8C101.656 178 100.956 176.1 101.056 174.2C101.156 172.5 101.756 170.8 102.756 169.2C103.956 167.1 105.556 165.3 107.656 164.5C109.056 163.9 110.856 163.7 112.756 163.4C114.956 163 117.556 162.2 119.356 160.7C120.256 160 120.456 159.1 120.956 158C122.056 157.9 123.156 158.2 123.856 159.1C125.556 161 122.656 164 121.256 165.3C119.356 167.1 116.856 168.2 114.156 168.2C113.756 168.2 113.156 168 112.956 168.3C112.756 168.6 112.956 169.1 112.956 169.4C112.956 169.7 113.056 170 112.956 170.3C112.956 171.3 112.656 172.2 112.156 173.1C111.656 174 110.956 174.7 110.056 175.3C109.356 175.8 111.156 176.1 111.456 176.1C112.356 176.1 113.256 175.8 113.956 175.3C115.056 174.5 115.756 173.3 116.256 172.1C116.356 171.8 116.456 171.5 116.656 171.3C116.856 171.1 117.056 171 117.256 170.9C118.756 170.2 120.456 169.5 122.056 169.9C123.256 170.2 124.156 170.6 125.256 171.1C127.956 172.4 130.156 174.1 132.456 175.8C132.456 176.3 132.156 176.8 131.856 177.3Z" fill="#0071CE"/>
<path d="M82.256 139.7C82.056 140.1 81.856 140.6 81.756 141C81.656 141.3 81.456 141.6 81.256 141.8C81.056 142 80.756 142.1 80.456 142.2C75.656 143.9 70.756 145.1 65.756 146C65.556 146 65.256 146.1 65.056 146C64.656 145.9 64.356 145.4 64.056 145.2C63.656 144.8 63.256 144.5 62.856 144.2C62.456 143.8 61.956 143.5 61.556 143.2C61.256 143 60.656 142.4 60.356 142.3C61.556 142.5 62.756 142.6 63.856 142.6C70.756 142.8 77.656 141.1 83.556 137.7C83.256 138.2 82.856 138.7 82.556 139.2C82.456 139.3 82.356 139.5 82.256 139.7Z" fill="white"/>
<path d="M51.2559 85C51.4559 85.6 51.5559 86.4 52.0559 86.8C52.4559 87.2 52.9559 87 53.0559 86.5V86C53.0559 85.5 52.8559 84.9 52.8559 84.4C52.6559 83.1 52.1559 81.9 51.7559 80.7C51.4559 79.7 51.1559 78.6 50.2559 78.1L49.9559 78L49.5559 78.3V78.9C50.0559 80.9 50.7559 82.9 51.2559 85ZM47.2559 87.5C47.3559 87.8 47.3559 88 47.5559 88.2C47.7559 88.4 48.0559 88.5 48.2559 88.4C49.0559 88.1 48.4559 86.4 48.3559 85.8C48.1559 84.7 47.8559 83.7 47.5559 82.7C47.2559 81.6 46.8559 80.5 46.2559 79.6L45.9559 79.3H45.4559C45.2559 79.4 45.2559 79.7 45.3559 79.9C45.9559 82.4 46.5559 84.9 47.2559 87.5ZM42.7559 85.7C42.9559 86.4 43.1559 87.2 43.4559 87.9V88C43.6559 88.5 44.4559 89 44.8559 88.4C45.0559 88 44.7559 87.1 44.7559 86.7C44.6559 85.2 44.1559 83.8 43.6559 82.5C43.2559 81.2 42.7559 80 41.9559 78.8C41.8559 78.6 41.5559 78.3 41.2559 78.4L41.0559 78.9C41.0559 80 41.4559 81.1 41.7559 82.1C42.1559 83.3 42.4559 84.5 42.7559 85.7ZM54.9559 81.9C55.0559 82.2 55.3559 82.5 55.5559 82.4L55.6559 81.9C55.5559 81.2 55.4559 80.5 55.3559 79.9C55.1559 78.8 54.8559 77.8 54.1559 76.9L53.6559 76.6C52.7559 76.5 53.4559 78.2 53.5559 78.6C53.9559 79.7 54.5559 80.8 54.9559 81.9ZM136.356 176.2C136.556 175.8 136.656 175.4 136.856 175C136.856 174.9 136.956 174.7 136.856 174.6C136.856 174.5 136.756 174.4 136.656 174.4C132.356 171.5 127.756 168.6 122.856 166.7L122.456 166.5C123.556 165.6 124.556 164.5 125.356 163.2C126.456 161.4 127.356 159.5 126.756 157.4C126.556 156.6 125.956 156 125.256 155.5C123.456 154.3 121.056 154.2 118.956 154C118.856 154 118.856 154 118.756 154C118.656 154 118.656 154.1 118.656 154.2C118.056 155.9 117.756 156.9 116.456 158.2C115.456 159.2 114.056 159.6 112.356 159.9C111.856 160 111.356 160.2 110.956 159.9C110.556 159.7 110.256 159.3 109.956 159C109.156 158.3 108.356 157.7 107.556 157.1C107.356 157 107.256 156.9 107.056 156.8C106.856 156.7 106.556 156.8 106.356 156.8C105.356 157 104.456 157.2 103.556 157.6C102.856 157.9 102.156 158.5 101.356 158C100.556 157.6 99.7559 157.1 99.0559 156.5C98.7559 156.2 98.4559 155.9 98.1559 155.5C97.9559 155.2 97.5559 154.9 97.4559 154.6C97.0559 153.7 97.0559 152.8 97.0559 151.8C96.6559 146.9 96.1559 142.1 95.4559 137.3C95.1559 134.9 94.7559 132.5 94.2559 130.1C94.0559 128.9 93.8559 127.7 93.5559 126.5C93.3559 125.3 93.0559 124.2 92.8559 123C94.7559 122.3 96.3559 121 97.9559 120C98.8559 119.4 99.7559 118.8 100.156 117.9C100.456 117.2 100.456 116.5 100.456 115.7C100.456 111.3 100.156 107.1 99.3559 102.8C98.8559 100.1 98.9559 97.6 98.1559 94.9C97.8559 93.4 96.4559 92.9 95.1559 92.3C93.6559 91.6 92.0559 91 90.4559 90.4C89.2559 90 88.0559 89.6 86.8559 89.3C86.5559 89.2 84.0559 88.8 83.9559 88.5C83.5559 87.2 83.2559 86 82.8559 84.7C82.7559 84.7 81.0559 79.6 80.9559 79.1C80.1559 76.9 78.9559 74.6 78.1559 72.4C75.7559 72.6 73.9559 72.8 71.5559 72.9C70.3559 73 69.0559 73.2 67.8559 73.2C67.1559 73.2 66.0559 73.4 65.2559 73.4C64.6559 71.6 63.2559 69.7 62.2559 68C61.9559 67.6 59.1559 62.2 58.8559 62.3C58.3559 62.5 53.6559 63.7 52.3559 63.9L52.2559 63.7C48.5559 54.9 44.3559 46.2 39.5559 37.9C38.5559 36.1 37.4559 34.3 36.3559 32.5C35.8559 31.6 27.5559 18.2 26.9559 17.3C23.4559 11.4 19.7559 5.6 15.7559 0C13.4559 1.5 10.9559 2.8 8.75586 4.3C9.35586 5.4 9.85586 6.5 10.4559 7.6C11.6559 9.8 12.7559 11.4 13.7559 13.3C15.4559 16.5 25.1559 32 26.8559 35.1C32.9559 45.7 37.7559 56.9 42.1559 68.3C42.2559 68.5 39.1559 70.5 38.9559 70.7C37.5559 71.7 36.2559 72.8 34.9559 73.9C35.0559 74.9 35.4559 75.8 35.7559 76.7C36.0559 77.7 36.2559 78.8 36.5559 79.8C36.6559 80.4 38.0559 84.7 37.8559 84.9C34.8559 87.6 32.0559 90.6 28.9559 93.2C29.7559 96 30.5559 98.9 31.1559 101.8C31.4559 103.1 31.6559 104.3 32.0559 105.5C32.1559 106 32.6559 109 33.0559 109.2C32.2559 108.9 23.9559 107.4 22.7559 108.1C22.0559 108.5 21.6559 109.1 21.1559 109.7C19.8559 111.4 18.5559 113.1 17.2559 114.8C20.3559 114.8 23.3559 114.8 26.4559 115.1C29.4559 115.4 32.2559 115.9 35.1559 116.7C36.2559 120.5 37.2559 124.3 38.0559 128.1C39.6559 136.2 40.3559 144.5 41.0559 152.8C41.9559 164.1 41.7559 175.7 40.3559 187C39.2559 195.2 38.1559 203.7 36.0559 211.7C35.8559 212.6 30.7559 212.6 29.9559 212.6C29.5559 213.7 28.9559 215.9 28.6559 216.8C27.8559 219.3 27.1559 221.2 26.1559 224.8C26.2559 224.5 30.1559 226.4 30.3559 226.5C32.0559 227.2 33.8559 227.8 35.6559 228.3C36.2559 228.5 44.0559 230.2 44.0559 230.1C43.3559 232.4 42.6559 235 41.7559 237.6C41.0559 239.9 40.2559 242.1 39.3559 243.9V243.8C38.7559 243.7 38.2559 243.7 37.6559 243.7C34.9559 243.6 32.2559 243.9 29.6559 244.2C29.4559 244.2 29.1559 243.9 28.8559 243.8C28.5559 243.7 28.1559 243.6 27.8559 243.5C27.1559 243.4 26.5559 243.6 25.9559 243.9C25.2559 244.2 25.3559 244.9 24.6559 245.1C24.0559 245.3 23.3559 245.3 22.7559 245.4C21.0559 244.9 19.2559 244.7 17.9559 246.2C17.8559 246.4 17.7559 246.6 17.6559 246.8C17.4559 247 16.9559 247 16.7559 247.1C16.1559 247.3 15.4559 247.5 14.8559 247.8H14.7559C13.3559 247.7 11.6559 247.9 10.6559 249C10.3559 249.3 10.3559 249.6 10.1559 250C10.0559 250.3 10.1559 250.3 9.75586 250.6C9.15586 251 8.55586 251.5 7.95586 252C6.85586 253 5.85586 254 4.95586 255.2C3.55586 257.2 2.95585 259.4 2.65585 261.7C2.55585 262.4 2.35586 263.6 2.25586 264.8C2.25586 265.4 2.25586 266.1 2.45586 266.8C2.65586 267.5 3.05585 268.1 3.65585 268.6C4.55585 269.3 5.55586 269.5 6.35586 269.7C8.45586 270.2 10.6559 270.4 12.8559 270.5C18.7559 270.7 24.7559 269.6 30.2559 267.7C37.8559 265.1 44.7559 261.2 51.4559 257.2L51.9559 256.9L52.0559 256.3C52.0559 255.9 52.1559 255.4 52.1559 255C52.1559 253.7 52.1559 252.3 51.8559 251C51.6559 249.7 51.2559 248.3 50.3559 247.1C49.6559 246.2 48.6559 245.5 47.5559 245.2C49.3559 240.7 51.0559 235.6 51.9559 231.4C54.1559 231.6 56.2559 231.8 58.4559 231.9C62.1559 232 65.8559 231.9 69.5559 231.6C69.0559 234.9 67.4559 239.5 65.9559 242.6C62.9559 243.1 60.3559 244.6 58.4559 246.8C56.3559 249.1 55.0559 252.1 54.9559 255.1C54.9559 255.9 54.9559 256.6 55.1559 257.4L55.3559 258.3L56.2559 258.4C65.9559 259.5 75.5559 260.5 85.2559 261.5C91.3559 262.1 97.3559 262.8 103.456 263.5C106.456 263.8 109.456 264.1 112.456 264.3C114.156 264.4 114.356 264.1 114.856 262.6C115.356 261 115.756 259.4 115.756 257.7C115.956 252.3 113.756 247.1 108.956 244.1C107.256 243 104.956 242.4 102.456 241.9C101.656 241.7 100.656 241.7 99.8559 241.6C99.8559 241.3 99.7559 241 99.7559 240.8C99.7559 240.7 99.6559 240.6 99.5559 240.5C99.4559 240.4 99.2559 240.4 99.1559 240.3C98.5559 240.2 97.9559 240.5 97.4559 240.8C96.9559 241.2 96.5559 241.1 95.8559 241.1C95.1559 241.1 94.4559 241.1 93.7559 241C93.8559 240.7 93.6559 240.3 93.3559 240.2C93.0559 240 92.6559 240 92.3559 240.1C91.4559 240.3 90.9559 240.7 90.3559 241.3C90.1559 241.5 89.1559 241.4 88.8559 241.5C88.3559 241.6 87.7559 241.6 87.2559 241.7C87.5559 241.4 86.8559 240.8 86.4559 240.7C86.2559 240.6 86.0559 240.6 85.7559 240.7C85.0559 240.8 84.3559 241 83.7559 241.4C83.4559 241.6 82.7559 242.5 82.3559 242.6C79.4559 243.2 76.6559 243.8 73.8559 244.2C75.4559 239.8 77.0559 234.6 77.8559 230.4C77.8559 230.2 81.2559 229.6 81.6559 229.5C83.0559 229.1 84.4559 228.8 85.8559 228.4C88.5559 227.6 91.2559 226.7 93.8559 225.7C94.0559 225.6 94.2559 225.5 94.4559 225.3C94.5559 225.1 94.6559 224.9 94.6559 224.7C95.5559 220.6 96.5559 216.1 96.9559 212C95.8559 212 94.2559 212.4 93.2559 212.2C93.7559 210 94.5559 207.8 95.0559 205.5C95.5559 203.2 96.0559 200.9 96.3559 198.6C97.0559 194.1 97.4559 189.6 97.6559 185C97.7559 182.3 97.7559 180.4 97.7559 177.7C98.3559 177.6 98.9559 177.4 99.5559 177.3C99.9559 178.3 100.456 179.3 100.956 180.3C102.256 182.4 103.956 184.3 105.656 186C107.456 187.9 109.456 189.9 111.656 191.5C114.056 193.2 117.656 195.6 120.356 196.9C120.556 197 120.756 197.1 120.956 197C121.056 197 121.156 196.9 121.256 196.8C122.956 195 124.356 193.5 125.956 191.7C126.056 191.6 126.056 191.6 126.056 191.5C126.056 191.4 125.956 191.3 125.956 191.3C125.156 190.5 123.556 188.5 122.856 187.6C124.256 188.6 125.856 189.3 127.456 190.1C127.856 190.3 128.256 190.7 128.756 190.7C130.456 188.4 132.256 185.9 133.956 183.6C133.856 183.7 130.456 180.7 130.156 180.3C131.656 180.6 133.256 180.8 134.556 181.2C134.956 179.6 135.656 177.9 136.356 176.2ZM90.3559 96.1L90.9559 95.9C91.9559 95.3 92.9559 94.6 93.8559 93.8C94.1559 94 94.5559 94.1 94.8559 94.3C92.2559 96 89.5559 97.9 86.6559 99.1C86.3559 97.7 85.9559 96.2 85.5559 94.8M28.8559 34.1C27.4559 31.7 18.2559 16.9 16.8559 14.5C15.6559 12.4 14.4559 10.5 13.2559 8.2C13.0559 7.8 12.8559 7.5 12.6559 7.1L11.9559 5.6V5.4L12.0559 5.3C13.0559 4.7 14.0559 4.1 15.0559 3.5C15.5559 4.1 15.8559 4.8 16.3559 5.4C19.8559 10.6 30.9559 28.4 34.1559 33.8C35.2559 35.6 36.2559 37.4 37.2559 39.2C41.9559 47.5 46.1559 56 49.7559 64.8C50.0559 65.5 50.2559 66.2 50.1559 66.9C50.1559 67.3 50.0559 67.6 49.9559 67.9C49.5559 68.9 48.4559 69.6 47.1559 70C46.7559 70.1 46.3559 70.2 46.0559 70.2C45.6559 70.2 45.4559 70.1 45.3559 70C45.2559 69.9 45.1559 69.6 44.9559 69.2C40.3559 57.2 35.2559 45.4 28.8559 34.1ZM37.6559 75C37.8559 74.9 38.6559 74.2 39.5559 73.5C41.0559 72.2 42.8559 70.7 42.9559 70.8C43.0559 71.1 43.2559 71.4 43.5559 71.7C44.2559 72.4 45.1559 72.6 45.8559 72.6C46.5559 72.6 47.2559 72.5 47.8559 72.3C49.5559 71.8 51.3559 70.7 52.1559 68.8C52.3559 68.2 52.5559 67.6 52.5559 67V66.5C54.2559 66.2 55.8559 65.5 57.6559 65.2C58.6559 66.7 59.6559 68.3 60.6559 69.8C61.3559 70.8 61.7559 72.2 62.3559 73.4C63.0559 74.8 63.7559 76.1 64.3559 77.5C64.6559 78.2 65.0559 78.9 65.3559 79.6L65.4559 79.7L65.3559 79.8C63.9559 82.3 62.0559 84.5 59.7559 86.1C57.7559 87.5 55.3559 88.6 52.8559 89.4C50.2559 90.3 47.4559 91.1 44.8559 91C44.0559 91 43.2559 90.9 42.5559 90.7C42.1559 90.6 41.8559 90.5 41.8559 90.4C41.8559 90.4 41.6559 90.1 41.5559 89.8L40.1559 85.4C39.1559 81.9 38.6559 78.4 37.6559 75ZM33.6559 103.4C33.2559 102 32.8559 100.5 32.4559 99.1C32.2559 98.2 32.0559 97.5 31.7559 96.5C31.5559 95.7 31.3559 94.9 31.1559 94.2C32.1559 93.3 33.8559 91.8 34.2559 91.5C35.6559 90.3 36.9559 88.9 38.3559 87.7L39.2559 90.5C39.3559 90.9 39.5559 91.4 40.0559 92C40.6559 92.7 41.4559 92.9 41.9559 93C42.8559 93.2 43.8559 93.4 44.8559 93.4C47.9559 93.5 50.9559 92.7 53.7559 91.7C56.3559 90.8 58.9559 89.7 61.2559 88.1C63.8559 86.2 65.9559 83.8 67.5559 81C67.6559 80.8 67.8559 80.4 67.9559 79.8C67.9559 79.2 67.7559 78.8 67.6559 78.6C67.3559 77.9 66.9559 77.2 66.6559 76.5C66.5559 76.3 66.4559 76 66.2559 75.8C66.3559 76 70.0559 75.4 70.4559 75.4C72.1559 75.3 73.8559 75.2 75.5559 75.2C75.6559 75.2 75.8559 75.2 75.9559 75.3C76.0559 75.4 76.1559 75.5 76.2559 75.6C78.2559 78.7 79.4559 82 80.4559 85.5C81.8559 90.4 83.2559 95.2 84.6559 100.1C79.1559 103.3 73.3559 106 67.3559 108.3C62.1559 110.3 56.9559 111.9 51.5559 113.3C50.2559 113.7 48.9559 114.1 47.8559 114.2C47.6559 114.2 47.3559 114.2 47.1559 114.2C46.2559 114.2 45.2559 113.8 43.9559 113.4C41.2559 112.6 38.5559 111.8 35.8559 111C35.0559 108.4 34.3559 105.9 33.6559 103.4ZM48.0559 248.5C48.6559 249.2 48.9559 250.3 49.1559 251.4C49.3559 252.6 49.4559 253.7 49.3559 254.9C49.3559 255.1 49.3559 255.3 49.3559 255.5C42.8559 259.4 36.2559 263.1 29.1559 265.5C23.8559 267.3 18.1559 268.4 12.6559 268.2C10.6559 268.1 8.65585 267.9 6.65585 267.4C5.95585 267.2 5.25586 267 4.95586 266.8C4.85586 266.7 4.75585 266.5 4.65585 266.2C4.55585 265.9 4.55585 265.4 4.55585 264.9C4.55585 264 4.75586 262.9 4.85586 262C5.05586 260 5.65586 258.2 6.75586 256.6C7.65586 255.3 8.65586 254.2 9.95586 253.3C10.5559 252.8 11.2559 252.3 11.9559 251.9C12.1559 251.8 12.5559 251.6 12.7559 251.5C12.8559 251.4 12.8559 251.3 12.8559 251.2C12.7559 251.1 12.6559 251.1 12.5559 251.1H11.1559C11.0559 251.1 10.9559 251.1 10.9559 251C10.8559 250.9 10.9559 250.7 11.0559 250.6C11.4559 250.2 12.3559 250.2 12.9559 250.1C13.7559 250 14.4559 250.1 15.1559 250.3C16.3559 250.6 17.4559 250.6 18.6559 251.1C20.1559 251.7 21.5559 252.6 22.8559 253.6C23.4559 254.1 24.1559 254.7 24.6559 255.3C25.1559 255.8 25.5559 256.7 26.3559 256.8C26.7559 256.9 27.2559 256.7 27.5559 256.5C27.6559 256.4 27.7559 256.3 27.7559 256.2C28.2559 254.9 25.4559 252.8 24.6559 252.1C23.1559 250.8 21.4559 249.8 19.5559 249.1C19.4559 249.1 19.3559 249 19.2559 249C20.3559 248.7 21.3559 248.4 22.4559 248.2C24.4559 248.9 26.2559 249.9 27.7559 251.3C28.5559 252 29.2559 252.7 29.8559 253.5C30.3559 254.1 31.1559 254.9 32.0559 254.3C32.2559 254.2 32.4559 254 32.4559 253.8C32.4559 253.6 32.4559 253.4 32.3559 253.2C31.9559 252 30.8559 250.9 29.9559 250.1C28.8559 249.1 27.6559 248.2 26.3559 247.4C27.2559 247.2 28.0559 247.1 28.9559 246.9C29.4559 247.2 29.9559 247.5 30.3559 247.9C31.3559 248.8 32.3559 249.7 33.2559 250.8C33.5559 251.1 33.6559 251.5 33.9559 251.9C34.1559 252.2 34.5559 252.5 34.9559 252.6C35.3559 252.7 35.8559 252.6 36.0559 252.2C36.3559 251.7 36.0559 251.2 35.7559 250.7C34.7559 249.2 33.5559 247.6 32.1559 246.4C33.8559 246.2 35.6559 246.1 37.3559 246.2C37.5559 246.2 37.7559 246.2 37.9559 246.2C37.6559 246.8 37.4559 247.4 37.4559 248.1C37.4559 249.3 37.8559 250.5 38.9559 251.4C39.6559 252 40.5559 252.2 41.3559 252.3C42.5559 252.3 43.5559 251.9 44.4559 251.1C45.4559 250.1 45.8559 248.7 46.3559 247.5C46.9559 247.5 47.6559 247.9 48.0559 248.5ZM42.8559 249.3C42.5559 249.7 41.9559 249.9 41.3559 249.9C40.9559 249.9 40.6559 249.8 40.3559 249.6C39.9559 249.2 39.7559 248.8 39.7559 248.2C39.7559 247.8 39.8559 247.5 40.0559 247.1C41.5559 244.8 42.7559 241.6 43.7559 238.5C44.6559 235.7 45.4559 233 46.1559 230.7C47.1559 230.9 48.1559 231.1 49.1559 231.2C47.9559 236.7 45.2559 244.2 42.8559 249.3ZM80.0559 245.4C79.5559 246.1 79.1559 247.2 78.9559 247.5C78.6559 248.2 78.4559 248.9 78.2559 249.7C78.2559 249.8 78.1559 250 78.2559 250.1C78.2559 250.2 78.3559 250.3 78.4559 250.4C78.7559 250.8 79.3559 250.9 79.7559 250.8C80.8559 250.5 81.0559 248.8 81.4559 248C81.7559 247.4 82.0559 246.8 82.4559 246.3C82.6559 246 83.2559 244.9 83.5559 244.8C84.9559 244.5 86.2559 244.3 87.6559 244.1C87.5559 244.3 87.3559 244.5 87.2559 244.7C86.4559 245.9 85.7559 247.2 85.2559 248.6C85.0559 249.1 84.8559 249.6 84.9559 250.1C85.0559 250.6 85.4559 251.1 85.9559 251.1C86.1559 251.1 86.3559 251 86.4559 251C86.6559 250.9 86.7559 250.8 86.9559 250.6C87.1559 250.4 87.2559 250.2 87.3559 249.9C87.9559 248.5 88.5559 247.1 89.3559 245.9C89.8559 245.1 90.4559 244.3 91.1559 243.7C92.2559 243.6 93.3559 243.6 94.4559 243.6C94.1559 243.6 93.2559 245 93.1559 245.2C92.7559 245.8 92.3559 246.4 91.9559 247C91.3559 248.1 90.3559 249.6 90.4559 250.9C90.4559 251.1 90.5559 251.4 90.7559 251.6C91.1559 252 91.7559 251.9 92.1559 251.6C92.5559 251.3 92.7559 250.8 93.0559 250.4C93.6559 249.1 94.1559 248 95.0559 246.8C95.4559 246.2 95.8559 245.7 96.3559 245.2C96.8559 244.6 97.4559 244 98.0559 243.5C98.5559 243.1 99.2559 242.4 99.9559 242.5H100.056C100.056 242.5 100.156 242.6 100.156 242.7C100.156 242.9 100.056 243 99.9559 243.2C99.8559 243.3 99.6559 243.5 99.6559 243.6C99.4559 244.2 101.556 244.3 102.056 244.4C104.356 244.8 106.556 245.5 107.656 246.2C109.356 247.3 110.756 248.6 111.756 250.4C112.956 252.7 113.456 255.2 113.356 257.8C113.256 259.6 113.356 261.8 111.256 261.9C109.756 262 108.056 261.6 106.556 261.5C104.156 261.3 101.756 261 99.3559 260.7C94.7559 260.2 90.0559 259.6 85.4559 259.2C76.1559 258.3 66.7559 257.3 57.4559 256.2C57.4559 255.9 57.3559 255.6 57.3559 255.3C57.4559 252.9 58.5559 250.4 60.2559 248.4C61.4559 247 63.0559 246 64.7559 245.4C64.5559 245.8 64.4559 246.3 64.3559 246.7C64.2559 247 64.1559 247.4 64.1559 247.8C64.1559 248.2 64.1559 248.7 64.4559 249.1C64.8559 249.9 65.5559 250.3 66.1559 250.6C66.6559 250.8 67.2559 250.9 67.8559 251C68.6559 251 69.4559 250.9 70.2559 250.5C71.7559 249.7 72.5559 248.3 73.1559 246.8H73.2559H73.3559C75.2559 246.4 77.6559 245.9 80.0559 245.4ZM74.5559 233.1C74.3559 233.9 74.1559 234.7 73.9559 235.4C73.4559 237 72.9559 238.6 72.4559 240.2C71.9559 241.7 71.4559 243.2 70.8559 244.7C70.6559 245.4 70.3559 246.2 70.0559 246.8C69.7559 247.4 69.3559 248 68.6559 248.3C68.3559 248.5 67.8559 248.6 67.4559 248.6C66.5559 248.6 65.9559 248.2 66.2559 247.3C66.4559 246.5 66.7559 245.7 67.1559 244.9C69.0559 241.4 71.1559 235.6 71.6559 231.4C72.8559 231.3 73.9559 231.1 75.0559 230.9C75.0559 230.9 74.6559 232.9 74.5559 233.1ZM93.4559 218.6C93.1559 220.1 92.8559 221.5 92.4559 222.9C92.3559 223.1 92.3559 223.4 92.1559 223.6C91.9559 223.8 91.7559 223.9 91.5559 223.9C81.0559 228.1 69.5559 230 58.2559 229.6C49.9559 229.3 42.1559 227.6 34.3559 225.2C32.5559 224.6 30.8559 224.2 28.9559 223.5C29.7559 221.4 30.2559 219.6 31.0559 217.4C31.3559 216.6 31.6559 215.7 31.9559 214.9C32.2559 214.9 34.8559 215 34.8559 214.8C34.8559 215.2 34.6559 216 34.4559 216.4C34.1559 217.2 33.9559 218 33.6559 218.7C33.6559 218.8 33.5559 218.9 33.6559 218.9L33.7559 219C35.0559 220 36.1559 221 37.5559 221.7C38.9559 222.5 40.4559 223.1 42.0559 223.7C45.1559 224.8 48.3559 225.4 51.6559 225.5C55.5559 225.6 59.4559 225.1 63.1559 223.8C64.7559 223.2 65.7559 222.7 66.1559 222.5C67.2559 222.6 69.1559 223.3 70.6559 223.6C72.9559 224.1 75.4559 224.6 77.7559 224.7C79.6559 224.8 81.3559 224.4 83.2559 224.1C85.1559 223.8 87.0559 223.1 88.8559 222.2C89.0559 222.1 89.2559 222 89.4559 221.8C89.6559 221.6 89.7559 221.3 89.8559 221.1C90.5559 219.2 91.2559 217.3 91.8559 215.4C92.2559 214.2 93.2559 214.5 94.2559 214.4C94.0559 215.8 93.7559 217.2 93.4559 218.6ZM72.6559 182.9C72.8559 178.5 72.9559 174.5 72.8559 169.6C72.8559 168.1 72.6559 165.3 71.8559 163.5C70.9559 181.6 69.0559 199.4 64.8559 217.1C64.4559 218.8 64.3559 219.9 63.4559 220.8C62.7559 221.4 61.4559 221.9 60.2559 222.3C57.5559 223 54.6559 223.3 51.8559 223.2C46.5559 223 41.2559 221.4 36.9559 218.6L36.6559 218.4C36.6559 218.4 36.6559 218.4 36.5559 218.3C36.5559 218.2 36.5559 218 36.6559 217.7C37.4559 215 38.1559 212.3 38.7559 209.5C39.5559 206.1 40.1559 202.7 40.7559 199.3C41.3559 196 41.6559 192.6 42.4559 189.4C47.2559 190 52.1559 190.6 56.9559 189.7C58.1559 189.5 59.4559 189.1 60.3559 188.3C61.5559 187.3 62.0559 185.5 61.6559 184C61.7559 184.6 60.3559 185.9 59.9559 186.2C59.2559 186.8 58.3559 187.2 57.3559 187.4C54.1559 187.9 50.7559 187.6 47.8559 186C40.6559 181.9 43.2559 173.2 43.2559 166.4C43.2559 157.6 42.6559 148.7 41.5559 140C40.6559 132.5 39.4559 125 37.3559 117.8C37.4559 118.1 40.5559 119 40.9559 119.1C42.3559 119.7 43.1559 119.9 43.6559 121.3C44.8559 124.6 45.9559 127.9 47.1559 131.2C47.5559 132.3 48.0559 133.6 49.0559 134.2C50.2559 135 51.7559 134.8 53.1559 134.6C56.8559 134 60.5559 133.2 64.1559 132.3C65.9559 131.8 67.7559 131.3 69.5559 130.7C70.7559 130.3 72.2559 129.8 72.7559 128.6C73.1559 127.8 73.1559 126.8 73.0559 125.9C72.9559 123.8 72.9559 121.7 72.8559 119.6L72.7559 116.3C72.7559 115.8 72.4559 114.4 72.7559 114L72.9559 113.9C73.6559 113.5 74.4559 113.1 75.2559 112.8C75.2559 112.8 77.4559 118.2 77.6559 118.7C78.6559 120.7 79.5559 122.6 80.7559 124.5C81.0559 125 81.4559 125.5 81.9559 125.8C82.9559 126.4 84.3559 126.1 85.4559 125.8C87.0559 125.4 88.5559 124.7 90.0559 124.1C92.7559 137.4 94.3559 150.9 94.7559 164.5C94.8559 168.4 94.9559 172.2 94.9559 176.1C94.9559 178 94.9559 180 94.8559 181.9C94.8559 183.5 94.7559 185 93.2559 185.9C92.4559 186.4 91.6559 186.6 90.7559 186.8C89.8559 187 88.9559 187.2 88.0559 187.4C85.6559 188 83.0559 188.5 80.6559 188.2C81.5559 189.2 82.9559 189.4 84.3559 189.5C86.6559 189.6 89.0559 189.7 91.3559 189.4C92.4559 189.3 93.2559 189.1 94.6559 189C94.5559 191.6 94.0559 194.3 93.7559 196.9C93.4559 199.5 92.9559 202.1 92.3559 204.6C91.7559 207.2 90.9559 209.8 90.1559 212.3C89.7559 213.6 89.3559 214.9 88.9559 216.2C88.8559 216.6 87.9559 219.6 87.7559 219.6C87.6559 219.9 87.5559 220.2 87.2559 220.4C87.0559 220.5 86.9559 220.6 86.7559 220.7C85.7559 221.1 84.6559 221.5 83.6559 221.8C81.7559 222.4 79.6559 222.6 77.6559 222.5C75.5559 222.4 73.2559 222 71.1559 221.6C69.8559 221.3 68.5559 221 66.9559 220.6C68.3559 214.1 69.7559 207.7 70.6559 201.1C71.8559 194.4 72.3559 189.6 72.6559 182.9ZM97.2559 158.2C97.9559 158.8 98.6559 159.3 99.4559 159.8C98.6559 160.4 98.0559 161.1 97.4559 161.9C97.3559 160.7 97.2559 159.5 97.2559 158.2ZM100.656 167.1C99.6559 168.9 98.7559 171 98.6559 173.3C98.6559 173.9 98.7559 174.4 98.7559 175C98.4559 175.1 98.1559 175.2 97.7559 175.3H97.6559C97.5559 175.3 97.5559 175.2 97.5559 175.2C97.4559 174.1 97.5559 173 97.5559 171.9C97.5559 171.1 97.5559 170.3 97.5559 169.5C97.5559 168.6 97.5559 167.8 97.5559 167C97.5559 166.3 97.8559 165.7 98.1559 165C98.4559 164.4 98.8559 163.8 99.2559 163.3C100.856 161.4 103.256 160 105.456 159C105.556 159 105.656 158.9 105.856 158.9C105.956 158.9 106.056 159 106.156 159C106.956 159.5 107.656 159.9 108.256 160.6C107.856 160.8 106.956 161.2 106.556 161.2C103.856 162.4 101.956 164.8 100.656 167.1ZM129.956 185.1C129.356 186 128.656 187 127.856 187.8C127.856 187.9 127.756 187.9 127.756 187.9C127.656 187.9 127.556 187.9 127.556 187.9C125.856 187.2 124.156 186.3 122.556 185.4C121.656 184.9 120.856 184.4 119.956 183.9C119.356 183.6 118.956 183.2 118.456 182.8C119.056 181.9 119.856 181.1 120.556 180.3C120.856 179.9 121.256 179.5 121.556 179C122.056 179.2 122.656 179.3 123.156 179.5C124.556 180 126.056 180.5 127.256 181.3C128.456 182.1 129.556 182.9 130.856 184C130.356 184.3 130.156 184.7 129.956 185.1ZM133.056 177.4C132.856 177.9 132.756 178.4 132.556 178.9C130.656 178.5 128.756 178.2 126.856 177.7C125.456 177.4 124.056 177 122.756 176.5C122.856 176.2 123.156 176 123.256 175.6C123.356 175.2 123.356 174.8 123.256 174.4C123.156 173.9 122.956 173.3 122.456 173.2C122.156 173.1 121.756 173.3 121.556 173.6C121.356 173.9 121.256 174.2 121.056 174.5C120.356 176.3 119.356 178 118.156 179.6C117.556 180.4 116.856 181.1 116.156 181.8C115.456 182.4 114.756 183 113.956 183.6C113.656 183.8 113.456 184.1 113.456 184.4C113.456 184.6 113.656 184.8 113.856 184.9C114.056 185 114.356 185 114.556 185C115.056 185 115.456 184.8 115.856 184.6C116.256 184.3 116.456 184.4 116.856 184.7C117.756 185.4 118.656 185.9 119.456 186.7C120.656 188.1 121.756 189.5 122.956 190.9C122.056 192.1 121.056 193.2 120.056 194.2C117.656 192.7 115.256 191.3 112.956 189.7C110.956 188.3 109.056 186.4 107.256 184.5C105.656 182.8 104.056 181 102.856 179.2C101.656 177.3 100.956 175.4 101.056 173.4C101.156 171.7 101.756 169.9 102.756 168.3C103.956 166.2 105.556 164.3 107.556 163.4C108.956 162.8 110.756 162.6 112.656 162.2C114.456 161.9 116.456 161.4 118.056 159.8C119.056 158.8 119.956 157.8 120.256 156.3C120.256 156.2 122.756 156.7 123.056 156.8C124.956 157.7 124.456 159.1 123.856 160.7C123.356 161.9 122.556 163.1 121.556 164C119.556 165.9 116.856 167.1 114.056 167.2C113.656 167.2 113.056 167 112.856 167.4C112.656 167.7 112.856 168.2 112.856 168.5C112.856 168.8 112.956 169.1 112.856 169.5C112.856 170.5 112.556 171.5 112.056 172.4C111.556 173.4 110.856 174 109.956 174.6L109.756 174.9L109.956 175.1C110.456 175.3 110.956 175.1 111.456 175C112.556 174.6 113.456 174 114.156 173.1C114.556 172.6 114.856 171.9 114.956 171.3C115.056 170.8 115.356 169.9 115.156 169.4C116.156 169.2 117.156 168.9 118.156 168.6C118.456 168.5 118.756 168.4 119.056 168.3C119.856 168.2 120.756 168.5 121.556 168.8C123.756 169.7 125.856 170.7 127.856 172C129.556 173.1 130.956 173.8 133.256 175.1C133.356 175.1 133.456 175.1 133.556 175.2C133.656 175.3 133.656 175.5 133.556 175.7C133.456 176.2 133.256 176.8 133.056 177.4Z" fill="#231F20"/>
<path d="M56.7559 128.2C57.3559 123.5 59.2559 119.1 59.7559 114.4C59.7559 114.6 58.2559 114.7 58.0559 114.9C57.5559 115.3 57.7559 115.2 57.5559 115.8C57.1559 117 57.2559 118.6 57.1559 119.9C56.9559 122.6 56.8559 125.4 56.7559 128.2Z" fill="white"/>
<path d="M85.4558 125.7C89.0558 124.6 92.5558 123 95.8558 121.1C96.9558 120.4 98.2558 119.9 99.2558 119C100.256 118 100.256 116.4 100.156 115.1C99.8558 108.3 98.8558 101.6 97.9558 94.8999C98.9558 98.1999 99.6558 101 100.156 104.1C100.556 106.5 100.956 108.9 101.256 111.3C101.656 113.6 102.156 116.4 101.056 118.5C100.056 120.4 97.5558 121.4 95.8558 122.5C93.4558 124 90.9558 125.3 88.4558 126.4C87.9558 126.6 87.4558 126.8 86.9558 126.8C86.4558 126.8 85.8558 126.7 85.4558 126.5" fill="white"/>
<path d="M90.0559 95.8001C89.8559 95.9001 89.7559 96.0001 89.5559 96.1001C88.1559 97.0001 86.7559 97.8001 85.3559 98.7001C84.0559 99.5001 82.5559 100.5 81.1559 101C79.7559 101.4 78.4559 102.2 77.2559 103.1C75.2559 104.6 72.2559 105.9 69.7559 106.5C74.1559 105.5 78.5559 103.5 82.5559 101.6C84.7559 100.6 86.8559 99.5001 88.8559 98.3001C90.9559 97.1001 92.7559 95.6001 94.7559 94.3001C94.3559 94.0001 93.9559 93.8001 93.5559 93.5001C93.4559 93.4001 91.7559 94.7001 91.5559 94.8001C91.1559 95.1001 90.6559 95.5001 90.0559 95.8001Z" fill="white"/>
<path d="M33.056 116.4C35.856 117 38.556 118 41.256 118.9C41.756 119.1 42.256 119.2 42.656 119.5C43.756 120.3 44.256 121.7 44.556 123C43.856 122.6 43.456 122.4 42.756 122C40.356 120.7 38.556 119.8 36.456 118.8C33.756 117.5 31.256 116.4 28.356 115.7" fill="white"/>
<path d="M39.8558 112.2C42.0558 112.8 44.5558 113.8 46.8558 114.1C46.5558 112.9 45.1558 112.4 43.9558 112.1C37.9558 110.4 32.2558 109 26.1558 108.2C27.2558 108.5 28.3558 108.8 29.3558 109.1C30.6558 109.4 31.9558 109.8 33.2558 110.2C35.7558 110.8 36.5558 111.3 39.8558 112.2Z" fill="white"/>
<path d="M61.5559 122.7C62.2559 119.5 63.0559 116.2 64.0559 113.1C63.2559 113.7 63.0559 113.6 62.7559 114.4C62.4559 115.2 62.4559 116.4 62.2559 117.3C61.9559 119 61.9559 120.9 61.5559 122.7Z" fill="white"/>
<path d="M88.356 112.6C89.656 110.3 89.656 107.6 90.356 105.2C90.756 103.8 91.456 102.5 91.456 101C90.656 101.6 90.056 101.8 89.756 102.6C89.356 103.6 89.456 105 89.256 106C89.056 107.1 88.956 108.3 88.756 109.4C88.756 110.3 88.756 111.8 88.356 112.6Z" fill="white"/>
<path d="M92.7559 106.4C93.6559 104.1 94.5559 101.6 94.8559 99.2002C92.1559 99.9002 93.4559 104.5 92.7559 106.4Z" fill="white"/>
<path opacity="0.3" d="M60.9559 94.6999C59.3559 96.7999 57.9559 98.0999 56.9559 98.7999C54.8559 100.2 52.9559 101 51.0559 101.6C46.8559 102.9 41.6559 102.8 37.7559 100.3C35.6559 98.8999 33.6559 97.5999 32.8559 95.1999C32.7559 94.9999 32.7559 94.7999 32.7559 94.4999C32.7559 94.1999 32.9559 93.9999 33.1559 93.7999C34.9559 91.6999 37.0559 89.8999 39.2559 88.2999C40.0559 89.1999 41.1559 91.1999 42.1559 91.6999C44.1559 92.7999 48.6559 91.7999 50.6559 91.0999C52.2559 90.5999 53.7559 89.7999 55.1559 88.9999C57.0559 87.9999 58.7559 86.8999 60.5559 85.5999C62.0559 84.4999 63.5559 83.2999 64.9559 81.9999C66.4559 80.6999 66.5559 78.3999 65.3559 76.8999C68.1559 76.3999 70.9559 76.1999 73.7559 76.2999C73.9559 76.2999 74.2559 76.2999 74.4559 76.3999C74.6559 76.4999 74.8559 76.6999 74.9559 76.8999C76.7559 79.2999 78.1559 83.0999 77.1559 85.7999C76.2559 88.1999 74.0559 89.6999 71.7559 90.6999C70.8559 91.0999 68.9559 91.4999 66.7559 91.5999C66.8559 93.8999 67.2559 96.2999 67.5559 98.4999C67.8559 100.5 68.1559 103.3 68.5559 105.6C68.1559 104.9 61.3559 94.2999 60.9559 94.6999Z" fill="#231F20"/>
<path opacity="0.3" d="M66.9558 217.1C66.8558 217.8 66.6558 218.5 66.4558 219.1C65.8558 221.8 71.8558 222 73.4558 222.9C76.2558 213.2 77.5558 202.6 77.5558 192.5C77.5558 183.2 75.7558 173.3 72.1558 164.9C71.5558 182.5 70.6558 200 66.9558 217.1Z" fill="#231F20"/>
<path opacity="0.3" d="M38.4559 249.1C38.4559 249.2 38.4559 249.3 38.4559 249.4C38.6559 250.5 39.9559 251.2 41.1559 251.1C42.3559 251 43.3559 250.2 44.0559 249.3C46.3559 247.2 46.2559 243.5 47.7559 240.9C48.2559 240 48.5559 239 48.8559 238C49.6559 235.5 50.4559 233.1 51.1559 230.6C49.8559 230.4 48.1559 229.4 46.8559 229C46.7559 229 46.5559 228.9 46.4559 229C46.1559 229.1 46.0559 229.4 46.0559 229.6C45.0559 233.3 43.7559 236.9 42.2559 240.4C41.1559 242.9 38.2559 246.4 38.4559 249.1Z" fill="#231F20"/>
<path opacity="0.3" d="M65.1558 247.1C65.1558 247.2 65.1558 247.3 65.1558 247.4C65.3558 248.5 66.6558 249.2 67.8558 249.1C69.0558 249 70.0558 248.2 70.7558 247.3C73.0558 245.2 72.9558 241.5 74.4558 238.9C76.0558 236 76.2558 232.8 76.4558 229.6C74.4558 229.9 72.4558 229.9 70.5558 229.6C70.7558 232.6 70.1558 235.7 68.8558 238.4C67.9558 240.9 64.9558 244.4 65.1558 247.1Z" fill="#231F20"/>
<path d="M88.2558 129.9C87.0558 137 83.4558 153.3 71.9558 153.9C62.1558 154.4 55.1558 143.1 53.1558 141C56.2558 141.2 59.4558 140.9 62.4558 140.4C64.3558 140.1 66.2558 140 68.0558 139.5C72.0558 138.5 76.4558 137.1 80.1558 135.3C81.6558 134.5 83.1558 133.6 84.6558 132.7C85.8558 131.9 86.9558 130.5 88.2558 129.9C88.2558 129.8 88.2558 129.8 88.2558 129.9Z" fill="#231F20"/>
<path d="M79.9558 142.7C80.2558 142.6 80.5558 142.4 80.8558 142.3C80.9558 142.3 81.0558 142.2 81.1558 142.1C81.2558 142 81.3558 141.8 81.4558 141.7C82.0558 140.4 82.4558 139 82.6558 137.6C80.1558 139.1 77.6558 140.1 74.9558 141.2C70.5558 142.9 65.8558 144 61.1558 143.7C62.5558 145.4 64.7558 146 66.8558 145.9C71.1558 146.1 75.9558 144.4 79.9558 142.7Z" fill="white"/>
<path d="M39.056 129.2C38.956 129.2 39.856 134.4 40.256 135C41.656 136.6 45.856 137.9 47.856 138.3C47.156 139.1 46.156 139.1 45.056 139.1C42.156 139.1 39.056 139.3 36.356 137.9C35.356 137.4 33.556 135.9 33.056 134.8C32.156 132.4 37.356 130 39.056 129.2Z" fill="#231F20"/>
<path d="M34.6558 176.4C34.4558 178.5 34.1558 180.7 33.8558 182.8C40.8558 186.9 49.8558 189.1 58.0558 189.1C60.1558 189.1 61.9558 187.5 62.2558 185.4C62.6558 182 62.9558 178.5 63.2558 175.1C63.4558 172.8 63.5558 170.6 63.6558 168.3C63.6558 167.8 64.1558 162.4 63.7558 162.2C59.8558 160.5 56.8558 157.2 54.0558 154C50.2558 149.6 48.4558 144 47.9558 138.3C43.4558 138.4 36.9558 137 33.1558 134.6C33.2558 135.2 33.9558 138.3 34.0558 138.8C34.4558 140.9 34.7558 143.4 34.9558 145.6C35.3558 149.8 35.4558 153.6 35.5558 157.8C35.6558 164 35.3558 170.2 34.6558 176.4Z" fill="#E1251B"/>
<path d="M43.0559 143.4C44.1559 144.6 44.7559 146.4 45.0559 147.9C46.2559 152.4 45.9559 156.9 43.7559 161.1C43.1559 162.2 42.4559 163.2 41.2559 163.6C39.9559 163.9 38.6559 163.2 37.8559 162.2C37.0559 161.2 36.7559 159.8 36.4559 158.6C35.7559 155 35.3559 151.3 35.4559 147.6C35.4559 145.9 35.3559 143.5 36.9559 142.6C37.4559 142.3 37.9559 142.2 38.4559 142.1C39.2559 142 40.1559 141.9 40.8559 142.1C41.7559 142.2 42.4559 142.7 43.0559 143.4Z" fill="#231F20"/>
<path d="M14.7559 164.2C16.2559 159.7 19.3559 155.6 22.5559 152.5C26.1559 149 30.5559 146.9 35.1559 145.6C36.6559 145.1 39.3559 143.8 40.9559 144.9C42.3559 145.9 42.5559 147.7 42.0559 149.1C41.7559 150 40.6559 150.9 40.2559 151.8C39.8559 152.8 39.6559 153.9 39.3559 154.9C38.5559 157.4 36.7559 159.6 34.4559 160.8C30.9559 162.8 26.5559 162.5 22.6559 163.6C20.6559 164.1 19.5559 165.4 20.2559 167.5C20.6559 168.6 21.2559 169.5 21.8559 170.5C23.9559 169 26.4559 168.2 28.9559 167.9C29.0559 167.9 29.1559 167.9 29.2559 167.9C29.4559 168 29.4559 168.2 29.4559 168.4C29.6559 170 30.4559 171.1 31.1559 172.5C31.8559 173.8 32.3559 175.3 33.4559 176.3C34.2559 177 35.2559 177.4 36.0559 178C38.3559 179.5 39.7559 182.1 40.8559 184.6C42.1559 187.4 43.4559 190.4 43.2559 193.5C43.2559 194.2 43.0559 194.8 42.7559 195.4C42.1559 196.5 41.1559 197.2 40.3559 198.1C39.3559 199.3 38.8559 200.9 37.6559 202C37.0559 202.6 36.2559 202.9 35.4559 203.2C30.4559 205.1 24.5559 204.7 19.5559 202.9C18.8559 202.6 18.2559 202.3 17.5559 201.8C17.1559 201.5 16.7559 201 16.2559 200.6C16.0559 200.5 17.4559 196.6 18.9559 195C19.3559 194.6 20.1559 194.6 20.7559 194.7C19.8559 193.3 18.7559 189.9 18.4559 188.2C17.8559 185.6 17.4559 185.8 15.7559 183.8C15.1559 183.1 14.5559 182.4 14.5559 181.5C14.5559 180.6 15.1559 179.8 15.5559 179C16.4559 177.3 15.5559 176.1 14.8559 174.6C14.0559 172.9 13.5559 171 13.5559 169.1C13.9559 167.5 14.2559 165.8 14.7559 164.2Z" fill="white"/>
<path d="M34.2559 177.9C35.8559 179 37.3559 180.3 38.8559 181.6C39.7559 182.4 40.5559 183.2 41.1559 184.2C41.4559 184.7 41.6559 185.1 41.8559 185.6C43.1559 189 43.2559 192.6 41.1559 195.7C40.9559 195.8 40.8559 195.9 40.6559 195.9C40.6559 195.8 40.6559 195.6 40.6559 195.5C40.5559 194.3 40.1559 190.6 38.4559 190.5C36.6559 190.4 38.0559 193.6 38.1559 194.6C38.5559 197.5 38.1559 200.5 35.4559 201.9C35.7559 200.9 35.9559 200 35.9559 199V198.9C35.9559 197.7 35.6559 195.8 35.0559 194.7C34.3559 193.5 32.5559 193.7 32.5559 195.3C32.5559 196.5 33.3559 197.6 33.3559 198.9V199C33.3559 200.1 33.0559 201.2 32.5559 202.1C32.0559 203 31.3559 203.6 30.5559 203.8C30.1559 203.9 29.6559 204 29.1559 204H28.5559C26.9559 203.9 25.2559 203.7 23.7559 203.2C22.2559 202.7 20.9559 201.7 19.5559 201.1C20.0559 200.4 20.1559 199.2 20.8559 198.6C21.1559 198.3 21.5559 198.4 21.9559 198.4C23.6559 198.6 24.1559 198.8 25.3559 200C25.8559 200.5 27.0559 202 27.8559 201.2C28.0559 201 28.0559 200.6 27.9559 200.3C27.8559 200 27.6559 199.7 27.4559 199.5C25.1559 196.8 23.6559 193.4 22.1559 190.2C21.7559 189.4 21.4559 188.6 21.2559 187.9C20.7559 186.2 22.4559 184.4 23.9559 183.7C25.2559 185.8 26.5559 187.8 27.8559 189.9C27.9559 190.1 28.1559 190.4 28.4559 190.4C28.8559 190.5 29.1559 190.1 29.2559 189.8C29.3559 189.4 29.1559 189.1 29.0559 188.7C28.0559 186.6 26.4559 184.7 25.7559 182.5C25.6559 182.2 25.5559 181.9 25.6559 181.6C25.7559 181.3 25.9559 181.1 26.2559 181.1C26.5559 181.1 26.6559 181.3 26.8559 181.5C28.2559 183.2 29.6559 185 31.0559 186.7C31.1559 186.9 31.3559 187 31.5559 187.1C31.8559 187.2 32.1559 186.9 32.2559 186.5C32.3559 186.1 32.1559 185.8 32.0559 185.5C31.2559 183.7 30.0559 182.1 28.6559 180.7C28.3559 180.4 28.0559 180.1 28.0559 179.7C28.1559 179.3 28.6559 179 29.0559 179.1C29.4559 179.2 29.8559 179.5 30.1559 179.8C30.9559 180.6 31.7559 181.3 32.5559 182.1C33.0559 182.6 33.6559 183.1 34.3559 183.1C34.0559 181.5 32.7559 180.2 31.5559 179.1C31.2559 178.9 31.0559 178.6 30.9559 178.3C30.7559 177.6 31.5559 176.8 32.2559 176.8C32.8559 176.9 33.5559 177.4 34.2559 177.9Z" fill="#0071CE"/>
<path d="M96.1558 141.5C95.8558 142.8 95.5558 144.1 95.1558 145.1C93.6558 149.2 90.5558 152.6 87.4558 155.5C85.1558 157.7 82.6558 159.3 79.9558 160.9C84.9558 157.9 88.6558 150.5 90.5558 145.2C91.6558 142.1 92.3558 138.8 92.5558 135.5C92.6558 134.4 92.3558 132.5 93.1558 131.6C94.2558 130.4 95.4558 131.3 96.0558 132.8C96.9558 135.3 96.7558 138.6 96.1558 141.5Z" fill="#231F20"/>
<path d="M15.356 177.6C14.956 178 13.256 180.4 12.756 181.8C13.156 182.3 13.456 182.8 13.856 183.3C14.256 183.8 14.856 184.4 15.256 184.9C16.256 186 17.356 187.1 18.356 188.1C18.456 188.2 18.5559 188.3 18.6559 188.3C19.0559 188.5 19.556 188.1 19.756 187.7C20.056 188.9 20.1559 189.8 20.6559 190.9C21.2559 192.3 21.8559 193.7 22.6559 195.1C22.8559 195.4 22.9559 195.6 23.1559 195.9C22.9559 195.6 20.7559 195.8 20.4559 195.8C20.3559 195.8 20.2559 195.8 20.1559 195.8C20.0559 195.8 19.9559 195.9 19.9559 196C18.5559 197.6 18.1559 199.3 17.5559 201.3C17.5559 201.4 17.4559 201.5 17.5559 201.6C17.5559 201.7 17.656 201.8 17.756 201.8C20.856 204.4 25.0559 206.6 29.0559 206.3H29.6559C31.1559 206.3 32.8559 206 33.9559 204.8C34.0559 204.7 34.156 204.5 34.356 204.5C34.456 204.4 34.656 204.4 34.856 204.4C34.956 204.4 35.0559 204.4 35.1559 204.4C35.9559 204.3 36.656 204.2 37.356 203.7C37.756 203.5 38.056 203.2 38.356 202.9C39.056 202.2 39.756 201.2 40.256 200.3C40.356 200.1 40.4559 200 40.5559 199.8C40.6559 199.6 40.8559 199.5 41.0559 199.4C41.6559 198.9 42.1559 198.5 42.6559 197.9C43.7559 196.5 44.6559 194.8 44.9559 192.9C45.0559 192.2 45.1559 191.6 45.1559 190.9C45.1559 186.5 42.756 182.7 39.856 179.6C38.456 178 36.856 176.6 35.356 175C33.956 173.5 33.2559 171.5 31.9559 169.9C31.3559 169.1 30.456 168.3 29.756 167.7C28.456 167.9 27.2559 168.3 26.0559 168.9C25.2559 169.3 24.7559 169.5 23.9559 170.1C23.5559 169.4 22.756 168.6 22.356 167.9C21.556 166.5 21.656 165.1 23.356 164.6C24.556 164.2 25.8559 164.3 27.1559 164.2C33.9559 164 40.356 159.7 43.256 153.6C44.856 150.1 45.7559 144.7 41.9559 142.2C40.0559 140.9 37.256 142.2 35.256 143C29.856 145 24.9559 147.4 20.6559 151.3C18.5559 153.2 16.8559 155.4 15.1559 157.7C13.1559 160.4 10.056 163.3 10.356 167C10.256 169 14.756 176.8 15.356 177.6ZM33.9559 178.3C36.3559 180.3 38.556 182.2 40.256 184.6C41.556 186.5 42.4559 188.8 42.4559 191C42.4559 191.5 42.4559 192 42.3559 192.5C42.1559 193.5 41.7559 194.5 41.1559 195.5C40.9559 195.6 40.8559 195.7 40.6559 195.7C40.6559 195.6 40.6559 195.4 40.6559 195.3C40.5559 194.1 40.1559 190.4 38.5559 190.3C36.8559 190.1 38.156 193.4 38.356 194.4C38.756 197.3 38.356 200.3 35.856 201.7C36.056 200.7 36.356 199.8 36.356 198.8V198.7C36.356 197.5 36.0559 195.6 35.4559 194.5C34.7559 193.3 33.0559 193.5 33.1559 195.1C33.1559 196.3 33.856 197.4 33.856 198.7V198.8C33.856 199.9 33.5559 201 33.1559 201.9C32.6559 202.8 32.056 203.4 31.256 203.6C30.856 203.7 30.456 203.8 29.856 203.8H29.256C27.756 203.7 26.1559 203.5 24.6559 202.9C23.2559 202.3 22.0559 201.4 20.6559 200.7C21.1559 200 21.256 198.8 21.856 198.2C22.156 197.9 22.5559 198 22.9559 198C24.6559 198.2 25.0559 198.4 26.1559 199.6C26.6559 200.1 27.7559 201.6 28.5559 200.9C28.7559 200.7 28.7559 200.3 28.6559 200C28.5559 199.7 28.3559 199.4 28.1559 199.2C25.9559 196.5 24.5559 193.1 23.0559 189.9C22.6559 189.1 22.3559 188.3 22.1559 187.6C21.6559 185.9 23.4559 184.2 24.5559 183.2C25.8559 182 27.0559 180.5 28.5559 179.5C30.2559 178.1 31.9559 176.7 33.9559 178.3ZM24.256 172.8C25.456 172.1 26.656 171.5 27.856 171.1C28.056 171 28.2559 171.1 28.4559 171.1C28.6559 171.1 28.7559 171.2 28.9559 171.3C30.0559 172.1 30.9559 173.2 31.6559 174.5C31.5559 174.4 28.0559 176.5 27.6559 176.7C27.3559 176.9 27.1559 177 26.9559 177.1C25.4559 178.2 24.056 179.5 22.856 180.9C21.656 182.2 20.6559 183.7 19.6559 185.2C19.5559 185.3 19.456 185.4 19.356 185.6C18.256 184.2 17.0559 182.9 15.9559 181.5C15.5559 181.1 20.5559 175.6 21.0559 175.1C22.0559 174.3 23.056 173.5 24.256 172.8ZM12.5559 164.7C12.9559 163.4 14.0559 162.3 14.9559 161.3C17.5559 158.4 19.8559 155.2 22.6559 152.5C26.2559 149 30.5559 147.7 35.1559 145.9C36.6559 145.3 39.4559 144 40.9559 145.1C42.3559 146.1 42.7559 148.1 42.0559 149.5C41.6559 150.4 40.256 151.5 39.756 152.3C39.156 153.2 38.756 154.2 38.256 155.1C37.856 156 37.356 156.9 36.756 157.7C34.456 160.8 30.3559 162.1 26.5559 162.2C24.2559 162.2 22.556 162.5 20.756 164C19.256 165.3 19.1559 166.8 20.0559 168.6C20.5559 169.6 21.256 170.6 21.856 171.5C21.856 171.5 18.356 174.5 17.356 175.7C17.256 175.9 11.7559 168 12.5559 165.1C12.4559 165 12.4559 164.8 12.5559 164.7Z" fill="#231F20"/>
<path d="M24.7558 173.7C25.1558 173.4 25.5558 173.2 26.0558 173C26.7558 172.6 27.4558 172.3 28.2558 172.2C29.8558 172 30.9558 173.3 31.6558 174.6C31.5558 174.5 28.0558 176.6 27.6558 176.8C27.3558 177 27.1558 177.1 26.9558 177.2C25.4558 178.3 24.0558 179.6 22.8558 181C21.6558 182.3 20.6558 183.8 19.6558 185.3C19.5558 185.4 19.4558 185.5 19.3558 185.7C19.5558 185.5 16.4558 182.7 16.6558 181.6C16.7558 181.2 17.0558 180.8 17.3558 180.4C19.3558 177.7 21.9558 175.4 24.7558 173.7Z" fill="#0071CE"/>
<path d="M83.3559 188.9C89.2559 188.4 93.0559 187.7 99.2559 186.3C100.156 168.8 99.1559 151.6 96.4559 134.3C94.2559 144.4 88.7559 154 80.2559 160.5C79.8559 160.8 79.3559 161.2 79.1559 161.7C78.9559 162.2 78.9559 162.7 79.0559 163.2C79.7559 170.7 79.9559 178.3 79.6559 185.9C79.5559 187.8 81.3559 189.4 83.3559 188.9Z" fill="#E1251B"/>
<path d="M30.8558 154.2C31.0558 154 31.3558 153.7 31.5558 153.5C29.3558 154.2 27.2558 155.6 25.7558 157.4C25.2558 158 24.8558 158.4 25.0558 159.2C25.3558 159.5 25.7558 159.4 26.1558 159.2C26.4558 159 26.6558 158.6 26.8558 158.3C27.8558 156.8 29.6558 155.5 30.8558 154.2Z" fill="#231F20"/>
<path d="M59.0559 170.4C53.7559 169.7 47.6559 169.2 43.0559 168.4C44.8559 170.9 54.2559 172.1 59.0559 170.4Z" fill="#231F20"/>
<path d="M96.7561 166.6C92.2561 167.2 87.2561 168 83.4561 168.4C85.5561 169.6 93.3561 169.3 96.7561 166.6Z" fill="#231F20"/>
<path d="M58.356 179.6C58.156 180.6 57.956 181.7 57.356 182.6C56.456 183.9 54.956 184.6 53.456 184.7C51.956 184.8 50.456 184.5 48.956 184.2C47.856 184 46.756 183.7 45.656 183.5C48.956 184.1 54.256 185.3 56.356 181.9C57.156 180.6 57.556 179.3 57.856 177.8C58.256 175.6 58.456 173.9 58.756 172.1C58.756 172.7 58.956 173.5 58.756 175.9C58.756 177.1 58.656 178.4 58.356 179.6Z" fill="#231F20"/>
<path d="M83.6561 178.4C83.7561 179.5 83.9561 180.5 84.4561 181.4C85.2561 182.8 86.6561 183.5 88.1561 183.8C89.6561 184 91.1561 183.8 92.6561 183.6C93.7561 183.4 94.9561 183.3 96.0561 183.1C92.7561 183.4 87.3561 184.2 85.4561 180.7C84.7561 179.4 84.4561 178 84.2561 176.5C84.0561 174.3 83.9561 172.5 83.7561 170.7C83.7561 171.3 83.4561 172.1 83.4561 174.5C83.4561 175.8 83.4561 177.1 83.6561 178.4Z" fill="#231F20"/>
<path d="M42.356 168.4C41.856 170.5 41.656 171.8 41.556 173.5C41.456 174.4 41.356 175.2 41.356 176.1C41.356 176.5 41.356 177 41.356 177.4C41.356 177.8 41.556 178.4 41.456 178.8C41.856 177.3 42.056 176 42.156 174.9C42.356 173 42.656 171 42.956 169.1C44.356 169.8 45.856 170.2 47.356 170.4C47.956 170.5 48.556 170.5 49.156 170.4C49.456 170.3 49.856 170.2 50.156 170.1C50.356 170 50.856 169.6 50.956 169.7C50.356 169.6 49.656 169.5 49.056 169.4C47.556 169.2 46.056 169 44.556 168.8C43.956 168.7 43.456 168.5 42.456 168.4C42.356 168.3 42.356 168.4 42.356 168.4Z" fill="#231F20"/>
</svg>
