<svg width="1200" height="401" viewBox="0 0 1200 401" fill="none" xmlns="http://www.w3.org/2000/svg">
<rect y="1.44629" width="1200" height="397.345" rx="5" fill="url(#paint0_linear_4_2705)"/>
<path d="M0 5.56542C0 2.804 2.23858 0.56543 5 0.56543H1195C1197.76 0.56543 1200 2.80401 1200 5.56543V395.565C1200 398.327 1197.76 400.565 1195 400.565H5C2.23857 400.565 0 398.327 0 395.565V5.56542Z" fill="url(#paint1_linear_4_2705)"/>
<mask id="mask0_4_2705" style="mask-type:alpha" maskUnits="userSpaceOnUse" x="0" y="0" width="1200" height="401">
<rect y="0.56543" width="1200" height="400" rx="5" fill="#D9D9D9"/>
</mask>
<g mask="url(#mask0_4_2705)">
<circle cx="1041.99" cy="208.192" r="269.76" fill="white"/>
<g filter="url(#filter0_f_4_2705)">
<circle cx="982.587" cy="205.066" r="176.228" fill="#CFDDEC"/>
</g>
<path d="M982.978 330.792L947.774 343.438M982.978 330.792L982.978 51.8268M982.978 330.792L1023.39 336.674M982.978 330.792L1132.98 280.998M1132.98 85.2944L1097.37 77.3487M1132.98 85.2944L1132.98 137.332M1132.98 85.2944L858.003 168.759M982.978 51.8268L942.978 62.3055M982.978 51.8268L1023.39 60.8426M912.57 356.084L871.274 370.918C868.082 372.065 864.699 369.768 864.586 366.379L863.082 321.2M912.57 356.084L902.978 72.7842M912.57 356.084L947.774 343.438M902.978 72.7842L859.086 84.2824C856.827 84.8743 855.278 86.9514 855.356 89.2857L856.613 127.027M902.978 72.7842L942.978 62.3055M942.978 62.3055L947.774 343.438M1023.39 60.8426L1023.39 336.674M1023.39 60.8426L1061.75 69.403M1023.39 336.674L1061.75 342.259M1061.75 342.259L1061.75 69.403M1061.75 342.259L1097.37 347.443M1061.75 342.259L1132.98 316.813M1061.75 69.403L1097.37 77.3487M1061.75 69.403L856.613 127.027M1097.37 77.3487L1097.37 347.443M1097.37 347.443L1127.26 351.794C1130.27 352.234 1132.98 349.895 1132.98 346.847L1132.98 316.813M863.082 321.2L1132.98 232.429M863.082 321.2L861.627 277.529M1132.98 232.429L1132.98 183.657M1132.98 232.429L1132.98 280.998M861.627 277.529L1132.98 183.657M861.627 277.529L859.846 224.063M1132.98 183.657L1132.98 137.332M859.846 224.063L1132.98 137.332M859.846 224.063L858.003 168.759M858.003 168.759L856.613 127.027M1132.98 280.998L1132.98 316.813" stroke="url(#paint2_linear_4_2705)" stroke-width="2"/>
</g>
<defs>
<filter id="filter0_f_4_2705" x="606.358" y="-171.162" width="752.456" height="752.456" filterUnits="userSpaceOnUse" color-interpolation-filters="sRGB">
<feFlood flood-opacity="0" result="BackgroundImageFix"/>
<feBlend mode="normal" in="SourceGraphic" in2="BackgroundImageFix" result="shape"/>
<feGaussianBlur stdDeviation="100" result="effect1_foregroundBlur_4_2705"/>
</filter>
<linearGradient id="paint0_linear_4_2705" x1="112.5" y1="46.919" x2="639.943" y2="665.619" gradientUnits="userSpaceOnUse">
<stop stop-color="#E9F7FF"/>
<stop offset="1" stop-color="#FFDBD5"/>
</linearGradient>
<linearGradient id="paint1_linear_4_2705" x1="124.5" y1="31.7748" x2="792.369" y2="802.83" gradientUnits="userSpaceOnUse">
<stop offset="0.9998" stop-color="#0074BC"/>
<stop offset="0.9999" stop-color="#F42028" stop-opacity="0.4"/>
<stop offset="1" stop-color="#FF000F" stop-opacity="0.29"/>
</linearGradient>
<linearGradient id="paint2_linear_4_2705" x1="1119.38" y1="104.025" x2="1019.73" y2="231.83" gradientUnits="userSpaceOnUse">
<stop stop-color="#8099C1"/>
<stop offset="1" stop-color="#B0C2D5" stop-opacity="0"/>
</linearGradient>
</defs>
</svg>
