<svg width="1280" height="200" viewBox="0 0 1280 200" fill="none" xmlns="http://www.w3.org/2000/svg">
<rect width="1280" height="198.673" rx="5" transform="matrix(-1 0 0 1 1280 0.44043)" fill="url(#paint0_linear_166_299)"/>
<path d="M1280 5C1280 2.23857 1277.76 0 1275 0H4.99988C2.23853 0 -0.00012207 2.23858 -0.00012207 5V195C-0.00012207 197.761 2.23853 200 4.99988 200H1275C1277.76 200 1280 197.761 1280 195V5Z" fill="url(#paint1_linear_166_299)"/>
<mask id="mask0_166_299" style="mask-type:alpha" maskUnits="userSpaceOnUse" x="0" y="0" width="1280" height="200">
<rect width="1280" height="200" rx="5" transform="matrix(-1 0 0 1 1280 0)" fill="#D9D9D9"/>
</mask>
<g mask="url(#mask0_166_299)">
<ellipse cx="231.5" cy="210.5" rx="231.5" ry="210.5" transform="matrix(-1 0 0 1 432 -105)" fill="white"/>
<g filter="url(#filter0_f_166_299)">
<ellipse cx="211.2" cy="95.25" rx="211.2" ry="95.25" transform="matrix(-1 0 0 1 466.133 14)" fill="url(#paint2_linear_166_299)"/>
</g>
<path d="M221.769 157.53L246.357 163.629M221.769 157.53L221.769 23M221.769 157.53L193.545 160.367M221.769 157.53L117 133.517M117 39.1397L141.874 35.3079M117 39.1397L117 64.2349M117 39.1397L309.058 79.3905M221.769 23L249.707 28.0533M221.769 23L193.545 27.3478M270.946 169.727L298.396 176.536C301.453 177.294 304.442 175.07 304.594 171.923L305.511 152.905M270.946 169.727L277.645 33.1066M270.946 169.727L246.357 163.629M277.645 33.1066L306.684 38.3591C309.154 38.8058 310.91 41.0137 310.789 43.5202L310.029 59.2651M277.645 33.1066L249.707 28.0533M249.707 28.0533L246.357 163.629M193.545 27.3478L193.545 160.367M193.545 27.3478L166.747 31.4761M193.545 160.367L166.747 163.06M166.747 163.06L166.747 31.4761M166.747 163.06L141.874 165.56M166.747 163.06L117 150.789M166.747 31.4761L141.874 35.3079M166.747 31.4761L310.029 59.2651M141.874 35.3079L141.874 165.56M141.874 165.56L122.5 167.508C119.556 167.803 117 165.492 117 162.533L117 150.789M305.511 152.905L117 110.095M305.511 152.905L306.527 131.844M117 110.095L117 86.5746M117 110.095L117 133.517M306.527 131.844L117 86.5746M306.527 131.844L307.771 106.06M117 86.5746L117 64.2349M307.771 106.06L117 64.2349M307.771 106.06L309.058 79.3905M309.058 79.3905L310.029 59.2651M117 133.517L117 150.789" stroke="url(#paint3_linear_166_299)" stroke-width="2"/>
</g>
<defs>
<filter id="filter0_f_166_299" x="-156.267" y="-186" width="822.4" height="590.5" filterUnits="userSpaceOnUse" color-interpolation-filters="sRGB">
<feFlood flood-opacity="0" result="BackgroundImageFix"/>
<feBlend mode="normal" in="SourceGraphic" in2="BackgroundImageFix" result="shape"/>
<feGaussianBlur stdDeviation="100" result="effect1_foregroundBlur_166_299"/>
</filter>
<linearGradient id="paint0_linear_166_299" x1="120" y1="22.7364" x2="304.068" y2="483.354" gradientUnits="userSpaceOnUse">
<stop stop-color="#E9F7FF"/>
<stop offset="1" stop-color="#FFDBD5"/>
</linearGradient>
<linearGradient id="paint1_linear_166_299" x1="1147.2" y1="15.6047" x2="912.001" y2="594.883" gradientUnits="userSpaceOnUse">
<stop offset="0.9998" stop-color="#0074BC"/>
<stop offset="0.9999" stop-color="#F42028" stop-opacity="0.4"/>
<stop offset="1" stop-color="#FF000F" stop-opacity="0.29"/>
</linearGradient>
<linearGradient id="paint2_linear_166_299" x1="211.2" y1="0" x2="211.2" y2="190.5" gradientUnits="userSpaceOnUse">
<stop stop-color="#CFDDEC"/>
<stop offset="1" stop-color="#CFDDEC" stop-opacity="0"/>
</linearGradient>
<linearGradient id="paint3_linear_166_299" x1="126.501" y1="48.1723" x2="167.865" y2="125.008" gradientUnits="userSpaceOnUse">
<stop stop-color="#8099C1"/>
<stop offset="1" stop-color="#B0C2D5" stop-opacity="0"/>
</linearGradient>
</defs>
</svg>
