<svg width="540" height="540" viewBox="0 0 540 540" fill="none" xmlns="http://www.w3.org/2000/svg">
<circle cx="269.76" cy="269.76" r="269.76" transform="matrix(-1 0 0 1 539.52 0)" fill="white"/>
<path d="M328.769 392.359L363.973 405.005M328.769 392.359L328.769 113.394M328.769 392.359L288.361 398.241M328.769 392.359L178.769 342.566M178.769 146.862L214.381 138.916M178.769 146.862L178.769 198.9M178.769 146.862L453.744 230.327M328.769 113.394L368.769 123.873M328.769 113.394L288.361 122.41M399.177 417.651L440.473 432.486C443.665 433.632 447.048 431.336 447.161 427.947L448.666 382.768M399.177 417.651L408.769 134.352M399.177 417.651L363.973 405.005M408.769 134.352L452.661 145.85C454.92 146.442 456.469 148.519 456.391 150.853L455.134 188.595M408.769 134.352L368.769 123.873M368.769 123.873L363.973 405.005M288.361 122.41L288.361 398.241M288.361 122.41L249.993 130.971M288.361 398.241L249.993 403.827M249.993 403.827L249.993 130.971M249.993 403.827L214.381 409.011M249.993 403.827L178.769 378.38M249.993 130.971L214.381 138.916M249.993 130.971L455.134 188.595M214.381 138.916L214.381 409.011M214.381 409.011L184.489 413.362C181.473 413.801 178.769 411.462 178.769 408.414L178.769 378.38M448.666 382.768L178.769 293.997M448.666 382.768L450.12 339.097M178.769 293.997L178.769 245.224M178.769 293.997L178.769 342.566M450.12 339.097L178.769 245.224M450.12 339.097L451.901 285.63M178.769 245.224L178.769 198.9M451.901 285.63L178.769 198.9M451.901 285.63L453.744 230.327M453.744 230.327L455.134 188.595M178.769 342.566L178.769 378.38" stroke="url(#paint0_linear_130_35)" stroke-width="2"/>
<defs>
<linearGradient id="paint0_linear_130_35" x1="192.372" y1="165.592" x2="292.022" y2="293.398" gradientUnits="userSpaceOnUse">
<stop stop-color="#8099C1"/>
<stop offset="1" stop-color="#B0C2D5" stop-opacity="0"/>
</linearGradient>
</defs>
</svg>
