<svg width="18" height="11" viewBox="0 0 18 11" fill="none" xmlns="http://www.w3.org/2000/svg">
<path d="M9.38886 1.94954C12.3445 1.94954 14.9804 3.36954 16.2672 5.61621C14.9804 7.86288 12.3523 9.28288 9.38886 9.28288C6.4254 9.28288 3.79728 7.86288 2.51051 5.61621C3.79728 3.36954 6.4332 1.94954 9.38886 1.94954ZM9.38886 0.616211C5.48957 0.616211 2.15958 2.68954 0.810425 5.61621C2.15958 8.54288 5.48957 10.6162 9.38886 10.6162C13.2881 10.6162 16.6181 8.54288 17.9673 5.61621C16.6181 2.68954 13.2881 0.616211 9.38886 0.616211ZM9.38886 3.94954C10.4651 3.94954 11.3385 4.69621 11.3385 5.61621C11.3385 6.53621 10.4651 7.28288 9.38886 7.28288C8.31265 7.28288 7.43921 6.53621 7.43921 5.61621C7.43921 4.69621 8.31265 3.94954 9.38886 3.94954ZM9.38886 2.61621C7.45481 2.61621 5.8795 3.96288 5.8795 5.61621C5.8795 7.26954 7.45481 8.61621 9.38886 8.61621C11.3229 8.61621 12.8982 7.26954 12.8982 5.61621C12.8982 3.96288 11.3229 2.61621 9.38886 2.61621Z" fill="#8D8D92"/>
</svg>
