<svg width="1400" height="753" viewBox="0 0 1400 753" fill="none" xmlns="http://www.w3.org/2000/svg">
<rect width="1200" height="397.345" rx="5" transform="matrix(-1 0 0 1 1200 170.881)" fill="url(#paint0_linear_130_34)"/>
<path d="M1200 175C1200 172.239 1197.76 170 1195 170H5C2.23857 170 0 172.239 0 175V565C0 567.761 2.23858 570 5 570H1195C1197.76 570 1200 567.761 1200 565V175Z" fill="url(#paint1_linear_130_34)"/>
<mask id="mask0_130_34" style="mask-type:alpha" maskUnits="userSpaceOnUse" x="0" y="170" width="1200" height="400">
<rect width="1200" height="400" rx="5" transform="matrix(-1 0 0 1 1200 170)" fill="#D9D9D9"/>
</mask>
<g mask="url(#mask0_130_34)">
<ellipse cx="327" cy="323.5" rx="327" ry="323.5" transform="matrix(-1 0 0 1 548 35)" fill="white"/>
<g filter="url(#filter0_f_130_34)">
<ellipse cx="198" cy="190.5" rx="198" ry="190.5" transform="matrix(-1 0 0 1 437 198)" fill="url(#paint2_linear_130_34)"/>
</g>
<path d="M263.576 497.702L309.711 511.198M263.576 497.702L263.576 200M263.576 497.702L210.621 503.98M263.576 497.702L67 444.564M67 235.716L113.67 227.236M67 235.716L67 291.249M67 235.716L427.356 324.787M263.576 200L315.996 211.183M263.576 200L210.621 209.621M355.846 524.693L412.292 541.204C415.411 542.117 418.558 539.857 418.691 536.61L420.702 487.467M355.846 524.693L368.417 222.365M355.846 524.693L309.711 511.198M368.417 222.365L426.875 234.836C429.258 235.344 430.927 237.496 430.828 239.93L429.178 280.251M368.417 222.365L315.996 211.183M315.996 211.183L309.711 511.198M210.621 209.621L210.621 503.98M210.621 209.621L160.34 218.757M210.621 503.98L160.34 509.94M160.34 509.94L160.34 218.757M160.34 509.94L113.67 515.472M160.34 509.94L67 482.784M160.34 218.757L113.67 227.236M160.34 218.757L429.178 280.251M113.67 227.236L113.67 515.472M113.67 515.472L72.5886 520.342C69.6147 520.694 67 518.371 67 515.377L67 482.784M420.702 487.467L67 392.733M420.702 487.467L422.608 440.862M67 392.733L67 340.684M67 392.733L67 444.564M422.608 440.862L67 340.684M422.608 440.862L424.942 383.804M67 340.684L67 291.249M424.942 383.804L67 291.249M424.942 383.804L427.356 324.787M427.356 324.787L429.178 280.251M67 444.564L67 482.784" stroke="url(#paint3_linear_130_34)" stroke-width="2"/>
</g>
<g filter="url(#filter1_f_130_34)">
<circle cx="1023.23" cy="376.228" r="176.228" fill="url(#paint4_linear_130_34)"/>
</g>
<defs>
<filter id="filter0_f_130_34" x="-159" y="-2" width="796" height="781" filterUnits="userSpaceOnUse" color-interpolation-filters="sRGB">
<feFlood flood-opacity="0" result="BackgroundImageFix"/>
<feBlend mode="normal" in="SourceGraphic" in2="BackgroundImageFix" result="shape"/>
<feGaussianBlur stdDeviation="100" result="effect1_foregroundBlur_130_34"/>
</filter>
<filter id="filter1_f_130_34" x="647" y="0" width="752.456" height="752.456" filterUnits="userSpaceOnUse" color-interpolation-filters="sRGB">
<feFlood flood-opacity="0" result="BackgroundImageFix"/>
<feBlend mode="normal" in="SourceGraphic" in2="BackgroundImageFix" result="shape"/>
<feGaussianBlur stdDeviation="100" result="effect1_foregroundBlur_130_34"/>
</filter>
<linearGradient id="paint0_linear_130_34" x1="112.5" y1="45.4727" x2="639.943" y2="664.172" gradientUnits="userSpaceOnUse">
<stop stop-color="#E9F7FF"/>
<stop offset="1" stop-color="#FFDBD5"/>
</linearGradient>
<linearGradient id="paint1_linear_130_34" x1="1075.5" y1="201.209" x2="407.631" y2="972.265" gradientUnits="userSpaceOnUse">
<stop offset="0.9998" stop-color="#83AFE7"/>
<stop offset="0.9999" stop-color="#F42028" stop-opacity="0.4"/>
<stop offset="1" stop-color="#FF000F" stop-opacity="0.29"/>
</linearGradient>
<linearGradient id="paint2_linear_130_34" x1="198" y1="0" x2="198" y2="381" gradientUnits="userSpaceOnUse">
<stop stop-color="#CFDDEC"/>
<stop offset="1" stop-color="#CFDDEC" stop-opacity="0"/>
</linearGradient>
<linearGradient id="paint3_linear_130_34" x1="84.8269" y1="255.704" x2="184.064" y2="412.002" gradientUnits="userSpaceOnUse">
<stop stop-color="#8099C1"/>
<stop offset="1" stop-color="#B0C2D5" stop-opacity="0"/>
</linearGradient>
<linearGradient id="paint4_linear_130_34" x1="1023.23" y1="200" x2="1023.23" y2="552.456" gradientUnits="userSpaceOnUse">
<stop stop-color="#CFDDEC"/>
<stop offset="1" stop-color="#CFDDEC" stop-opacity="0"/>
</linearGradient>
</defs>
</svg>
