<svg width="1400" height="753" viewBox="0 0 1400 753" fill="none" xmlns="http://www.w3.org/2000/svg">
<rect width="1200" height="397.345" rx="5" transform="matrix(-1 0 0 1 1200 170.881)" fill="url(#paint0_linear_130_34)"/>
<path d="M1200 175C1200 172.239 1197.76 170 1195 170H5C2.23857 170 0 172.239 0 175V565C0 567.761 2.23858 570 5 570H1195C1197.76 570 1200 567.761 1200 565V175Z" fill="url(#paint1_linear_130_34)"/>
<mask id="mask0_130_34" style="mask-type:alpha" maskUnits="userSpaceOnUse" x="0" y="170" width="1200" height="400">
<rect width="1200" height="400" rx="5" transform="matrix(-1 0 0 1 1200 170)" fill="#D9D9D9"/>
</mask>
<g mask="url(#mask0_130_34)">
<circle cx="269.76" cy="269.76" r="269.76" transform="matrix(-1 0 0 1 427.772 107.867)" fill="white"/>
<g filter="url(#filter0_f_130_34)">
<circle cx="176.228" cy="176.228" r="176.228" transform="matrix(-1 0 0 1 393.642 198.272)" fill="url(#paint2_linear_130_34)"/>
</g>
<path d="M217.022 500.226L252.226 512.872M217.022 500.226L217.022 221.261M217.022 500.226L176.614 506.108M217.022 500.226L67.0217 450.433M67.0217 254.729L102.634 246.783M67.0217 254.729L67.0217 306.767M67.0217 254.729L341.997 338.194M217.022 221.261L257.022 231.74M217.022 221.261L176.614 230.277M287.43 525.518L328.726 540.353C331.918 541.499 335.301 539.203 335.414 535.813L336.918 490.635M287.43 525.518L297.022 242.219M287.43 525.518L252.226 512.872M297.022 242.219L340.914 253.717C343.173 254.309 344.722 256.386 344.644 258.72L343.387 296.461M297.022 242.219L257.022 231.74M257.022 231.74L252.226 512.872M176.614 230.277L176.614 506.108M176.614 230.277L138.246 238.838M176.614 506.108L138.246 511.694M138.246 511.694L138.246 238.838M138.246 511.694L102.634 516.878M138.246 511.694L67.0217 486.247M138.246 238.838L102.634 246.783M138.246 238.838L343.387 296.461M102.634 246.783L102.634 516.878M102.634 516.878L72.7419 521.229C69.7256 521.668 67.0217 519.329 67.0217 516.281L67.0217 486.247M336.918 490.635L67.0217 401.864M336.918 490.635L338.373 446.964M67.0217 401.864L67.0217 353.091M67.0217 401.864L67.0217 450.433M338.373 446.964L67.0217 353.091M338.373 446.964L340.154 393.497M67.0217 353.091L67.0217 306.767M340.154 393.497L67.0217 306.767M340.154 393.497L341.997 338.194M341.997 338.194L343.387 296.461M67.0217 450.433L67.0217 486.247" stroke="url(#paint3_linear_130_34)" stroke-width="2"/>
</g>
<g filter="url(#filter1_f_130_34)">
<circle cx="1023.23" cy="376.228" r="176.228" fill="url(#paint4_linear_130_34)"/>
</g>
<defs>
<filter id="filter0_f_130_34" x="-158.814" y="-1.72754" width="752.456" height="752.456" filterUnits="userSpaceOnUse" color-interpolation-filters="sRGB">
<feFlood flood-opacity="0" result="BackgroundImageFix"/>
<feBlend mode="normal" in="SourceGraphic" in2="BackgroundImageFix" result="shape"/>
<feGaussianBlur stdDeviation="100" result="effect1_foregroundBlur_130_34"/>
</filter>
<filter id="filter1_f_130_34" x="647" y="0" width="752.456" height="752.456" filterUnits="userSpaceOnUse" color-interpolation-filters="sRGB">
<feFlood flood-opacity="0" result="BackgroundImageFix"/>
<feBlend mode="normal" in="SourceGraphic" in2="BackgroundImageFix" result="shape"/>
<feGaussianBlur stdDeviation="100" result="effect1_foregroundBlur_130_34"/>
</filter>
<linearGradient id="paint0_linear_130_34" x1="112.5" y1="45.4727" x2="639.943" y2="664.172" gradientUnits="userSpaceOnUse">
<stop stop-color="#E9F7FF"/>
<stop offset="1" stop-color="#FFDBD5"/>
</linearGradient>
<linearGradient id="paint1_linear_130_34" x1="1075.5" y1="201.209" x2="407.631" y2="972.265" gradientUnits="userSpaceOnUse">
<stop offset="0.9998" stop-color="#83AFE7"/>
<stop offset="0.9999" stop-color="#F42028" stop-opacity="0.4"/>
<stop offset="1" stop-color="#FF000F" stop-opacity="0.29"/>
</linearGradient>
<linearGradient id="paint2_linear_130_34" x1="176.228" y1="0" x2="176.228" y2="352.456" gradientUnits="userSpaceOnUse">
<stop stop-color="#CFDDEC"/>
<stop offset="1" stop-color="#CFDDEC" stop-opacity="0"/>
</linearGradient>
<linearGradient id="paint3_linear_130_34" x1="80.6247" y1="273.459" x2="180.275" y2="401.264" gradientUnits="userSpaceOnUse">
<stop stop-color="#8099C1"/>
<stop offset="1" stop-color="#B0C2D5" stop-opacity="0"/>
</linearGradient>
<linearGradient id="paint4_linear_130_34" x1="1023.23" y1="200" x2="1023.23" y2="552.456" gradientUnits="userSpaceOnUse">
<stop stop-color="#CFDDEC"/>
<stop offset="1" stop-color="#CFDDEC" stop-opacity="0"/>
</linearGradient>
</defs>
</svg>
